%TF.GenerationSoftware,KiCad,Pcbnew,9.0.1*%
%TF.CreationDate,2025-05-22T01:20:04+01:00*%
%TF.ProjectId,ADAU1701-DSP,41444155-3137-4303-912d-4453502e6b69,rev?*%
%TF.SameCoordinates,Original*%
%TF.FileFunction,Legend,Top*%
%TF.FilePolarity,Positive*%
%FSLAX46Y46*%
G04 Gerber Fmt 4.6, Leading zero omitted, Abs format (unit mm)*
G04 Created by KiCad (PCBNEW 9.0.1) date 2025-05-22 01:20:04*
%MOMM*%
%LPD*%
G01*
G04 APERTURE LIST*
%ADD10C,0.125000*%
%ADD11C,0.120000*%
G04 APERTURE END LIST*
D10*
X200195714Y-132274309D02*
X200314762Y-132774309D01*
X200314762Y-132774309D02*
X200410000Y-132417166D01*
X200410000Y-132417166D02*
X200505238Y-132774309D01*
X200505238Y-132774309D02*
X200624286Y-132274309D01*
X200814762Y-132774309D02*
X200814762Y-132274309D01*
X200814762Y-132274309D02*
X201005238Y-132274309D01*
X201005238Y-132274309D02*
X201052857Y-132298119D01*
X201052857Y-132298119D02*
X201076667Y-132321928D01*
X201076667Y-132321928D02*
X201100476Y-132369547D01*
X201100476Y-132369547D02*
X201100476Y-132440976D01*
X201100476Y-132440976D02*
X201076667Y-132488595D01*
X201076667Y-132488595D02*
X201052857Y-132512404D01*
X201052857Y-132512404D02*
X201005238Y-132536214D01*
X201005238Y-132536214D02*
X200814762Y-132536214D01*
X174748095Y-133028309D02*
X174748095Y-132528309D01*
X174986190Y-133028309D02*
X174986190Y-132528309D01*
X174986190Y-132528309D02*
X175271904Y-133028309D01*
X175271904Y-133028309D02*
X175271904Y-132528309D01*
X175795714Y-133028309D02*
X175629048Y-132790214D01*
X175510000Y-133028309D02*
X175510000Y-132528309D01*
X175510000Y-132528309D02*
X175700476Y-132528309D01*
X175700476Y-132528309D02*
X175748095Y-132552119D01*
X175748095Y-132552119D02*
X175771905Y-132575928D01*
X175771905Y-132575928D02*
X175795714Y-132623547D01*
X175795714Y-132623547D02*
X175795714Y-132694976D01*
X175795714Y-132694976D02*
X175771905Y-132742595D01*
X175771905Y-132742595D02*
X175748095Y-132766404D01*
X175748095Y-132766404D02*
X175700476Y-132790214D01*
X175700476Y-132790214D02*
X175510000Y-132790214D01*
X168191714Y-133028309D02*
X168191714Y-132528309D01*
X168429809Y-133028309D02*
X168429809Y-132528309D01*
X168429809Y-132528309D02*
X168715523Y-133028309D01*
X168715523Y-133028309D02*
X168715523Y-132528309D01*
X169191714Y-133028309D02*
X168953619Y-133028309D01*
X168953619Y-133028309D02*
X168953619Y-132528309D01*
X156372857Y-132496500D02*
X156444285Y-132520309D01*
X156444285Y-132520309D02*
X156563333Y-132520309D01*
X156563333Y-132520309D02*
X156610952Y-132496500D01*
X156610952Y-132496500D02*
X156634761Y-132472690D01*
X156634761Y-132472690D02*
X156658571Y-132425071D01*
X156658571Y-132425071D02*
X156658571Y-132377452D01*
X156658571Y-132377452D02*
X156634761Y-132329833D01*
X156634761Y-132329833D02*
X156610952Y-132306023D01*
X156610952Y-132306023D02*
X156563333Y-132282214D01*
X156563333Y-132282214D02*
X156468095Y-132258404D01*
X156468095Y-132258404D02*
X156420476Y-132234595D01*
X156420476Y-132234595D02*
X156396666Y-132210785D01*
X156396666Y-132210785D02*
X156372857Y-132163166D01*
X156372857Y-132163166D02*
X156372857Y-132115547D01*
X156372857Y-132115547D02*
X156396666Y-132067928D01*
X156396666Y-132067928D02*
X156420476Y-132044119D01*
X156420476Y-132044119D02*
X156468095Y-132020309D01*
X156468095Y-132020309D02*
X156587142Y-132020309D01*
X156587142Y-132020309D02*
X156658571Y-132044119D01*
X157039523Y-132258404D02*
X157110951Y-132282214D01*
X157110951Y-132282214D02*
X157134761Y-132306023D01*
X157134761Y-132306023D02*
X157158570Y-132353642D01*
X157158570Y-132353642D02*
X157158570Y-132425071D01*
X157158570Y-132425071D02*
X157134761Y-132472690D01*
X157134761Y-132472690D02*
X157110951Y-132496500D01*
X157110951Y-132496500D02*
X157063332Y-132520309D01*
X157063332Y-132520309D02*
X156872856Y-132520309D01*
X156872856Y-132520309D02*
X156872856Y-132020309D01*
X156872856Y-132020309D02*
X157039523Y-132020309D01*
X157039523Y-132020309D02*
X157087142Y-132044119D01*
X157087142Y-132044119D02*
X157110951Y-132067928D01*
X157110951Y-132067928D02*
X157134761Y-132115547D01*
X157134761Y-132115547D02*
X157134761Y-132163166D01*
X157134761Y-132163166D02*
X157110951Y-132210785D01*
X157110951Y-132210785D02*
X157087142Y-132234595D01*
X157087142Y-132234595D02*
X157039523Y-132258404D01*
X157039523Y-132258404D02*
X156872856Y-132258404D01*
X157468094Y-132020309D02*
X157563332Y-132020309D01*
X157563332Y-132020309D02*
X157610951Y-132044119D01*
X157610951Y-132044119D02*
X157658570Y-132091738D01*
X157658570Y-132091738D02*
X157682380Y-132186976D01*
X157682380Y-132186976D02*
X157682380Y-132353642D01*
X157682380Y-132353642D02*
X157658570Y-132448880D01*
X157658570Y-132448880D02*
X157610951Y-132496500D01*
X157610951Y-132496500D02*
X157563332Y-132520309D01*
X157563332Y-132520309D02*
X157468094Y-132520309D01*
X157468094Y-132520309D02*
X157420475Y-132496500D01*
X157420475Y-132496500D02*
X157372856Y-132448880D01*
X157372856Y-132448880D02*
X157349047Y-132353642D01*
X157349047Y-132353642D02*
X157349047Y-132186976D01*
X157349047Y-132186976D02*
X157372856Y-132091738D01*
X157372856Y-132091738D02*
X157420475Y-132044119D01*
X157420475Y-132044119D02*
X157468094Y-132020309D01*
X157991904Y-132020309D02*
X158087142Y-132020309D01*
X158087142Y-132020309D02*
X158134761Y-132044119D01*
X158134761Y-132044119D02*
X158182380Y-132091738D01*
X158182380Y-132091738D02*
X158206190Y-132186976D01*
X158206190Y-132186976D02*
X158206190Y-132353642D01*
X158206190Y-132353642D02*
X158182380Y-132448880D01*
X158182380Y-132448880D02*
X158134761Y-132496500D01*
X158134761Y-132496500D02*
X158087142Y-132520309D01*
X158087142Y-132520309D02*
X157991904Y-132520309D01*
X157991904Y-132520309D02*
X157944285Y-132496500D01*
X157944285Y-132496500D02*
X157896666Y-132448880D01*
X157896666Y-132448880D02*
X157872857Y-132353642D01*
X157872857Y-132353642D02*
X157872857Y-132186976D01*
X157872857Y-132186976D02*
X157896666Y-132091738D01*
X157896666Y-132091738D02*
X157944285Y-132044119D01*
X157944285Y-132044119D02*
X157991904Y-132020309D01*
X158349048Y-132020309D02*
X158634762Y-132020309D01*
X158491905Y-132520309D02*
X158491905Y-132020309D01*
X154225715Y-132020309D02*
X154535239Y-132020309D01*
X154535239Y-132020309D02*
X154368572Y-132210785D01*
X154368572Y-132210785D02*
X154440001Y-132210785D01*
X154440001Y-132210785D02*
X154487620Y-132234595D01*
X154487620Y-132234595D02*
X154511429Y-132258404D01*
X154511429Y-132258404D02*
X154535239Y-132306023D01*
X154535239Y-132306023D02*
X154535239Y-132425071D01*
X154535239Y-132425071D02*
X154511429Y-132472690D01*
X154511429Y-132472690D02*
X154487620Y-132496500D01*
X154487620Y-132496500D02*
X154440001Y-132520309D01*
X154440001Y-132520309D02*
X154297144Y-132520309D01*
X154297144Y-132520309D02*
X154249525Y-132496500D01*
X154249525Y-132496500D02*
X154225715Y-132472690D01*
X154749524Y-132472690D02*
X154773334Y-132496500D01*
X154773334Y-132496500D02*
X154749524Y-132520309D01*
X154749524Y-132520309D02*
X154725715Y-132496500D01*
X154725715Y-132496500D02*
X154749524Y-132472690D01*
X154749524Y-132472690D02*
X154749524Y-132520309D01*
X154940000Y-132020309D02*
X155249524Y-132020309D01*
X155249524Y-132020309D02*
X155082857Y-132210785D01*
X155082857Y-132210785D02*
X155154286Y-132210785D01*
X155154286Y-132210785D02*
X155201905Y-132234595D01*
X155201905Y-132234595D02*
X155225714Y-132258404D01*
X155225714Y-132258404D02*
X155249524Y-132306023D01*
X155249524Y-132306023D02*
X155249524Y-132425071D01*
X155249524Y-132425071D02*
X155225714Y-132472690D01*
X155225714Y-132472690D02*
X155201905Y-132496500D01*
X155201905Y-132496500D02*
X155154286Y-132520309D01*
X155154286Y-132520309D02*
X155011429Y-132520309D01*
X155011429Y-132520309D02*
X154963810Y-132496500D01*
X154963810Y-132496500D02*
X154940000Y-132472690D01*
X155416190Y-132186976D02*
X155535238Y-132520309D01*
X155535238Y-132520309D02*
X155654285Y-132186976D01*
X157194285Y-106366309D02*
X157289523Y-106366309D01*
X157289523Y-106366309D02*
X157337142Y-106390119D01*
X157337142Y-106390119D02*
X157384761Y-106437738D01*
X157384761Y-106437738D02*
X157408571Y-106532976D01*
X157408571Y-106532976D02*
X157408571Y-106699642D01*
X157408571Y-106699642D02*
X157384761Y-106794880D01*
X157384761Y-106794880D02*
X157337142Y-106842500D01*
X157337142Y-106842500D02*
X157289523Y-106866309D01*
X157289523Y-106866309D02*
X157194285Y-106866309D01*
X157194285Y-106866309D02*
X157146666Y-106842500D01*
X157146666Y-106842500D02*
X157099047Y-106794880D01*
X157099047Y-106794880D02*
X157075238Y-106699642D01*
X157075238Y-106699642D02*
X157075238Y-106532976D01*
X157075238Y-106532976D02*
X157099047Y-106437738D01*
X157099047Y-106437738D02*
X157146666Y-106390119D01*
X157146666Y-106390119D02*
X157194285Y-106366309D01*
X157884762Y-106866309D02*
X157599048Y-106866309D01*
X157741905Y-106866309D02*
X157741905Y-106366309D01*
X157741905Y-106366309D02*
X157694286Y-106437738D01*
X157694286Y-106437738D02*
X157646667Y-106485357D01*
X157646667Y-106485357D02*
X157599048Y-106509166D01*
X159734285Y-106366309D02*
X159829523Y-106366309D01*
X159829523Y-106366309D02*
X159877142Y-106390119D01*
X159877142Y-106390119D02*
X159924761Y-106437738D01*
X159924761Y-106437738D02*
X159948571Y-106532976D01*
X159948571Y-106532976D02*
X159948571Y-106699642D01*
X159948571Y-106699642D02*
X159924761Y-106794880D01*
X159924761Y-106794880D02*
X159877142Y-106842500D01*
X159877142Y-106842500D02*
X159829523Y-106866309D01*
X159829523Y-106866309D02*
X159734285Y-106866309D01*
X159734285Y-106866309D02*
X159686666Y-106842500D01*
X159686666Y-106842500D02*
X159639047Y-106794880D01*
X159639047Y-106794880D02*
X159615238Y-106699642D01*
X159615238Y-106699642D02*
X159615238Y-106532976D01*
X159615238Y-106532976D02*
X159639047Y-106437738D01*
X159639047Y-106437738D02*
X159686666Y-106390119D01*
X159686666Y-106390119D02*
X159734285Y-106366309D01*
X160139048Y-106413928D02*
X160162857Y-106390119D01*
X160162857Y-106390119D02*
X160210476Y-106366309D01*
X160210476Y-106366309D02*
X160329524Y-106366309D01*
X160329524Y-106366309D02*
X160377143Y-106390119D01*
X160377143Y-106390119D02*
X160400952Y-106413928D01*
X160400952Y-106413928D02*
X160424762Y-106461547D01*
X160424762Y-106461547D02*
X160424762Y-106509166D01*
X160424762Y-106509166D02*
X160400952Y-106580595D01*
X160400952Y-106580595D02*
X160115238Y-106866309D01*
X160115238Y-106866309D02*
X160424762Y-106866309D01*
X162274285Y-106366309D02*
X162369523Y-106366309D01*
X162369523Y-106366309D02*
X162417142Y-106390119D01*
X162417142Y-106390119D02*
X162464761Y-106437738D01*
X162464761Y-106437738D02*
X162488571Y-106532976D01*
X162488571Y-106532976D02*
X162488571Y-106699642D01*
X162488571Y-106699642D02*
X162464761Y-106794880D01*
X162464761Y-106794880D02*
X162417142Y-106842500D01*
X162417142Y-106842500D02*
X162369523Y-106866309D01*
X162369523Y-106866309D02*
X162274285Y-106866309D01*
X162274285Y-106866309D02*
X162226666Y-106842500D01*
X162226666Y-106842500D02*
X162179047Y-106794880D01*
X162179047Y-106794880D02*
X162155238Y-106699642D01*
X162155238Y-106699642D02*
X162155238Y-106532976D01*
X162155238Y-106532976D02*
X162179047Y-106437738D01*
X162179047Y-106437738D02*
X162226666Y-106390119D01*
X162226666Y-106390119D02*
X162274285Y-106366309D01*
X162655238Y-106366309D02*
X162964762Y-106366309D01*
X162964762Y-106366309D02*
X162798095Y-106556785D01*
X162798095Y-106556785D02*
X162869524Y-106556785D01*
X162869524Y-106556785D02*
X162917143Y-106580595D01*
X162917143Y-106580595D02*
X162940952Y-106604404D01*
X162940952Y-106604404D02*
X162964762Y-106652023D01*
X162964762Y-106652023D02*
X162964762Y-106771071D01*
X162964762Y-106771071D02*
X162940952Y-106818690D01*
X162940952Y-106818690D02*
X162917143Y-106842500D01*
X162917143Y-106842500D02*
X162869524Y-106866309D01*
X162869524Y-106866309D02*
X162726667Y-106866309D01*
X162726667Y-106866309D02*
X162679048Y-106842500D01*
X162679048Y-106842500D02*
X162655238Y-106818690D01*
X164814285Y-106366309D02*
X164909523Y-106366309D01*
X164909523Y-106366309D02*
X164957142Y-106390119D01*
X164957142Y-106390119D02*
X165004761Y-106437738D01*
X165004761Y-106437738D02*
X165028571Y-106532976D01*
X165028571Y-106532976D02*
X165028571Y-106699642D01*
X165028571Y-106699642D02*
X165004761Y-106794880D01*
X165004761Y-106794880D02*
X164957142Y-106842500D01*
X164957142Y-106842500D02*
X164909523Y-106866309D01*
X164909523Y-106866309D02*
X164814285Y-106866309D01*
X164814285Y-106866309D02*
X164766666Y-106842500D01*
X164766666Y-106842500D02*
X164719047Y-106794880D01*
X164719047Y-106794880D02*
X164695238Y-106699642D01*
X164695238Y-106699642D02*
X164695238Y-106532976D01*
X164695238Y-106532976D02*
X164719047Y-106437738D01*
X164719047Y-106437738D02*
X164766666Y-106390119D01*
X164766666Y-106390119D02*
X164814285Y-106366309D01*
X165457143Y-106532976D02*
X165457143Y-106866309D01*
X165338095Y-106342500D02*
X165219048Y-106699642D01*
X165219048Y-106699642D02*
X165528571Y-106699642D01*
X182606190Y-106866309D02*
X182439524Y-106628214D01*
X182320476Y-106866309D02*
X182320476Y-106366309D01*
X182320476Y-106366309D02*
X182510952Y-106366309D01*
X182510952Y-106366309D02*
X182558571Y-106390119D01*
X182558571Y-106390119D02*
X182582381Y-106413928D01*
X182582381Y-106413928D02*
X182606190Y-106461547D01*
X182606190Y-106461547D02*
X182606190Y-106532976D01*
X182606190Y-106532976D02*
X182582381Y-106580595D01*
X182582381Y-106580595D02*
X182558571Y-106604404D01*
X182558571Y-106604404D02*
X182510952Y-106628214D01*
X182510952Y-106628214D02*
X182320476Y-106628214D01*
X182796667Y-106842500D02*
X182868095Y-106866309D01*
X182868095Y-106866309D02*
X182987143Y-106866309D01*
X182987143Y-106866309D02*
X183034762Y-106842500D01*
X183034762Y-106842500D02*
X183058571Y-106818690D01*
X183058571Y-106818690D02*
X183082381Y-106771071D01*
X183082381Y-106771071D02*
X183082381Y-106723452D01*
X183082381Y-106723452D02*
X183058571Y-106675833D01*
X183058571Y-106675833D02*
X183034762Y-106652023D01*
X183034762Y-106652023D02*
X182987143Y-106628214D01*
X182987143Y-106628214D02*
X182891905Y-106604404D01*
X182891905Y-106604404D02*
X182844286Y-106580595D01*
X182844286Y-106580595D02*
X182820476Y-106556785D01*
X182820476Y-106556785D02*
X182796667Y-106509166D01*
X182796667Y-106509166D02*
X182796667Y-106461547D01*
X182796667Y-106461547D02*
X182820476Y-106413928D01*
X182820476Y-106413928D02*
X182844286Y-106390119D01*
X182844286Y-106390119D02*
X182891905Y-106366309D01*
X182891905Y-106366309D02*
X183010952Y-106366309D01*
X183010952Y-106366309D02*
X183082381Y-106390119D01*
X183225238Y-106366309D02*
X183510952Y-106366309D01*
X183368095Y-106866309D02*
X183368095Y-106366309D01*
X184824762Y-106842500D02*
X184896190Y-106866309D01*
X184896190Y-106866309D02*
X185015238Y-106866309D01*
X185015238Y-106866309D02*
X185062857Y-106842500D01*
X185062857Y-106842500D02*
X185086666Y-106818690D01*
X185086666Y-106818690D02*
X185110476Y-106771071D01*
X185110476Y-106771071D02*
X185110476Y-106723452D01*
X185110476Y-106723452D02*
X185086666Y-106675833D01*
X185086666Y-106675833D02*
X185062857Y-106652023D01*
X185062857Y-106652023D02*
X185015238Y-106628214D01*
X185015238Y-106628214D02*
X184920000Y-106604404D01*
X184920000Y-106604404D02*
X184872381Y-106580595D01*
X184872381Y-106580595D02*
X184848571Y-106556785D01*
X184848571Y-106556785D02*
X184824762Y-106509166D01*
X184824762Y-106509166D02*
X184824762Y-106461547D01*
X184824762Y-106461547D02*
X184848571Y-106413928D01*
X184848571Y-106413928D02*
X184872381Y-106390119D01*
X184872381Y-106390119D02*
X184920000Y-106366309D01*
X184920000Y-106366309D02*
X185039047Y-106366309D01*
X185039047Y-106366309D02*
X185110476Y-106390119D01*
X185610475Y-106818690D02*
X185586666Y-106842500D01*
X185586666Y-106842500D02*
X185515237Y-106866309D01*
X185515237Y-106866309D02*
X185467618Y-106866309D01*
X185467618Y-106866309D02*
X185396190Y-106842500D01*
X185396190Y-106842500D02*
X185348571Y-106794880D01*
X185348571Y-106794880D02*
X185324761Y-106747261D01*
X185324761Y-106747261D02*
X185300952Y-106652023D01*
X185300952Y-106652023D02*
X185300952Y-106580595D01*
X185300952Y-106580595D02*
X185324761Y-106485357D01*
X185324761Y-106485357D02*
X185348571Y-106437738D01*
X185348571Y-106437738D02*
X185396190Y-106390119D01*
X185396190Y-106390119D02*
X185467618Y-106366309D01*
X185467618Y-106366309D02*
X185515237Y-106366309D01*
X185515237Y-106366309D02*
X185586666Y-106390119D01*
X185586666Y-106390119D02*
X185610475Y-106413928D01*
X186062856Y-106866309D02*
X185824761Y-106866309D01*
X185824761Y-106866309D02*
X185824761Y-106366309D01*
X187352858Y-106842500D02*
X187424286Y-106866309D01*
X187424286Y-106866309D02*
X187543334Y-106866309D01*
X187543334Y-106866309D02*
X187590953Y-106842500D01*
X187590953Y-106842500D02*
X187614762Y-106818690D01*
X187614762Y-106818690D02*
X187638572Y-106771071D01*
X187638572Y-106771071D02*
X187638572Y-106723452D01*
X187638572Y-106723452D02*
X187614762Y-106675833D01*
X187614762Y-106675833D02*
X187590953Y-106652023D01*
X187590953Y-106652023D02*
X187543334Y-106628214D01*
X187543334Y-106628214D02*
X187448096Y-106604404D01*
X187448096Y-106604404D02*
X187400477Y-106580595D01*
X187400477Y-106580595D02*
X187376667Y-106556785D01*
X187376667Y-106556785D02*
X187352858Y-106509166D01*
X187352858Y-106509166D02*
X187352858Y-106461547D01*
X187352858Y-106461547D02*
X187376667Y-106413928D01*
X187376667Y-106413928D02*
X187400477Y-106390119D01*
X187400477Y-106390119D02*
X187448096Y-106366309D01*
X187448096Y-106366309D02*
X187567143Y-106366309D01*
X187567143Y-106366309D02*
X187638572Y-106390119D01*
X187852857Y-106866309D02*
X187852857Y-106366309D01*
X187852857Y-106366309D02*
X187971905Y-106366309D01*
X187971905Y-106366309D02*
X188043333Y-106390119D01*
X188043333Y-106390119D02*
X188090952Y-106437738D01*
X188090952Y-106437738D02*
X188114762Y-106485357D01*
X188114762Y-106485357D02*
X188138571Y-106580595D01*
X188138571Y-106580595D02*
X188138571Y-106652023D01*
X188138571Y-106652023D02*
X188114762Y-106747261D01*
X188114762Y-106747261D02*
X188090952Y-106794880D01*
X188090952Y-106794880D02*
X188043333Y-106842500D01*
X188043333Y-106842500D02*
X187971905Y-106866309D01*
X187971905Y-106866309D02*
X187852857Y-106866309D01*
X188329048Y-106723452D02*
X188567143Y-106723452D01*
X188281429Y-106866309D02*
X188448095Y-106366309D01*
X188448095Y-106366309D02*
X188614762Y-106866309D01*
X189785715Y-106366309D02*
X190095239Y-106366309D01*
X190095239Y-106366309D02*
X189928572Y-106556785D01*
X189928572Y-106556785D02*
X190000001Y-106556785D01*
X190000001Y-106556785D02*
X190047620Y-106580595D01*
X190047620Y-106580595D02*
X190071429Y-106604404D01*
X190071429Y-106604404D02*
X190095239Y-106652023D01*
X190095239Y-106652023D02*
X190095239Y-106771071D01*
X190095239Y-106771071D02*
X190071429Y-106818690D01*
X190071429Y-106818690D02*
X190047620Y-106842500D01*
X190047620Y-106842500D02*
X190000001Y-106866309D01*
X190000001Y-106866309D02*
X189857144Y-106866309D01*
X189857144Y-106866309D02*
X189809525Y-106842500D01*
X189809525Y-106842500D02*
X189785715Y-106818690D01*
X190309524Y-106818690D02*
X190333334Y-106842500D01*
X190333334Y-106842500D02*
X190309524Y-106866309D01*
X190309524Y-106866309D02*
X190285715Y-106842500D01*
X190285715Y-106842500D02*
X190309524Y-106818690D01*
X190309524Y-106818690D02*
X190309524Y-106866309D01*
X190500000Y-106366309D02*
X190809524Y-106366309D01*
X190809524Y-106366309D02*
X190642857Y-106556785D01*
X190642857Y-106556785D02*
X190714286Y-106556785D01*
X190714286Y-106556785D02*
X190761905Y-106580595D01*
X190761905Y-106580595D02*
X190785714Y-106604404D01*
X190785714Y-106604404D02*
X190809524Y-106652023D01*
X190809524Y-106652023D02*
X190809524Y-106771071D01*
X190809524Y-106771071D02*
X190785714Y-106818690D01*
X190785714Y-106818690D02*
X190761905Y-106842500D01*
X190761905Y-106842500D02*
X190714286Y-106866309D01*
X190714286Y-106866309D02*
X190571429Y-106866309D01*
X190571429Y-106866309D02*
X190523810Y-106842500D01*
X190523810Y-106842500D02*
X190500000Y-106818690D01*
X190976190Y-106532976D02*
X191095238Y-106866309D01*
X191095238Y-106866309D02*
X191214285Y-106532976D01*
X200279047Y-107152119D02*
X200231428Y-107128309D01*
X200231428Y-107128309D02*
X200159999Y-107128309D01*
X200159999Y-107128309D02*
X200088571Y-107152119D01*
X200088571Y-107152119D02*
X200040952Y-107199738D01*
X200040952Y-107199738D02*
X200017142Y-107247357D01*
X200017142Y-107247357D02*
X199993333Y-107342595D01*
X199993333Y-107342595D02*
X199993333Y-107414023D01*
X199993333Y-107414023D02*
X200017142Y-107509261D01*
X200017142Y-107509261D02*
X200040952Y-107556880D01*
X200040952Y-107556880D02*
X200088571Y-107604500D01*
X200088571Y-107604500D02*
X200159999Y-107628309D01*
X200159999Y-107628309D02*
X200207618Y-107628309D01*
X200207618Y-107628309D02*
X200279047Y-107604500D01*
X200279047Y-107604500D02*
X200302856Y-107580690D01*
X200302856Y-107580690D02*
X200302856Y-107414023D01*
X200302856Y-107414023D02*
X200207618Y-107414023D01*
X200517142Y-107628309D02*
X200517142Y-107128309D01*
X200517142Y-107128309D02*
X200802856Y-107628309D01*
X200802856Y-107628309D02*
X200802856Y-107128309D01*
X201040952Y-107628309D02*
X201040952Y-107128309D01*
X201040952Y-107128309D02*
X201160000Y-107128309D01*
X201160000Y-107128309D02*
X201231428Y-107152119D01*
X201231428Y-107152119D02*
X201279047Y-107199738D01*
X201279047Y-107199738D02*
X201302857Y-107247357D01*
X201302857Y-107247357D02*
X201326666Y-107342595D01*
X201326666Y-107342595D02*
X201326666Y-107414023D01*
X201326666Y-107414023D02*
X201302857Y-107509261D01*
X201302857Y-107509261D02*
X201279047Y-107556880D01*
X201279047Y-107556880D02*
X201231428Y-107604500D01*
X201231428Y-107604500D02*
X201160000Y-107628309D01*
X201160000Y-107628309D02*
X201040952Y-107628309D01*
X197405715Y-107128309D02*
X197715239Y-107128309D01*
X197715239Y-107128309D02*
X197548572Y-107318785D01*
X197548572Y-107318785D02*
X197620001Y-107318785D01*
X197620001Y-107318785D02*
X197667620Y-107342595D01*
X197667620Y-107342595D02*
X197691429Y-107366404D01*
X197691429Y-107366404D02*
X197715239Y-107414023D01*
X197715239Y-107414023D02*
X197715239Y-107533071D01*
X197715239Y-107533071D02*
X197691429Y-107580690D01*
X197691429Y-107580690D02*
X197667620Y-107604500D01*
X197667620Y-107604500D02*
X197620001Y-107628309D01*
X197620001Y-107628309D02*
X197477144Y-107628309D01*
X197477144Y-107628309D02*
X197429525Y-107604500D01*
X197429525Y-107604500D02*
X197405715Y-107580690D01*
X197929524Y-107580690D02*
X197953334Y-107604500D01*
X197953334Y-107604500D02*
X197929524Y-107628309D01*
X197929524Y-107628309D02*
X197905715Y-107604500D01*
X197905715Y-107604500D02*
X197929524Y-107580690D01*
X197929524Y-107580690D02*
X197929524Y-107628309D01*
X198120000Y-107128309D02*
X198429524Y-107128309D01*
X198429524Y-107128309D02*
X198262857Y-107318785D01*
X198262857Y-107318785D02*
X198334286Y-107318785D01*
X198334286Y-107318785D02*
X198381905Y-107342595D01*
X198381905Y-107342595D02*
X198405714Y-107366404D01*
X198405714Y-107366404D02*
X198429524Y-107414023D01*
X198429524Y-107414023D02*
X198429524Y-107533071D01*
X198429524Y-107533071D02*
X198405714Y-107580690D01*
X198405714Y-107580690D02*
X198381905Y-107604500D01*
X198381905Y-107604500D02*
X198334286Y-107628309D01*
X198334286Y-107628309D02*
X198191429Y-107628309D01*
X198191429Y-107628309D02*
X198143810Y-107604500D01*
X198143810Y-107604500D02*
X198120000Y-107580690D01*
X198596190Y-107294976D02*
X198715238Y-107628309D01*
X198715238Y-107628309D02*
X198834285Y-107294976D01*
X164007190Y-130485833D02*
X164031000Y-130509642D01*
X164031000Y-130509642D02*
X164054809Y-130581071D01*
X164054809Y-130581071D02*
X164054809Y-130628690D01*
X164054809Y-130628690D02*
X164031000Y-130700118D01*
X164031000Y-130700118D02*
X163983380Y-130747737D01*
X163983380Y-130747737D02*
X163935761Y-130771547D01*
X163935761Y-130771547D02*
X163840523Y-130795356D01*
X163840523Y-130795356D02*
X163769095Y-130795356D01*
X163769095Y-130795356D02*
X163673857Y-130771547D01*
X163673857Y-130771547D02*
X163626238Y-130747737D01*
X163626238Y-130747737D02*
X163578619Y-130700118D01*
X163578619Y-130700118D02*
X163554809Y-130628690D01*
X163554809Y-130628690D02*
X163554809Y-130581071D01*
X163554809Y-130581071D02*
X163578619Y-130509642D01*
X163578619Y-130509642D02*
X163602428Y-130485833D01*
X163554809Y-130319166D02*
X163554809Y-129985833D01*
X163554809Y-129985833D02*
X164054809Y-130200118D01*
X161467190Y-130485833D02*
X161491000Y-130509642D01*
X161491000Y-130509642D02*
X161514809Y-130581071D01*
X161514809Y-130581071D02*
X161514809Y-130628690D01*
X161514809Y-130628690D02*
X161491000Y-130700118D01*
X161491000Y-130700118D02*
X161443380Y-130747737D01*
X161443380Y-130747737D02*
X161395761Y-130771547D01*
X161395761Y-130771547D02*
X161300523Y-130795356D01*
X161300523Y-130795356D02*
X161229095Y-130795356D01*
X161229095Y-130795356D02*
X161133857Y-130771547D01*
X161133857Y-130771547D02*
X161086238Y-130747737D01*
X161086238Y-130747737D02*
X161038619Y-130700118D01*
X161038619Y-130700118D02*
X161014809Y-130628690D01*
X161014809Y-130628690D02*
X161014809Y-130581071D01*
X161014809Y-130581071D02*
X161038619Y-130509642D01*
X161038619Y-130509642D02*
X161062428Y-130485833D01*
X161229095Y-130200118D02*
X161205285Y-130247737D01*
X161205285Y-130247737D02*
X161181476Y-130271547D01*
X161181476Y-130271547D02*
X161133857Y-130295356D01*
X161133857Y-130295356D02*
X161110047Y-130295356D01*
X161110047Y-130295356D02*
X161062428Y-130271547D01*
X161062428Y-130271547D02*
X161038619Y-130247737D01*
X161038619Y-130247737D02*
X161014809Y-130200118D01*
X161014809Y-130200118D02*
X161014809Y-130104880D01*
X161014809Y-130104880D02*
X161038619Y-130057261D01*
X161038619Y-130057261D02*
X161062428Y-130033452D01*
X161062428Y-130033452D02*
X161110047Y-130009642D01*
X161110047Y-130009642D02*
X161133857Y-130009642D01*
X161133857Y-130009642D02*
X161181476Y-130033452D01*
X161181476Y-130033452D02*
X161205285Y-130057261D01*
X161205285Y-130057261D02*
X161229095Y-130104880D01*
X161229095Y-130104880D02*
X161229095Y-130200118D01*
X161229095Y-130200118D02*
X161252904Y-130247737D01*
X161252904Y-130247737D02*
X161276714Y-130271547D01*
X161276714Y-130271547D02*
X161324333Y-130295356D01*
X161324333Y-130295356D02*
X161419571Y-130295356D01*
X161419571Y-130295356D02*
X161467190Y-130271547D01*
X161467190Y-130271547D02*
X161491000Y-130247737D01*
X161491000Y-130247737D02*
X161514809Y-130200118D01*
X161514809Y-130200118D02*
X161514809Y-130104880D01*
X161514809Y-130104880D02*
X161491000Y-130057261D01*
X161491000Y-130057261D02*
X161467190Y-130033452D01*
X161467190Y-130033452D02*
X161419571Y-130009642D01*
X161419571Y-130009642D02*
X161324333Y-130009642D01*
X161324333Y-130009642D02*
X161276714Y-130033452D01*
X161276714Y-130033452D02*
X161252904Y-130057261D01*
X161252904Y-130057261D02*
X161229095Y-130104880D01*
X158974809Y-130485833D02*
X158736714Y-130652499D01*
X158974809Y-130771547D02*
X158474809Y-130771547D01*
X158474809Y-130771547D02*
X158474809Y-130581071D01*
X158474809Y-130581071D02*
X158498619Y-130533452D01*
X158498619Y-130533452D02*
X158522428Y-130509642D01*
X158522428Y-130509642D02*
X158570047Y-130485833D01*
X158570047Y-130485833D02*
X158641476Y-130485833D01*
X158641476Y-130485833D02*
X158689095Y-130509642D01*
X158689095Y-130509642D02*
X158712904Y-130533452D01*
X158712904Y-130533452D02*
X158736714Y-130581071D01*
X158736714Y-130581071D02*
X158736714Y-130771547D01*
X158641476Y-130057261D02*
X158974809Y-130057261D01*
X158451000Y-130176309D02*
X158808142Y-130295356D01*
X158808142Y-130295356D02*
X158808142Y-129985833D01*
X166594809Y-130485833D02*
X166356714Y-130652499D01*
X166594809Y-130771547D02*
X166094809Y-130771547D01*
X166094809Y-130771547D02*
X166094809Y-130581071D01*
X166094809Y-130581071D02*
X166118619Y-130533452D01*
X166118619Y-130533452D02*
X166142428Y-130509642D01*
X166142428Y-130509642D02*
X166190047Y-130485833D01*
X166190047Y-130485833D02*
X166261476Y-130485833D01*
X166261476Y-130485833D02*
X166309095Y-130509642D01*
X166309095Y-130509642D02*
X166332904Y-130533452D01*
X166332904Y-130533452D02*
X166356714Y-130581071D01*
X166356714Y-130581071D02*
X166356714Y-130771547D01*
X166094809Y-130319166D02*
X166094809Y-130009642D01*
X166094809Y-130009642D02*
X166285285Y-130176309D01*
X166285285Y-130176309D02*
X166285285Y-130104880D01*
X166285285Y-130104880D02*
X166309095Y-130057261D01*
X166309095Y-130057261D02*
X166332904Y-130033452D01*
X166332904Y-130033452D02*
X166380523Y-130009642D01*
X166380523Y-130009642D02*
X166499571Y-130009642D01*
X166499571Y-130009642D02*
X166547190Y-130033452D01*
X166547190Y-130033452D02*
X166571000Y-130057261D01*
X166571000Y-130057261D02*
X166594809Y-130104880D01*
X166594809Y-130104880D02*
X166594809Y-130247737D01*
X166594809Y-130247737D02*
X166571000Y-130295356D01*
X166571000Y-130295356D02*
X166547190Y-130319166D01*
X169134809Y-130485833D02*
X168896714Y-130652499D01*
X169134809Y-130771547D02*
X168634809Y-130771547D01*
X168634809Y-130771547D02*
X168634809Y-130581071D01*
X168634809Y-130581071D02*
X168658619Y-130533452D01*
X168658619Y-130533452D02*
X168682428Y-130509642D01*
X168682428Y-130509642D02*
X168730047Y-130485833D01*
X168730047Y-130485833D02*
X168801476Y-130485833D01*
X168801476Y-130485833D02*
X168849095Y-130509642D01*
X168849095Y-130509642D02*
X168872904Y-130533452D01*
X168872904Y-130533452D02*
X168896714Y-130581071D01*
X168896714Y-130581071D02*
X168896714Y-130771547D01*
X168849095Y-130200118D02*
X168825285Y-130247737D01*
X168825285Y-130247737D02*
X168801476Y-130271547D01*
X168801476Y-130271547D02*
X168753857Y-130295356D01*
X168753857Y-130295356D02*
X168730047Y-130295356D01*
X168730047Y-130295356D02*
X168682428Y-130271547D01*
X168682428Y-130271547D02*
X168658619Y-130247737D01*
X168658619Y-130247737D02*
X168634809Y-130200118D01*
X168634809Y-130200118D02*
X168634809Y-130104880D01*
X168634809Y-130104880D02*
X168658619Y-130057261D01*
X168658619Y-130057261D02*
X168682428Y-130033452D01*
X168682428Y-130033452D02*
X168730047Y-130009642D01*
X168730047Y-130009642D02*
X168753857Y-130009642D01*
X168753857Y-130009642D02*
X168801476Y-130033452D01*
X168801476Y-130033452D02*
X168825285Y-130057261D01*
X168825285Y-130057261D02*
X168849095Y-130104880D01*
X168849095Y-130104880D02*
X168849095Y-130200118D01*
X168849095Y-130200118D02*
X168872904Y-130247737D01*
X168872904Y-130247737D02*
X168896714Y-130271547D01*
X168896714Y-130271547D02*
X168944333Y-130295356D01*
X168944333Y-130295356D02*
X169039571Y-130295356D01*
X169039571Y-130295356D02*
X169087190Y-130271547D01*
X169087190Y-130271547D02*
X169111000Y-130247737D01*
X169111000Y-130247737D02*
X169134809Y-130200118D01*
X169134809Y-130200118D02*
X169134809Y-130104880D01*
X169134809Y-130104880D02*
X169111000Y-130057261D01*
X169111000Y-130057261D02*
X169087190Y-130033452D01*
X169087190Y-130033452D02*
X169039571Y-130009642D01*
X169039571Y-130009642D02*
X168944333Y-130009642D01*
X168944333Y-130009642D02*
X168896714Y-130033452D01*
X168896714Y-130033452D02*
X168872904Y-130057261D01*
X168872904Y-130057261D02*
X168849095Y-130104880D01*
X176707190Y-130485833D02*
X176731000Y-130509642D01*
X176731000Y-130509642D02*
X176754809Y-130581071D01*
X176754809Y-130581071D02*
X176754809Y-130628690D01*
X176754809Y-130628690D02*
X176731000Y-130700118D01*
X176731000Y-130700118D02*
X176683380Y-130747737D01*
X176683380Y-130747737D02*
X176635761Y-130771547D01*
X176635761Y-130771547D02*
X176540523Y-130795356D01*
X176540523Y-130795356D02*
X176469095Y-130795356D01*
X176469095Y-130795356D02*
X176373857Y-130771547D01*
X176373857Y-130771547D02*
X176326238Y-130747737D01*
X176326238Y-130747737D02*
X176278619Y-130700118D01*
X176278619Y-130700118D02*
X176254809Y-130628690D01*
X176254809Y-130628690D02*
X176254809Y-130581071D01*
X176254809Y-130581071D02*
X176278619Y-130509642D01*
X176278619Y-130509642D02*
X176302428Y-130485833D01*
X176754809Y-130009642D02*
X176754809Y-130295356D01*
X176754809Y-130152499D02*
X176254809Y-130152499D01*
X176254809Y-130152499D02*
X176326238Y-130200118D01*
X176326238Y-130200118D02*
X176373857Y-130247737D01*
X176373857Y-130247737D02*
X176397666Y-130295356D01*
X179294809Y-130485833D02*
X179056714Y-130652499D01*
X179294809Y-130771547D02*
X178794809Y-130771547D01*
X178794809Y-130771547D02*
X178794809Y-130581071D01*
X178794809Y-130581071D02*
X178818619Y-130533452D01*
X178818619Y-130533452D02*
X178842428Y-130509642D01*
X178842428Y-130509642D02*
X178890047Y-130485833D01*
X178890047Y-130485833D02*
X178961476Y-130485833D01*
X178961476Y-130485833D02*
X179009095Y-130509642D01*
X179009095Y-130509642D02*
X179032904Y-130533452D01*
X179032904Y-130533452D02*
X179056714Y-130581071D01*
X179056714Y-130581071D02*
X179056714Y-130771547D01*
X179294809Y-130009642D02*
X179294809Y-130295356D01*
X179294809Y-130152499D02*
X178794809Y-130152499D01*
X178794809Y-130152499D02*
X178866238Y-130200118D01*
X178866238Y-130200118D02*
X178913857Y-130247737D01*
X178913857Y-130247737D02*
X178937666Y-130295356D01*
X171674809Y-130485833D02*
X171436714Y-130652499D01*
X171674809Y-130771547D02*
X171174809Y-130771547D01*
X171174809Y-130771547D02*
X171174809Y-130581071D01*
X171174809Y-130581071D02*
X171198619Y-130533452D01*
X171198619Y-130533452D02*
X171222428Y-130509642D01*
X171222428Y-130509642D02*
X171270047Y-130485833D01*
X171270047Y-130485833D02*
X171341476Y-130485833D01*
X171341476Y-130485833D02*
X171389095Y-130509642D01*
X171389095Y-130509642D02*
X171412904Y-130533452D01*
X171412904Y-130533452D02*
X171436714Y-130581071D01*
X171436714Y-130581071D02*
X171436714Y-130771547D01*
X171174809Y-130033452D02*
X171174809Y-130271547D01*
X171174809Y-130271547D02*
X171412904Y-130295356D01*
X171412904Y-130295356D02*
X171389095Y-130271547D01*
X171389095Y-130271547D02*
X171365285Y-130223928D01*
X171365285Y-130223928D02*
X171365285Y-130104880D01*
X171365285Y-130104880D02*
X171389095Y-130057261D01*
X171389095Y-130057261D02*
X171412904Y-130033452D01*
X171412904Y-130033452D02*
X171460523Y-130009642D01*
X171460523Y-130009642D02*
X171579571Y-130009642D01*
X171579571Y-130009642D02*
X171627190Y-130033452D01*
X171627190Y-130033452D02*
X171651000Y-130057261D01*
X171651000Y-130057261D02*
X171674809Y-130104880D01*
X171674809Y-130104880D02*
X171674809Y-130223928D01*
X171674809Y-130223928D02*
X171651000Y-130271547D01*
X171651000Y-130271547D02*
X171627190Y-130295356D01*
X174167190Y-130485833D02*
X174191000Y-130509642D01*
X174191000Y-130509642D02*
X174214809Y-130581071D01*
X174214809Y-130581071D02*
X174214809Y-130628690D01*
X174214809Y-130628690D02*
X174191000Y-130700118D01*
X174191000Y-130700118D02*
X174143380Y-130747737D01*
X174143380Y-130747737D02*
X174095761Y-130771547D01*
X174095761Y-130771547D02*
X174000523Y-130795356D01*
X174000523Y-130795356D02*
X173929095Y-130795356D01*
X173929095Y-130795356D02*
X173833857Y-130771547D01*
X173833857Y-130771547D02*
X173786238Y-130747737D01*
X173786238Y-130747737D02*
X173738619Y-130700118D01*
X173738619Y-130700118D02*
X173714809Y-130628690D01*
X173714809Y-130628690D02*
X173714809Y-130581071D01*
X173714809Y-130581071D02*
X173738619Y-130509642D01*
X173738619Y-130509642D02*
X173762428Y-130485833D01*
X174214809Y-130247737D02*
X174214809Y-130152499D01*
X174214809Y-130152499D02*
X174191000Y-130104880D01*
X174191000Y-130104880D02*
X174167190Y-130081071D01*
X174167190Y-130081071D02*
X174095761Y-130033452D01*
X174095761Y-130033452D02*
X174000523Y-130009642D01*
X174000523Y-130009642D02*
X173810047Y-130009642D01*
X173810047Y-130009642D02*
X173762428Y-130033452D01*
X173762428Y-130033452D02*
X173738619Y-130057261D01*
X173738619Y-130057261D02*
X173714809Y-130104880D01*
X173714809Y-130104880D02*
X173714809Y-130200118D01*
X173714809Y-130200118D02*
X173738619Y-130247737D01*
X173738619Y-130247737D02*
X173762428Y-130271547D01*
X173762428Y-130271547D02*
X173810047Y-130295356D01*
X173810047Y-130295356D02*
X173929095Y-130295356D01*
X173929095Y-130295356D02*
X173976714Y-130271547D01*
X173976714Y-130271547D02*
X174000523Y-130247737D01*
X174000523Y-130247737D02*
X174024333Y-130200118D01*
X174024333Y-130200118D02*
X174024333Y-130104880D01*
X174024333Y-130104880D02*
X174000523Y-130057261D01*
X174000523Y-130057261D02*
X173976714Y-130033452D01*
X173976714Y-130033452D02*
X173929095Y-130009642D01*
X186867190Y-130723928D02*
X186891000Y-130747737D01*
X186891000Y-130747737D02*
X186914809Y-130819166D01*
X186914809Y-130819166D02*
X186914809Y-130866785D01*
X186914809Y-130866785D02*
X186891000Y-130938213D01*
X186891000Y-130938213D02*
X186843380Y-130985832D01*
X186843380Y-130985832D02*
X186795761Y-131009642D01*
X186795761Y-131009642D02*
X186700523Y-131033451D01*
X186700523Y-131033451D02*
X186629095Y-131033451D01*
X186629095Y-131033451D02*
X186533857Y-131009642D01*
X186533857Y-131009642D02*
X186486238Y-130985832D01*
X186486238Y-130985832D02*
X186438619Y-130938213D01*
X186438619Y-130938213D02*
X186414809Y-130866785D01*
X186414809Y-130866785D02*
X186414809Y-130819166D01*
X186414809Y-130819166D02*
X186438619Y-130747737D01*
X186438619Y-130747737D02*
X186462428Y-130723928D01*
X186462428Y-130533451D02*
X186438619Y-130509642D01*
X186438619Y-130509642D02*
X186414809Y-130462023D01*
X186414809Y-130462023D02*
X186414809Y-130342975D01*
X186414809Y-130342975D02*
X186438619Y-130295356D01*
X186438619Y-130295356D02*
X186462428Y-130271547D01*
X186462428Y-130271547D02*
X186510047Y-130247737D01*
X186510047Y-130247737D02*
X186557666Y-130247737D01*
X186557666Y-130247737D02*
X186629095Y-130271547D01*
X186629095Y-130271547D02*
X186914809Y-130557261D01*
X186914809Y-130557261D02*
X186914809Y-130247737D01*
X186914809Y-129771547D02*
X186914809Y-130057261D01*
X186914809Y-129914404D02*
X186414809Y-129914404D01*
X186414809Y-129914404D02*
X186486238Y-129962023D01*
X186486238Y-129962023D02*
X186533857Y-130009642D01*
X186533857Y-130009642D02*
X186557666Y-130057261D01*
X181787190Y-130723928D02*
X181811000Y-130747737D01*
X181811000Y-130747737D02*
X181834809Y-130819166D01*
X181834809Y-130819166D02*
X181834809Y-130866785D01*
X181834809Y-130866785D02*
X181811000Y-130938213D01*
X181811000Y-130938213D02*
X181763380Y-130985832D01*
X181763380Y-130985832D02*
X181715761Y-131009642D01*
X181715761Y-131009642D02*
X181620523Y-131033451D01*
X181620523Y-131033451D02*
X181549095Y-131033451D01*
X181549095Y-131033451D02*
X181453857Y-131009642D01*
X181453857Y-131009642D02*
X181406238Y-130985832D01*
X181406238Y-130985832D02*
X181358619Y-130938213D01*
X181358619Y-130938213D02*
X181334809Y-130866785D01*
X181334809Y-130866785D02*
X181334809Y-130819166D01*
X181334809Y-130819166D02*
X181358619Y-130747737D01*
X181358619Y-130747737D02*
X181382428Y-130723928D01*
X181382428Y-130533451D02*
X181358619Y-130509642D01*
X181358619Y-130509642D02*
X181334809Y-130462023D01*
X181334809Y-130462023D02*
X181334809Y-130342975D01*
X181334809Y-130342975D02*
X181358619Y-130295356D01*
X181358619Y-130295356D02*
X181382428Y-130271547D01*
X181382428Y-130271547D02*
X181430047Y-130247737D01*
X181430047Y-130247737D02*
X181477666Y-130247737D01*
X181477666Y-130247737D02*
X181549095Y-130271547D01*
X181549095Y-130271547D02*
X181834809Y-130557261D01*
X181834809Y-130557261D02*
X181834809Y-130247737D01*
X181334809Y-130081071D02*
X181334809Y-129771547D01*
X181334809Y-129771547D02*
X181525285Y-129938214D01*
X181525285Y-129938214D02*
X181525285Y-129866785D01*
X181525285Y-129866785D02*
X181549095Y-129819166D01*
X181549095Y-129819166D02*
X181572904Y-129795357D01*
X181572904Y-129795357D02*
X181620523Y-129771547D01*
X181620523Y-129771547D02*
X181739571Y-129771547D01*
X181739571Y-129771547D02*
X181787190Y-129795357D01*
X181787190Y-129795357D02*
X181811000Y-129819166D01*
X181811000Y-129819166D02*
X181834809Y-129866785D01*
X181834809Y-129866785D02*
X181834809Y-130009642D01*
X181834809Y-130009642D02*
X181811000Y-130057261D01*
X181811000Y-130057261D02*
X181787190Y-130081071D01*
X184327190Y-130723928D02*
X184351000Y-130747737D01*
X184351000Y-130747737D02*
X184374809Y-130819166D01*
X184374809Y-130819166D02*
X184374809Y-130866785D01*
X184374809Y-130866785D02*
X184351000Y-130938213D01*
X184351000Y-130938213D02*
X184303380Y-130985832D01*
X184303380Y-130985832D02*
X184255761Y-131009642D01*
X184255761Y-131009642D02*
X184160523Y-131033451D01*
X184160523Y-131033451D02*
X184089095Y-131033451D01*
X184089095Y-131033451D02*
X183993857Y-131009642D01*
X183993857Y-131009642D02*
X183946238Y-130985832D01*
X183946238Y-130985832D02*
X183898619Y-130938213D01*
X183898619Y-130938213D02*
X183874809Y-130866785D01*
X183874809Y-130866785D02*
X183874809Y-130819166D01*
X183874809Y-130819166D02*
X183898619Y-130747737D01*
X183898619Y-130747737D02*
X183922428Y-130723928D01*
X183922428Y-130533451D02*
X183898619Y-130509642D01*
X183898619Y-130509642D02*
X183874809Y-130462023D01*
X183874809Y-130462023D02*
X183874809Y-130342975D01*
X183874809Y-130342975D02*
X183898619Y-130295356D01*
X183898619Y-130295356D02*
X183922428Y-130271547D01*
X183922428Y-130271547D02*
X183970047Y-130247737D01*
X183970047Y-130247737D02*
X184017666Y-130247737D01*
X184017666Y-130247737D02*
X184089095Y-130271547D01*
X184089095Y-130271547D02*
X184374809Y-130557261D01*
X184374809Y-130557261D02*
X184374809Y-130247737D01*
X183922428Y-130057261D02*
X183898619Y-130033452D01*
X183898619Y-130033452D02*
X183874809Y-129985833D01*
X183874809Y-129985833D02*
X183874809Y-129866785D01*
X183874809Y-129866785D02*
X183898619Y-129819166D01*
X183898619Y-129819166D02*
X183922428Y-129795357D01*
X183922428Y-129795357D02*
X183970047Y-129771547D01*
X183970047Y-129771547D02*
X184017666Y-129771547D01*
X184017666Y-129771547D02*
X184089095Y-129795357D01*
X184089095Y-129795357D02*
X184374809Y-130081071D01*
X184374809Y-130081071D02*
X184374809Y-129771547D01*
X189454809Y-125405833D02*
X189216714Y-125572499D01*
X189454809Y-125691547D02*
X188954809Y-125691547D01*
X188954809Y-125691547D02*
X188954809Y-125501071D01*
X188954809Y-125501071D02*
X188978619Y-125453452D01*
X188978619Y-125453452D02*
X189002428Y-125429642D01*
X189002428Y-125429642D02*
X189050047Y-125405833D01*
X189050047Y-125405833D02*
X189121476Y-125405833D01*
X189121476Y-125405833D02*
X189169095Y-125429642D01*
X189169095Y-125429642D02*
X189192904Y-125453452D01*
X189192904Y-125453452D02*
X189216714Y-125501071D01*
X189216714Y-125501071D02*
X189216714Y-125691547D01*
X188954809Y-125239166D02*
X188954809Y-124905833D01*
X188954809Y-124905833D02*
X189454809Y-125120118D01*
X165016666Y-126923190D02*
X164992857Y-126947000D01*
X164992857Y-126947000D02*
X164921428Y-126970809D01*
X164921428Y-126970809D02*
X164873809Y-126970809D01*
X164873809Y-126970809D02*
X164802381Y-126947000D01*
X164802381Y-126947000D02*
X164754762Y-126899380D01*
X164754762Y-126899380D02*
X164730952Y-126851761D01*
X164730952Y-126851761D02*
X164707143Y-126756523D01*
X164707143Y-126756523D02*
X164707143Y-126685095D01*
X164707143Y-126685095D02*
X164730952Y-126589857D01*
X164730952Y-126589857D02*
X164754762Y-126542238D01*
X164754762Y-126542238D02*
X164802381Y-126494619D01*
X164802381Y-126494619D02*
X164873809Y-126470809D01*
X164873809Y-126470809D02*
X164921428Y-126470809D01*
X164921428Y-126470809D02*
X164992857Y-126494619D01*
X164992857Y-126494619D02*
X165016666Y-126518428D01*
X165207143Y-126518428D02*
X165230952Y-126494619D01*
X165230952Y-126494619D02*
X165278571Y-126470809D01*
X165278571Y-126470809D02*
X165397619Y-126470809D01*
X165397619Y-126470809D02*
X165445238Y-126494619D01*
X165445238Y-126494619D02*
X165469047Y-126518428D01*
X165469047Y-126518428D02*
X165492857Y-126566047D01*
X165492857Y-126566047D02*
X165492857Y-126613666D01*
X165492857Y-126613666D02*
X165469047Y-126685095D01*
X165469047Y-126685095D02*
X165183333Y-126970809D01*
X165183333Y-126970809D02*
X165492857Y-126970809D01*
X153847190Y-113351428D02*
X153871000Y-113375237D01*
X153871000Y-113375237D02*
X153894809Y-113446666D01*
X153894809Y-113446666D02*
X153894809Y-113494285D01*
X153894809Y-113494285D02*
X153871000Y-113565713D01*
X153871000Y-113565713D02*
X153823380Y-113613332D01*
X153823380Y-113613332D02*
X153775761Y-113637142D01*
X153775761Y-113637142D02*
X153680523Y-113660951D01*
X153680523Y-113660951D02*
X153609095Y-113660951D01*
X153609095Y-113660951D02*
X153513857Y-113637142D01*
X153513857Y-113637142D02*
X153466238Y-113613332D01*
X153466238Y-113613332D02*
X153418619Y-113565713D01*
X153418619Y-113565713D02*
X153394809Y-113494285D01*
X153394809Y-113494285D02*
X153394809Y-113446666D01*
X153394809Y-113446666D02*
X153418619Y-113375237D01*
X153418619Y-113375237D02*
X153442428Y-113351428D01*
X153442428Y-113160951D02*
X153418619Y-113137142D01*
X153418619Y-113137142D02*
X153394809Y-113089523D01*
X153394809Y-113089523D02*
X153394809Y-112970475D01*
X153394809Y-112970475D02*
X153418619Y-112922856D01*
X153418619Y-112922856D02*
X153442428Y-112899047D01*
X153442428Y-112899047D02*
X153490047Y-112875237D01*
X153490047Y-112875237D02*
X153537666Y-112875237D01*
X153537666Y-112875237D02*
X153609095Y-112899047D01*
X153609095Y-112899047D02*
X153894809Y-113184761D01*
X153894809Y-113184761D02*
X153894809Y-112875237D01*
X153394809Y-112446666D02*
X153394809Y-112541904D01*
X153394809Y-112541904D02*
X153418619Y-112589523D01*
X153418619Y-112589523D02*
X153442428Y-112613333D01*
X153442428Y-112613333D02*
X153513857Y-112660952D01*
X153513857Y-112660952D02*
X153609095Y-112684761D01*
X153609095Y-112684761D02*
X153799571Y-112684761D01*
X153799571Y-112684761D02*
X153847190Y-112660952D01*
X153847190Y-112660952D02*
X153871000Y-112637142D01*
X153871000Y-112637142D02*
X153894809Y-112589523D01*
X153894809Y-112589523D02*
X153894809Y-112494285D01*
X153894809Y-112494285D02*
X153871000Y-112446666D01*
X153871000Y-112446666D02*
X153847190Y-112422857D01*
X153847190Y-112422857D02*
X153799571Y-112399047D01*
X153799571Y-112399047D02*
X153680523Y-112399047D01*
X153680523Y-112399047D02*
X153632904Y-112422857D01*
X153632904Y-112422857D02*
X153609095Y-112446666D01*
X153609095Y-112446666D02*
X153585285Y-112494285D01*
X153585285Y-112494285D02*
X153585285Y-112589523D01*
X153585285Y-112589523D02*
X153609095Y-112637142D01*
X153609095Y-112637142D02*
X153632904Y-112660952D01*
X153632904Y-112660952D02*
X153680523Y-112684761D01*
X153847190Y-120971428D02*
X153871000Y-120995237D01*
X153871000Y-120995237D02*
X153894809Y-121066666D01*
X153894809Y-121066666D02*
X153894809Y-121114285D01*
X153894809Y-121114285D02*
X153871000Y-121185713D01*
X153871000Y-121185713D02*
X153823380Y-121233332D01*
X153823380Y-121233332D02*
X153775761Y-121257142D01*
X153775761Y-121257142D02*
X153680523Y-121280951D01*
X153680523Y-121280951D02*
X153609095Y-121280951D01*
X153609095Y-121280951D02*
X153513857Y-121257142D01*
X153513857Y-121257142D02*
X153466238Y-121233332D01*
X153466238Y-121233332D02*
X153418619Y-121185713D01*
X153418619Y-121185713D02*
X153394809Y-121114285D01*
X153394809Y-121114285D02*
X153394809Y-121066666D01*
X153394809Y-121066666D02*
X153418619Y-120995237D01*
X153418619Y-120995237D02*
X153442428Y-120971428D01*
X153442428Y-120780951D02*
X153418619Y-120757142D01*
X153418619Y-120757142D02*
X153394809Y-120709523D01*
X153394809Y-120709523D02*
X153394809Y-120590475D01*
X153394809Y-120590475D02*
X153418619Y-120542856D01*
X153418619Y-120542856D02*
X153442428Y-120519047D01*
X153442428Y-120519047D02*
X153490047Y-120495237D01*
X153490047Y-120495237D02*
X153537666Y-120495237D01*
X153537666Y-120495237D02*
X153609095Y-120519047D01*
X153609095Y-120519047D02*
X153894809Y-120804761D01*
X153894809Y-120804761D02*
X153894809Y-120495237D01*
X153561476Y-120066666D02*
X153894809Y-120066666D01*
X153371000Y-120185714D02*
X153728142Y-120304761D01*
X153728142Y-120304761D02*
X153728142Y-119995238D01*
X164007190Y-121225428D02*
X164031000Y-121249237D01*
X164031000Y-121249237D02*
X164054809Y-121320666D01*
X164054809Y-121320666D02*
X164054809Y-121368285D01*
X164054809Y-121368285D02*
X164031000Y-121439713D01*
X164031000Y-121439713D02*
X163983380Y-121487332D01*
X163983380Y-121487332D02*
X163935761Y-121511142D01*
X163935761Y-121511142D02*
X163840523Y-121534951D01*
X163840523Y-121534951D02*
X163769095Y-121534951D01*
X163769095Y-121534951D02*
X163673857Y-121511142D01*
X163673857Y-121511142D02*
X163626238Y-121487332D01*
X163626238Y-121487332D02*
X163578619Y-121439713D01*
X163578619Y-121439713D02*
X163554809Y-121368285D01*
X163554809Y-121368285D02*
X163554809Y-121320666D01*
X163554809Y-121320666D02*
X163578619Y-121249237D01*
X163578619Y-121249237D02*
X163602428Y-121225428D01*
X163602428Y-121034951D02*
X163578619Y-121011142D01*
X163578619Y-121011142D02*
X163554809Y-120963523D01*
X163554809Y-120963523D02*
X163554809Y-120844475D01*
X163554809Y-120844475D02*
X163578619Y-120796856D01*
X163578619Y-120796856D02*
X163602428Y-120773047D01*
X163602428Y-120773047D02*
X163650047Y-120749237D01*
X163650047Y-120749237D02*
X163697666Y-120749237D01*
X163697666Y-120749237D02*
X163769095Y-120773047D01*
X163769095Y-120773047D02*
X164054809Y-121058761D01*
X164054809Y-121058761D02*
X164054809Y-120749237D01*
X163554809Y-120439714D02*
X163554809Y-120392095D01*
X163554809Y-120392095D02*
X163578619Y-120344476D01*
X163578619Y-120344476D02*
X163602428Y-120320666D01*
X163602428Y-120320666D02*
X163650047Y-120296857D01*
X163650047Y-120296857D02*
X163745285Y-120273047D01*
X163745285Y-120273047D02*
X163864333Y-120273047D01*
X163864333Y-120273047D02*
X163959571Y-120296857D01*
X163959571Y-120296857D02*
X164007190Y-120320666D01*
X164007190Y-120320666D02*
X164031000Y-120344476D01*
X164031000Y-120344476D02*
X164054809Y-120392095D01*
X164054809Y-120392095D02*
X164054809Y-120439714D01*
X164054809Y-120439714D02*
X164031000Y-120487333D01*
X164031000Y-120487333D02*
X164007190Y-120511142D01*
X164007190Y-120511142D02*
X163959571Y-120534952D01*
X163959571Y-120534952D02*
X163864333Y-120558761D01*
X163864333Y-120558761D02*
X163745285Y-120558761D01*
X163745285Y-120558761D02*
X163650047Y-120534952D01*
X163650047Y-120534952D02*
X163602428Y-120511142D01*
X163602428Y-120511142D02*
X163578619Y-120487333D01*
X163578619Y-120487333D02*
X163554809Y-120439714D01*
X153687190Y-124781428D02*
X153711000Y-124805237D01*
X153711000Y-124805237D02*
X153734809Y-124876666D01*
X153734809Y-124876666D02*
X153734809Y-124924285D01*
X153734809Y-124924285D02*
X153711000Y-124995713D01*
X153711000Y-124995713D02*
X153663380Y-125043332D01*
X153663380Y-125043332D02*
X153615761Y-125067142D01*
X153615761Y-125067142D02*
X153520523Y-125090951D01*
X153520523Y-125090951D02*
X153449095Y-125090951D01*
X153449095Y-125090951D02*
X153353857Y-125067142D01*
X153353857Y-125067142D02*
X153306238Y-125043332D01*
X153306238Y-125043332D02*
X153258619Y-124995713D01*
X153258619Y-124995713D02*
X153234809Y-124924285D01*
X153234809Y-124924285D02*
X153234809Y-124876666D01*
X153234809Y-124876666D02*
X153258619Y-124805237D01*
X153258619Y-124805237D02*
X153282428Y-124781428D01*
X153234809Y-124614761D02*
X153234809Y-124305237D01*
X153234809Y-124305237D02*
X153425285Y-124471904D01*
X153425285Y-124471904D02*
X153425285Y-124400475D01*
X153425285Y-124400475D02*
X153449095Y-124352856D01*
X153449095Y-124352856D02*
X153472904Y-124329047D01*
X153472904Y-124329047D02*
X153520523Y-124305237D01*
X153520523Y-124305237D02*
X153639571Y-124305237D01*
X153639571Y-124305237D02*
X153687190Y-124329047D01*
X153687190Y-124329047D02*
X153711000Y-124352856D01*
X153711000Y-124352856D02*
X153734809Y-124400475D01*
X153734809Y-124400475D02*
X153734809Y-124543332D01*
X153734809Y-124543332D02*
X153711000Y-124590951D01*
X153711000Y-124590951D02*
X153687190Y-124614761D01*
X153282428Y-124114761D02*
X153258619Y-124090952D01*
X153258619Y-124090952D02*
X153234809Y-124043333D01*
X153234809Y-124043333D02*
X153234809Y-123924285D01*
X153234809Y-123924285D02*
X153258619Y-123876666D01*
X153258619Y-123876666D02*
X153282428Y-123852857D01*
X153282428Y-123852857D02*
X153330047Y-123829047D01*
X153330047Y-123829047D02*
X153377666Y-123829047D01*
X153377666Y-123829047D02*
X153449095Y-123852857D01*
X153449095Y-123852857D02*
X153734809Y-124138571D01*
X153734809Y-124138571D02*
X153734809Y-123829047D01*
X171627190Y-113351428D02*
X171651000Y-113375237D01*
X171651000Y-113375237D02*
X171674809Y-113446666D01*
X171674809Y-113446666D02*
X171674809Y-113494285D01*
X171674809Y-113494285D02*
X171651000Y-113565713D01*
X171651000Y-113565713D02*
X171603380Y-113613332D01*
X171603380Y-113613332D02*
X171555761Y-113637142D01*
X171555761Y-113637142D02*
X171460523Y-113660951D01*
X171460523Y-113660951D02*
X171389095Y-113660951D01*
X171389095Y-113660951D02*
X171293857Y-113637142D01*
X171293857Y-113637142D02*
X171246238Y-113613332D01*
X171246238Y-113613332D02*
X171198619Y-113565713D01*
X171198619Y-113565713D02*
X171174809Y-113494285D01*
X171174809Y-113494285D02*
X171174809Y-113446666D01*
X171174809Y-113446666D02*
X171198619Y-113375237D01*
X171198619Y-113375237D02*
X171222428Y-113351428D01*
X171674809Y-112875237D02*
X171674809Y-113160951D01*
X171674809Y-113018094D02*
X171174809Y-113018094D01*
X171174809Y-113018094D02*
X171246238Y-113065713D01*
X171246238Y-113065713D02*
X171293857Y-113113332D01*
X171293857Y-113113332D02*
X171317666Y-113160951D01*
X171389095Y-112589523D02*
X171365285Y-112637142D01*
X171365285Y-112637142D02*
X171341476Y-112660952D01*
X171341476Y-112660952D02*
X171293857Y-112684761D01*
X171293857Y-112684761D02*
X171270047Y-112684761D01*
X171270047Y-112684761D02*
X171222428Y-112660952D01*
X171222428Y-112660952D02*
X171198619Y-112637142D01*
X171198619Y-112637142D02*
X171174809Y-112589523D01*
X171174809Y-112589523D02*
X171174809Y-112494285D01*
X171174809Y-112494285D02*
X171198619Y-112446666D01*
X171198619Y-112446666D02*
X171222428Y-112422857D01*
X171222428Y-112422857D02*
X171270047Y-112399047D01*
X171270047Y-112399047D02*
X171293857Y-112399047D01*
X171293857Y-112399047D02*
X171341476Y-112422857D01*
X171341476Y-112422857D02*
X171365285Y-112446666D01*
X171365285Y-112446666D02*
X171389095Y-112494285D01*
X171389095Y-112494285D02*
X171389095Y-112589523D01*
X171389095Y-112589523D02*
X171412904Y-112637142D01*
X171412904Y-112637142D02*
X171436714Y-112660952D01*
X171436714Y-112660952D02*
X171484333Y-112684761D01*
X171484333Y-112684761D02*
X171579571Y-112684761D01*
X171579571Y-112684761D02*
X171627190Y-112660952D01*
X171627190Y-112660952D02*
X171651000Y-112637142D01*
X171651000Y-112637142D02*
X171674809Y-112589523D01*
X171674809Y-112589523D02*
X171674809Y-112494285D01*
X171674809Y-112494285D02*
X171651000Y-112446666D01*
X171651000Y-112446666D02*
X171627190Y-112422857D01*
X171627190Y-112422857D02*
X171579571Y-112399047D01*
X171579571Y-112399047D02*
X171484333Y-112399047D01*
X171484333Y-112399047D02*
X171436714Y-112422857D01*
X171436714Y-112422857D02*
X171412904Y-112446666D01*
X171412904Y-112446666D02*
X171389095Y-112494285D01*
X198344809Y-130723928D02*
X198106714Y-130890594D01*
X198344809Y-131009642D02*
X197844809Y-131009642D01*
X197844809Y-131009642D02*
X197844809Y-130819166D01*
X197844809Y-130819166D02*
X197868619Y-130771547D01*
X197868619Y-130771547D02*
X197892428Y-130747737D01*
X197892428Y-130747737D02*
X197940047Y-130723928D01*
X197940047Y-130723928D02*
X198011476Y-130723928D01*
X198011476Y-130723928D02*
X198059095Y-130747737D01*
X198059095Y-130747737D02*
X198082904Y-130771547D01*
X198082904Y-130771547D02*
X198106714Y-130819166D01*
X198106714Y-130819166D02*
X198106714Y-131009642D01*
X198344809Y-130247737D02*
X198344809Y-130533451D01*
X198344809Y-130390594D02*
X197844809Y-130390594D01*
X197844809Y-130390594D02*
X197916238Y-130438213D01*
X197916238Y-130438213D02*
X197963857Y-130485832D01*
X197963857Y-130485832D02*
X197987666Y-130533451D01*
X197844809Y-129819166D02*
X197844809Y-129914404D01*
X197844809Y-129914404D02*
X197868619Y-129962023D01*
X197868619Y-129962023D02*
X197892428Y-129985833D01*
X197892428Y-129985833D02*
X197963857Y-130033452D01*
X197963857Y-130033452D02*
X198059095Y-130057261D01*
X198059095Y-130057261D02*
X198249571Y-130057261D01*
X198249571Y-130057261D02*
X198297190Y-130033452D01*
X198297190Y-130033452D02*
X198321000Y-130009642D01*
X198321000Y-130009642D02*
X198344809Y-129962023D01*
X198344809Y-129962023D02*
X198344809Y-129866785D01*
X198344809Y-129866785D02*
X198321000Y-129819166D01*
X198321000Y-129819166D02*
X198297190Y-129795357D01*
X198297190Y-129795357D02*
X198249571Y-129771547D01*
X198249571Y-129771547D02*
X198130523Y-129771547D01*
X198130523Y-129771547D02*
X198082904Y-129795357D01*
X198082904Y-129795357D02*
X198059095Y-129819166D01*
X198059095Y-129819166D02*
X198035285Y-129866785D01*
X198035285Y-129866785D02*
X198035285Y-129962023D01*
X198035285Y-129962023D02*
X198059095Y-130009642D01*
X198059095Y-130009642D02*
X198082904Y-130033452D01*
X198082904Y-130033452D02*
X198130523Y-130057261D01*
X179294809Y-113113333D02*
X179056714Y-113279999D01*
X179294809Y-113399047D02*
X178794809Y-113399047D01*
X178794809Y-113399047D02*
X178794809Y-113208571D01*
X178794809Y-113208571D02*
X178818619Y-113160952D01*
X178818619Y-113160952D02*
X178842428Y-113137142D01*
X178842428Y-113137142D02*
X178890047Y-113113333D01*
X178890047Y-113113333D02*
X178961476Y-113113333D01*
X178961476Y-113113333D02*
X179009095Y-113137142D01*
X179009095Y-113137142D02*
X179032904Y-113160952D01*
X179032904Y-113160952D02*
X179056714Y-113208571D01*
X179056714Y-113208571D02*
X179056714Y-113399047D01*
X178842428Y-112922856D02*
X178818619Y-112899047D01*
X178818619Y-112899047D02*
X178794809Y-112851428D01*
X178794809Y-112851428D02*
X178794809Y-112732380D01*
X178794809Y-112732380D02*
X178818619Y-112684761D01*
X178818619Y-112684761D02*
X178842428Y-112660952D01*
X178842428Y-112660952D02*
X178890047Y-112637142D01*
X178890047Y-112637142D02*
X178937666Y-112637142D01*
X178937666Y-112637142D02*
X179009095Y-112660952D01*
X179009095Y-112660952D02*
X179294809Y-112946666D01*
X179294809Y-112946666D02*
X179294809Y-112637142D01*
X190178571Y-112445190D02*
X190154762Y-112469000D01*
X190154762Y-112469000D02*
X190083333Y-112492809D01*
X190083333Y-112492809D02*
X190035714Y-112492809D01*
X190035714Y-112492809D02*
X189964286Y-112469000D01*
X189964286Y-112469000D02*
X189916667Y-112421380D01*
X189916667Y-112421380D02*
X189892857Y-112373761D01*
X189892857Y-112373761D02*
X189869048Y-112278523D01*
X189869048Y-112278523D02*
X189869048Y-112207095D01*
X189869048Y-112207095D02*
X189892857Y-112111857D01*
X189892857Y-112111857D02*
X189916667Y-112064238D01*
X189916667Y-112064238D02*
X189964286Y-112016619D01*
X189964286Y-112016619D02*
X190035714Y-111992809D01*
X190035714Y-111992809D02*
X190083333Y-111992809D01*
X190083333Y-111992809D02*
X190154762Y-112016619D01*
X190154762Y-112016619D02*
X190178571Y-112040428D01*
X190654762Y-112492809D02*
X190369048Y-112492809D01*
X190511905Y-112492809D02*
X190511905Y-111992809D01*
X190511905Y-111992809D02*
X190464286Y-112064238D01*
X190464286Y-112064238D02*
X190416667Y-112111857D01*
X190416667Y-112111857D02*
X190369048Y-112135666D01*
X190821428Y-111992809D02*
X191154761Y-111992809D01*
X191154761Y-111992809D02*
X190940476Y-112492809D01*
X159389048Y-107496809D02*
X159674762Y-107496809D01*
X159531905Y-107996809D02*
X159531905Y-107496809D01*
X159841428Y-107996809D02*
X159841428Y-107496809D01*
X159841428Y-107496809D02*
X160031904Y-107496809D01*
X160031904Y-107496809D02*
X160079523Y-107520619D01*
X160079523Y-107520619D02*
X160103333Y-107544428D01*
X160103333Y-107544428D02*
X160127142Y-107592047D01*
X160127142Y-107592047D02*
X160127142Y-107663476D01*
X160127142Y-107663476D02*
X160103333Y-107711095D01*
X160103333Y-107711095D02*
X160079523Y-107734904D01*
X160079523Y-107734904D02*
X160031904Y-107758714D01*
X160031904Y-107758714D02*
X159841428Y-107758714D01*
X160579523Y-107496809D02*
X160341428Y-107496809D01*
X160341428Y-107496809D02*
X160317619Y-107734904D01*
X160317619Y-107734904D02*
X160341428Y-107711095D01*
X160341428Y-107711095D02*
X160389047Y-107687285D01*
X160389047Y-107687285D02*
X160508095Y-107687285D01*
X160508095Y-107687285D02*
X160555714Y-107711095D01*
X160555714Y-107711095D02*
X160579523Y-107734904D01*
X160579523Y-107734904D02*
X160603333Y-107782523D01*
X160603333Y-107782523D02*
X160603333Y-107901571D01*
X160603333Y-107901571D02*
X160579523Y-107949190D01*
X160579523Y-107949190D02*
X160555714Y-107973000D01*
X160555714Y-107973000D02*
X160508095Y-107996809D01*
X160508095Y-107996809D02*
X160389047Y-107996809D01*
X160389047Y-107996809D02*
X160341428Y-107973000D01*
X160341428Y-107973000D02*
X160317619Y-107949190D01*
X156434809Y-117161428D02*
X156196714Y-117328094D01*
X156434809Y-117447142D02*
X155934809Y-117447142D01*
X155934809Y-117447142D02*
X155934809Y-117256666D01*
X155934809Y-117256666D02*
X155958619Y-117209047D01*
X155958619Y-117209047D02*
X155982428Y-117185237D01*
X155982428Y-117185237D02*
X156030047Y-117161428D01*
X156030047Y-117161428D02*
X156101476Y-117161428D01*
X156101476Y-117161428D02*
X156149095Y-117185237D01*
X156149095Y-117185237D02*
X156172904Y-117209047D01*
X156172904Y-117209047D02*
X156196714Y-117256666D01*
X156196714Y-117256666D02*
X156196714Y-117447142D01*
X156434809Y-116685237D02*
X156434809Y-116970951D01*
X156434809Y-116828094D02*
X155934809Y-116828094D01*
X155934809Y-116828094D02*
X156006238Y-116875713D01*
X156006238Y-116875713D02*
X156053857Y-116923332D01*
X156053857Y-116923332D02*
X156077666Y-116970951D01*
X155982428Y-116494761D02*
X155958619Y-116470952D01*
X155958619Y-116470952D02*
X155934809Y-116423333D01*
X155934809Y-116423333D02*
X155934809Y-116304285D01*
X155934809Y-116304285D02*
X155958619Y-116256666D01*
X155958619Y-116256666D02*
X155982428Y-116232857D01*
X155982428Y-116232857D02*
X156030047Y-116209047D01*
X156030047Y-116209047D02*
X156077666Y-116209047D01*
X156077666Y-116209047D02*
X156149095Y-116232857D01*
X156149095Y-116232857D02*
X156434809Y-116518571D01*
X156434809Y-116518571D02*
X156434809Y-116209047D01*
X158927190Y-113351428D02*
X158951000Y-113375237D01*
X158951000Y-113375237D02*
X158974809Y-113446666D01*
X158974809Y-113446666D02*
X158974809Y-113494285D01*
X158974809Y-113494285D02*
X158951000Y-113565713D01*
X158951000Y-113565713D02*
X158903380Y-113613332D01*
X158903380Y-113613332D02*
X158855761Y-113637142D01*
X158855761Y-113637142D02*
X158760523Y-113660951D01*
X158760523Y-113660951D02*
X158689095Y-113660951D01*
X158689095Y-113660951D02*
X158593857Y-113637142D01*
X158593857Y-113637142D02*
X158546238Y-113613332D01*
X158546238Y-113613332D02*
X158498619Y-113565713D01*
X158498619Y-113565713D02*
X158474809Y-113494285D01*
X158474809Y-113494285D02*
X158474809Y-113446666D01*
X158474809Y-113446666D02*
X158498619Y-113375237D01*
X158498619Y-113375237D02*
X158522428Y-113351428D01*
X158522428Y-113160951D02*
X158498619Y-113137142D01*
X158498619Y-113137142D02*
X158474809Y-113089523D01*
X158474809Y-113089523D02*
X158474809Y-112970475D01*
X158474809Y-112970475D02*
X158498619Y-112922856D01*
X158498619Y-112922856D02*
X158522428Y-112899047D01*
X158522428Y-112899047D02*
X158570047Y-112875237D01*
X158570047Y-112875237D02*
X158617666Y-112875237D01*
X158617666Y-112875237D02*
X158689095Y-112899047D01*
X158689095Y-112899047D02*
X158974809Y-113184761D01*
X158974809Y-113184761D02*
X158974809Y-112875237D01*
X158474809Y-112708571D02*
X158474809Y-112375238D01*
X158474809Y-112375238D02*
X158974809Y-112589523D01*
X164054809Y-124273428D02*
X163816714Y-124440094D01*
X164054809Y-124559142D02*
X163554809Y-124559142D01*
X163554809Y-124559142D02*
X163554809Y-124368666D01*
X163554809Y-124368666D02*
X163578619Y-124321047D01*
X163578619Y-124321047D02*
X163602428Y-124297237D01*
X163602428Y-124297237D02*
X163650047Y-124273428D01*
X163650047Y-124273428D02*
X163721476Y-124273428D01*
X163721476Y-124273428D02*
X163769095Y-124297237D01*
X163769095Y-124297237D02*
X163792904Y-124321047D01*
X163792904Y-124321047D02*
X163816714Y-124368666D01*
X163816714Y-124368666D02*
X163816714Y-124559142D01*
X164054809Y-123797237D02*
X164054809Y-124082951D01*
X164054809Y-123940094D02*
X163554809Y-123940094D01*
X163554809Y-123940094D02*
X163626238Y-123987713D01*
X163626238Y-123987713D02*
X163673857Y-124035332D01*
X163673857Y-124035332D02*
X163697666Y-124082951D01*
X164054809Y-123321047D02*
X164054809Y-123606761D01*
X164054809Y-123463904D02*
X163554809Y-123463904D01*
X163554809Y-123463904D02*
X163626238Y-123511523D01*
X163626238Y-123511523D02*
X163673857Y-123559142D01*
X163673857Y-123559142D02*
X163697666Y-123606761D01*
X156387190Y-113351428D02*
X156411000Y-113375237D01*
X156411000Y-113375237D02*
X156434809Y-113446666D01*
X156434809Y-113446666D02*
X156434809Y-113494285D01*
X156434809Y-113494285D02*
X156411000Y-113565713D01*
X156411000Y-113565713D02*
X156363380Y-113613332D01*
X156363380Y-113613332D02*
X156315761Y-113637142D01*
X156315761Y-113637142D02*
X156220523Y-113660951D01*
X156220523Y-113660951D02*
X156149095Y-113660951D01*
X156149095Y-113660951D02*
X156053857Y-113637142D01*
X156053857Y-113637142D02*
X156006238Y-113613332D01*
X156006238Y-113613332D02*
X155958619Y-113565713D01*
X155958619Y-113565713D02*
X155934809Y-113494285D01*
X155934809Y-113494285D02*
X155934809Y-113446666D01*
X155934809Y-113446666D02*
X155958619Y-113375237D01*
X155958619Y-113375237D02*
X155982428Y-113351428D01*
X155934809Y-113184761D02*
X155934809Y-112875237D01*
X155934809Y-112875237D02*
X156125285Y-113041904D01*
X156125285Y-113041904D02*
X156125285Y-112970475D01*
X156125285Y-112970475D02*
X156149095Y-112922856D01*
X156149095Y-112922856D02*
X156172904Y-112899047D01*
X156172904Y-112899047D02*
X156220523Y-112875237D01*
X156220523Y-112875237D02*
X156339571Y-112875237D01*
X156339571Y-112875237D02*
X156387190Y-112899047D01*
X156387190Y-112899047D02*
X156411000Y-112922856D01*
X156411000Y-112922856D02*
X156434809Y-112970475D01*
X156434809Y-112970475D02*
X156434809Y-113113332D01*
X156434809Y-113113332D02*
X156411000Y-113160951D01*
X156411000Y-113160951D02*
X156387190Y-113184761D01*
X155934809Y-112565714D02*
X155934809Y-112518095D01*
X155934809Y-112518095D02*
X155958619Y-112470476D01*
X155958619Y-112470476D02*
X155982428Y-112446666D01*
X155982428Y-112446666D02*
X156030047Y-112422857D01*
X156030047Y-112422857D02*
X156125285Y-112399047D01*
X156125285Y-112399047D02*
X156244333Y-112399047D01*
X156244333Y-112399047D02*
X156339571Y-112422857D01*
X156339571Y-112422857D02*
X156387190Y-112446666D01*
X156387190Y-112446666D02*
X156411000Y-112470476D01*
X156411000Y-112470476D02*
X156434809Y-112518095D01*
X156434809Y-112518095D02*
X156434809Y-112565714D01*
X156434809Y-112565714D02*
X156411000Y-112613333D01*
X156411000Y-112613333D02*
X156387190Y-112637142D01*
X156387190Y-112637142D02*
X156339571Y-112660952D01*
X156339571Y-112660952D02*
X156244333Y-112684761D01*
X156244333Y-112684761D02*
X156125285Y-112684761D01*
X156125285Y-112684761D02*
X156030047Y-112660952D01*
X156030047Y-112660952D02*
X155982428Y-112637142D01*
X155982428Y-112637142D02*
X155958619Y-112613333D01*
X155958619Y-112613333D02*
X155934809Y-112565714D01*
X169087190Y-113351428D02*
X169111000Y-113375237D01*
X169111000Y-113375237D02*
X169134809Y-113446666D01*
X169134809Y-113446666D02*
X169134809Y-113494285D01*
X169134809Y-113494285D02*
X169111000Y-113565713D01*
X169111000Y-113565713D02*
X169063380Y-113613332D01*
X169063380Y-113613332D02*
X169015761Y-113637142D01*
X169015761Y-113637142D02*
X168920523Y-113660951D01*
X168920523Y-113660951D02*
X168849095Y-113660951D01*
X168849095Y-113660951D02*
X168753857Y-113637142D01*
X168753857Y-113637142D02*
X168706238Y-113613332D01*
X168706238Y-113613332D02*
X168658619Y-113565713D01*
X168658619Y-113565713D02*
X168634809Y-113494285D01*
X168634809Y-113494285D02*
X168634809Y-113446666D01*
X168634809Y-113446666D02*
X168658619Y-113375237D01*
X168658619Y-113375237D02*
X168682428Y-113351428D01*
X169134809Y-112875237D02*
X169134809Y-113160951D01*
X169134809Y-113018094D02*
X168634809Y-113018094D01*
X168634809Y-113018094D02*
X168706238Y-113065713D01*
X168706238Y-113065713D02*
X168753857Y-113113332D01*
X168753857Y-113113332D02*
X168777666Y-113160951D01*
X168634809Y-112446666D02*
X168634809Y-112541904D01*
X168634809Y-112541904D02*
X168658619Y-112589523D01*
X168658619Y-112589523D02*
X168682428Y-112613333D01*
X168682428Y-112613333D02*
X168753857Y-112660952D01*
X168753857Y-112660952D02*
X168849095Y-112684761D01*
X168849095Y-112684761D02*
X169039571Y-112684761D01*
X169039571Y-112684761D02*
X169087190Y-112660952D01*
X169087190Y-112660952D02*
X169111000Y-112637142D01*
X169111000Y-112637142D02*
X169134809Y-112589523D01*
X169134809Y-112589523D02*
X169134809Y-112494285D01*
X169134809Y-112494285D02*
X169111000Y-112446666D01*
X169111000Y-112446666D02*
X169087190Y-112422857D01*
X169087190Y-112422857D02*
X169039571Y-112399047D01*
X169039571Y-112399047D02*
X168920523Y-112399047D01*
X168920523Y-112399047D02*
X168872904Y-112422857D01*
X168872904Y-112422857D02*
X168849095Y-112446666D01*
X168849095Y-112446666D02*
X168825285Y-112494285D01*
X168825285Y-112494285D02*
X168825285Y-112589523D01*
X168825285Y-112589523D02*
X168849095Y-112637142D01*
X168849095Y-112637142D02*
X168872904Y-112660952D01*
X168872904Y-112660952D02*
X168920523Y-112684761D01*
X161467190Y-113351428D02*
X161491000Y-113375237D01*
X161491000Y-113375237D02*
X161514809Y-113446666D01*
X161514809Y-113446666D02*
X161514809Y-113494285D01*
X161514809Y-113494285D02*
X161491000Y-113565713D01*
X161491000Y-113565713D02*
X161443380Y-113613332D01*
X161443380Y-113613332D02*
X161395761Y-113637142D01*
X161395761Y-113637142D02*
X161300523Y-113660951D01*
X161300523Y-113660951D02*
X161229095Y-113660951D01*
X161229095Y-113660951D02*
X161133857Y-113637142D01*
X161133857Y-113637142D02*
X161086238Y-113613332D01*
X161086238Y-113613332D02*
X161038619Y-113565713D01*
X161038619Y-113565713D02*
X161014809Y-113494285D01*
X161014809Y-113494285D02*
X161014809Y-113446666D01*
X161014809Y-113446666D02*
X161038619Y-113375237D01*
X161038619Y-113375237D02*
X161062428Y-113351428D01*
X161014809Y-113184761D02*
X161014809Y-112875237D01*
X161014809Y-112875237D02*
X161205285Y-113041904D01*
X161205285Y-113041904D02*
X161205285Y-112970475D01*
X161205285Y-112970475D02*
X161229095Y-112922856D01*
X161229095Y-112922856D02*
X161252904Y-112899047D01*
X161252904Y-112899047D02*
X161300523Y-112875237D01*
X161300523Y-112875237D02*
X161419571Y-112875237D01*
X161419571Y-112875237D02*
X161467190Y-112899047D01*
X161467190Y-112899047D02*
X161491000Y-112922856D01*
X161491000Y-112922856D02*
X161514809Y-112970475D01*
X161514809Y-112970475D02*
X161514809Y-113113332D01*
X161514809Y-113113332D02*
X161491000Y-113160951D01*
X161491000Y-113160951D02*
X161467190Y-113184761D01*
X161514809Y-112399047D02*
X161514809Y-112684761D01*
X161514809Y-112541904D02*
X161014809Y-112541904D01*
X161014809Y-112541904D02*
X161086238Y-112589523D01*
X161086238Y-112589523D02*
X161133857Y-112637142D01*
X161133857Y-112637142D02*
X161157666Y-112684761D01*
X156387190Y-120971428D02*
X156411000Y-120995237D01*
X156411000Y-120995237D02*
X156434809Y-121066666D01*
X156434809Y-121066666D02*
X156434809Y-121114285D01*
X156434809Y-121114285D02*
X156411000Y-121185713D01*
X156411000Y-121185713D02*
X156363380Y-121233332D01*
X156363380Y-121233332D02*
X156315761Y-121257142D01*
X156315761Y-121257142D02*
X156220523Y-121280951D01*
X156220523Y-121280951D02*
X156149095Y-121280951D01*
X156149095Y-121280951D02*
X156053857Y-121257142D01*
X156053857Y-121257142D02*
X156006238Y-121233332D01*
X156006238Y-121233332D02*
X155958619Y-121185713D01*
X155958619Y-121185713D02*
X155934809Y-121114285D01*
X155934809Y-121114285D02*
X155934809Y-121066666D01*
X155934809Y-121066666D02*
X155958619Y-120995237D01*
X155958619Y-120995237D02*
X155982428Y-120971428D01*
X155982428Y-120780951D02*
X155958619Y-120757142D01*
X155958619Y-120757142D02*
X155934809Y-120709523D01*
X155934809Y-120709523D02*
X155934809Y-120590475D01*
X155934809Y-120590475D02*
X155958619Y-120542856D01*
X155958619Y-120542856D02*
X155982428Y-120519047D01*
X155982428Y-120519047D02*
X156030047Y-120495237D01*
X156030047Y-120495237D02*
X156077666Y-120495237D01*
X156077666Y-120495237D02*
X156149095Y-120519047D01*
X156149095Y-120519047D02*
X156434809Y-120804761D01*
X156434809Y-120804761D02*
X156434809Y-120495237D01*
X156149095Y-120209523D02*
X156125285Y-120257142D01*
X156125285Y-120257142D02*
X156101476Y-120280952D01*
X156101476Y-120280952D02*
X156053857Y-120304761D01*
X156053857Y-120304761D02*
X156030047Y-120304761D01*
X156030047Y-120304761D02*
X155982428Y-120280952D01*
X155982428Y-120280952D02*
X155958619Y-120257142D01*
X155958619Y-120257142D02*
X155934809Y-120209523D01*
X155934809Y-120209523D02*
X155934809Y-120114285D01*
X155934809Y-120114285D02*
X155958619Y-120066666D01*
X155958619Y-120066666D02*
X155982428Y-120042857D01*
X155982428Y-120042857D02*
X156030047Y-120019047D01*
X156030047Y-120019047D02*
X156053857Y-120019047D01*
X156053857Y-120019047D02*
X156101476Y-120042857D01*
X156101476Y-120042857D02*
X156125285Y-120066666D01*
X156125285Y-120066666D02*
X156149095Y-120114285D01*
X156149095Y-120114285D02*
X156149095Y-120209523D01*
X156149095Y-120209523D02*
X156172904Y-120257142D01*
X156172904Y-120257142D02*
X156196714Y-120280952D01*
X156196714Y-120280952D02*
X156244333Y-120304761D01*
X156244333Y-120304761D02*
X156339571Y-120304761D01*
X156339571Y-120304761D02*
X156387190Y-120280952D01*
X156387190Y-120280952D02*
X156411000Y-120257142D01*
X156411000Y-120257142D02*
X156434809Y-120209523D01*
X156434809Y-120209523D02*
X156434809Y-120114285D01*
X156434809Y-120114285D02*
X156411000Y-120066666D01*
X156411000Y-120066666D02*
X156387190Y-120042857D01*
X156387190Y-120042857D02*
X156339571Y-120019047D01*
X156339571Y-120019047D02*
X156244333Y-120019047D01*
X156244333Y-120019047D02*
X156196714Y-120042857D01*
X156196714Y-120042857D02*
X156172904Y-120066666D01*
X156172904Y-120066666D02*
X156149095Y-120114285D01*
X166547190Y-116907428D02*
X166571000Y-116931237D01*
X166571000Y-116931237D02*
X166594809Y-117002666D01*
X166594809Y-117002666D02*
X166594809Y-117050285D01*
X166594809Y-117050285D02*
X166571000Y-117121713D01*
X166571000Y-117121713D02*
X166523380Y-117169332D01*
X166523380Y-117169332D02*
X166475761Y-117193142D01*
X166475761Y-117193142D02*
X166380523Y-117216951D01*
X166380523Y-117216951D02*
X166309095Y-117216951D01*
X166309095Y-117216951D02*
X166213857Y-117193142D01*
X166213857Y-117193142D02*
X166166238Y-117169332D01*
X166166238Y-117169332D02*
X166118619Y-117121713D01*
X166118619Y-117121713D02*
X166094809Y-117050285D01*
X166094809Y-117050285D02*
X166094809Y-117002666D01*
X166094809Y-117002666D02*
X166118619Y-116931237D01*
X166118619Y-116931237D02*
X166142428Y-116907428D01*
X166594809Y-116431237D02*
X166594809Y-116716951D01*
X166594809Y-116574094D02*
X166094809Y-116574094D01*
X166094809Y-116574094D02*
X166166238Y-116621713D01*
X166166238Y-116621713D02*
X166213857Y-116669332D01*
X166213857Y-116669332D02*
X166237666Y-116716951D01*
X166094809Y-116264571D02*
X166094809Y-115955047D01*
X166094809Y-115955047D02*
X166285285Y-116121714D01*
X166285285Y-116121714D02*
X166285285Y-116050285D01*
X166285285Y-116050285D02*
X166309095Y-116002666D01*
X166309095Y-116002666D02*
X166332904Y-115978857D01*
X166332904Y-115978857D02*
X166380523Y-115955047D01*
X166380523Y-115955047D02*
X166499571Y-115955047D01*
X166499571Y-115955047D02*
X166547190Y-115978857D01*
X166547190Y-115978857D02*
X166571000Y-116002666D01*
X166571000Y-116002666D02*
X166594809Y-116050285D01*
X166594809Y-116050285D02*
X166594809Y-116193142D01*
X166594809Y-116193142D02*
X166571000Y-116240761D01*
X166571000Y-116240761D02*
X166547190Y-116264571D01*
X156849048Y-107496809D02*
X157134762Y-107496809D01*
X156991905Y-107996809D02*
X156991905Y-107496809D01*
X157301428Y-107996809D02*
X157301428Y-107496809D01*
X157301428Y-107496809D02*
X157491904Y-107496809D01*
X157491904Y-107496809D02*
X157539523Y-107520619D01*
X157539523Y-107520619D02*
X157563333Y-107544428D01*
X157563333Y-107544428D02*
X157587142Y-107592047D01*
X157587142Y-107592047D02*
X157587142Y-107663476D01*
X157587142Y-107663476D02*
X157563333Y-107711095D01*
X157563333Y-107711095D02*
X157539523Y-107734904D01*
X157539523Y-107734904D02*
X157491904Y-107758714D01*
X157491904Y-107758714D02*
X157301428Y-107758714D01*
X157753809Y-107496809D02*
X158063333Y-107496809D01*
X158063333Y-107496809D02*
X157896666Y-107687285D01*
X157896666Y-107687285D02*
X157968095Y-107687285D01*
X157968095Y-107687285D02*
X158015714Y-107711095D01*
X158015714Y-107711095D02*
X158039523Y-107734904D01*
X158039523Y-107734904D02*
X158063333Y-107782523D01*
X158063333Y-107782523D02*
X158063333Y-107901571D01*
X158063333Y-107901571D02*
X158039523Y-107949190D01*
X158039523Y-107949190D02*
X158015714Y-107973000D01*
X158015714Y-107973000D02*
X157968095Y-107996809D01*
X157968095Y-107996809D02*
X157825238Y-107996809D01*
X157825238Y-107996809D02*
X157777619Y-107973000D01*
X157777619Y-107973000D02*
X157753809Y-107949190D01*
X158927190Y-120971428D02*
X158951000Y-120995237D01*
X158951000Y-120995237D02*
X158974809Y-121066666D01*
X158974809Y-121066666D02*
X158974809Y-121114285D01*
X158974809Y-121114285D02*
X158951000Y-121185713D01*
X158951000Y-121185713D02*
X158903380Y-121233332D01*
X158903380Y-121233332D02*
X158855761Y-121257142D01*
X158855761Y-121257142D02*
X158760523Y-121280951D01*
X158760523Y-121280951D02*
X158689095Y-121280951D01*
X158689095Y-121280951D02*
X158593857Y-121257142D01*
X158593857Y-121257142D02*
X158546238Y-121233332D01*
X158546238Y-121233332D02*
X158498619Y-121185713D01*
X158498619Y-121185713D02*
X158474809Y-121114285D01*
X158474809Y-121114285D02*
X158474809Y-121066666D01*
X158474809Y-121066666D02*
X158498619Y-120995237D01*
X158498619Y-120995237D02*
X158522428Y-120971428D01*
X158522428Y-120780951D02*
X158498619Y-120757142D01*
X158498619Y-120757142D02*
X158474809Y-120709523D01*
X158474809Y-120709523D02*
X158474809Y-120590475D01*
X158474809Y-120590475D02*
X158498619Y-120542856D01*
X158498619Y-120542856D02*
X158522428Y-120519047D01*
X158522428Y-120519047D02*
X158570047Y-120495237D01*
X158570047Y-120495237D02*
X158617666Y-120495237D01*
X158617666Y-120495237D02*
X158689095Y-120519047D01*
X158689095Y-120519047D02*
X158974809Y-120804761D01*
X158974809Y-120804761D02*
X158974809Y-120495237D01*
X158474809Y-120042857D02*
X158474809Y-120280952D01*
X158474809Y-120280952D02*
X158712904Y-120304761D01*
X158712904Y-120304761D02*
X158689095Y-120280952D01*
X158689095Y-120280952D02*
X158665285Y-120233333D01*
X158665285Y-120233333D02*
X158665285Y-120114285D01*
X158665285Y-120114285D02*
X158689095Y-120066666D01*
X158689095Y-120066666D02*
X158712904Y-120042857D01*
X158712904Y-120042857D02*
X158760523Y-120019047D01*
X158760523Y-120019047D02*
X158879571Y-120019047D01*
X158879571Y-120019047D02*
X158927190Y-120042857D01*
X158927190Y-120042857D02*
X158951000Y-120066666D01*
X158951000Y-120066666D02*
X158974809Y-120114285D01*
X158974809Y-120114285D02*
X158974809Y-120233333D01*
X158974809Y-120233333D02*
X158951000Y-120280952D01*
X158951000Y-120280952D02*
X158927190Y-120304761D01*
X199876809Y-123163452D02*
X200281571Y-123163452D01*
X200281571Y-123163452D02*
X200329190Y-123139642D01*
X200329190Y-123139642D02*
X200353000Y-123115833D01*
X200353000Y-123115833D02*
X200376809Y-123068214D01*
X200376809Y-123068214D02*
X200376809Y-122972976D01*
X200376809Y-122972976D02*
X200353000Y-122925357D01*
X200353000Y-122925357D02*
X200329190Y-122901547D01*
X200329190Y-122901547D02*
X200281571Y-122877738D01*
X200281571Y-122877738D02*
X199876809Y-122877738D01*
X199924428Y-122663451D02*
X199900619Y-122639642D01*
X199900619Y-122639642D02*
X199876809Y-122592023D01*
X199876809Y-122592023D02*
X199876809Y-122472975D01*
X199876809Y-122472975D02*
X199900619Y-122425356D01*
X199900619Y-122425356D02*
X199924428Y-122401547D01*
X199924428Y-122401547D02*
X199972047Y-122377737D01*
X199972047Y-122377737D02*
X200019666Y-122377737D01*
X200019666Y-122377737D02*
X200091095Y-122401547D01*
X200091095Y-122401547D02*
X200376809Y-122687261D01*
X200376809Y-122687261D02*
X200376809Y-122377737D01*
X164469048Y-107496809D02*
X164754762Y-107496809D01*
X164611905Y-107996809D02*
X164611905Y-107496809D01*
X164921428Y-107996809D02*
X164921428Y-107496809D01*
X164921428Y-107496809D02*
X165111904Y-107496809D01*
X165111904Y-107496809D02*
X165159523Y-107520619D01*
X165159523Y-107520619D02*
X165183333Y-107544428D01*
X165183333Y-107544428D02*
X165207142Y-107592047D01*
X165207142Y-107592047D02*
X165207142Y-107663476D01*
X165207142Y-107663476D02*
X165183333Y-107711095D01*
X165183333Y-107711095D02*
X165159523Y-107734904D01*
X165159523Y-107734904D02*
X165111904Y-107758714D01*
X165111904Y-107758714D02*
X164921428Y-107758714D01*
X165635714Y-107496809D02*
X165540476Y-107496809D01*
X165540476Y-107496809D02*
X165492857Y-107520619D01*
X165492857Y-107520619D02*
X165469047Y-107544428D01*
X165469047Y-107544428D02*
X165421428Y-107615857D01*
X165421428Y-107615857D02*
X165397619Y-107711095D01*
X165397619Y-107711095D02*
X165397619Y-107901571D01*
X165397619Y-107901571D02*
X165421428Y-107949190D01*
X165421428Y-107949190D02*
X165445238Y-107973000D01*
X165445238Y-107973000D02*
X165492857Y-107996809D01*
X165492857Y-107996809D02*
X165588095Y-107996809D01*
X165588095Y-107996809D02*
X165635714Y-107973000D01*
X165635714Y-107973000D02*
X165659523Y-107949190D01*
X165659523Y-107949190D02*
X165683333Y-107901571D01*
X165683333Y-107901571D02*
X165683333Y-107782523D01*
X165683333Y-107782523D02*
X165659523Y-107734904D01*
X165659523Y-107734904D02*
X165635714Y-107711095D01*
X165635714Y-107711095D02*
X165588095Y-107687285D01*
X165588095Y-107687285D02*
X165492857Y-107687285D01*
X165492857Y-107687285D02*
X165445238Y-107711095D01*
X165445238Y-107711095D02*
X165421428Y-107734904D01*
X165421428Y-107734904D02*
X165397619Y-107782523D01*
X166547190Y-121225428D02*
X166571000Y-121249237D01*
X166571000Y-121249237D02*
X166594809Y-121320666D01*
X166594809Y-121320666D02*
X166594809Y-121368285D01*
X166594809Y-121368285D02*
X166571000Y-121439713D01*
X166571000Y-121439713D02*
X166523380Y-121487332D01*
X166523380Y-121487332D02*
X166475761Y-121511142D01*
X166475761Y-121511142D02*
X166380523Y-121534951D01*
X166380523Y-121534951D02*
X166309095Y-121534951D01*
X166309095Y-121534951D02*
X166213857Y-121511142D01*
X166213857Y-121511142D02*
X166166238Y-121487332D01*
X166166238Y-121487332D02*
X166118619Y-121439713D01*
X166118619Y-121439713D02*
X166094809Y-121368285D01*
X166094809Y-121368285D02*
X166094809Y-121320666D01*
X166094809Y-121320666D02*
X166118619Y-121249237D01*
X166118619Y-121249237D02*
X166142428Y-121225428D01*
X166594809Y-120749237D02*
X166594809Y-121034951D01*
X166594809Y-120892094D02*
X166094809Y-120892094D01*
X166094809Y-120892094D02*
X166166238Y-120939713D01*
X166166238Y-120939713D02*
X166213857Y-120987332D01*
X166213857Y-120987332D02*
X166237666Y-121034951D01*
X166594809Y-120511142D02*
X166594809Y-120415904D01*
X166594809Y-120415904D02*
X166571000Y-120368285D01*
X166571000Y-120368285D02*
X166547190Y-120344476D01*
X166547190Y-120344476D02*
X166475761Y-120296857D01*
X166475761Y-120296857D02*
X166380523Y-120273047D01*
X166380523Y-120273047D02*
X166190047Y-120273047D01*
X166190047Y-120273047D02*
X166142428Y-120296857D01*
X166142428Y-120296857D02*
X166118619Y-120320666D01*
X166118619Y-120320666D02*
X166094809Y-120368285D01*
X166094809Y-120368285D02*
X166094809Y-120463523D01*
X166094809Y-120463523D02*
X166118619Y-120511142D01*
X166118619Y-120511142D02*
X166142428Y-120534952D01*
X166142428Y-120534952D02*
X166190047Y-120558761D01*
X166190047Y-120558761D02*
X166309095Y-120558761D01*
X166309095Y-120558761D02*
X166356714Y-120534952D01*
X166356714Y-120534952D02*
X166380523Y-120511142D01*
X166380523Y-120511142D02*
X166404333Y-120463523D01*
X166404333Y-120463523D02*
X166404333Y-120368285D01*
X166404333Y-120368285D02*
X166380523Y-120320666D01*
X166380523Y-120320666D02*
X166356714Y-120296857D01*
X166356714Y-120296857D02*
X166309095Y-120273047D01*
X203377190Y-123103928D02*
X203401000Y-123127737D01*
X203401000Y-123127737D02*
X203424809Y-123199166D01*
X203424809Y-123199166D02*
X203424809Y-123246785D01*
X203424809Y-123246785D02*
X203401000Y-123318213D01*
X203401000Y-123318213D02*
X203353380Y-123365832D01*
X203353380Y-123365832D02*
X203305761Y-123389642D01*
X203305761Y-123389642D02*
X203210523Y-123413451D01*
X203210523Y-123413451D02*
X203139095Y-123413451D01*
X203139095Y-123413451D02*
X203043857Y-123389642D01*
X203043857Y-123389642D02*
X202996238Y-123365832D01*
X202996238Y-123365832D02*
X202948619Y-123318213D01*
X202948619Y-123318213D02*
X202924809Y-123246785D01*
X202924809Y-123246785D02*
X202924809Y-123199166D01*
X202924809Y-123199166D02*
X202948619Y-123127737D01*
X202948619Y-123127737D02*
X202972428Y-123103928D01*
X202924809Y-122937261D02*
X202924809Y-122627737D01*
X202924809Y-122627737D02*
X203115285Y-122794404D01*
X203115285Y-122794404D02*
X203115285Y-122722975D01*
X203115285Y-122722975D02*
X203139095Y-122675356D01*
X203139095Y-122675356D02*
X203162904Y-122651547D01*
X203162904Y-122651547D02*
X203210523Y-122627737D01*
X203210523Y-122627737D02*
X203329571Y-122627737D01*
X203329571Y-122627737D02*
X203377190Y-122651547D01*
X203377190Y-122651547D02*
X203401000Y-122675356D01*
X203401000Y-122675356D02*
X203424809Y-122722975D01*
X203424809Y-122722975D02*
X203424809Y-122865832D01*
X203424809Y-122865832D02*
X203401000Y-122913451D01*
X203401000Y-122913451D02*
X203377190Y-122937261D01*
X202924809Y-122461071D02*
X202924809Y-122151547D01*
X202924809Y-122151547D02*
X203115285Y-122318214D01*
X203115285Y-122318214D02*
X203115285Y-122246785D01*
X203115285Y-122246785D02*
X203139095Y-122199166D01*
X203139095Y-122199166D02*
X203162904Y-122175357D01*
X203162904Y-122175357D02*
X203210523Y-122151547D01*
X203210523Y-122151547D02*
X203329571Y-122151547D01*
X203329571Y-122151547D02*
X203377190Y-122175357D01*
X203377190Y-122175357D02*
X203401000Y-122199166D01*
X203401000Y-122199166D02*
X203424809Y-122246785D01*
X203424809Y-122246785D02*
X203424809Y-122389642D01*
X203424809Y-122389642D02*
X203401000Y-122437261D01*
X203401000Y-122437261D02*
X203377190Y-122461071D01*
X161514809Y-117161428D02*
X161276714Y-117328094D01*
X161514809Y-117447142D02*
X161014809Y-117447142D01*
X161014809Y-117447142D02*
X161014809Y-117256666D01*
X161014809Y-117256666D02*
X161038619Y-117209047D01*
X161038619Y-117209047D02*
X161062428Y-117185237D01*
X161062428Y-117185237D02*
X161110047Y-117161428D01*
X161110047Y-117161428D02*
X161181476Y-117161428D01*
X161181476Y-117161428D02*
X161229095Y-117185237D01*
X161229095Y-117185237D02*
X161252904Y-117209047D01*
X161252904Y-117209047D02*
X161276714Y-117256666D01*
X161276714Y-117256666D02*
X161276714Y-117447142D01*
X161514809Y-116685237D02*
X161514809Y-116970951D01*
X161514809Y-116828094D02*
X161014809Y-116828094D01*
X161014809Y-116828094D02*
X161086238Y-116875713D01*
X161086238Y-116875713D02*
X161133857Y-116923332D01*
X161133857Y-116923332D02*
X161157666Y-116970951D01*
X161014809Y-116518571D02*
X161014809Y-116209047D01*
X161014809Y-116209047D02*
X161205285Y-116375714D01*
X161205285Y-116375714D02*
X161205285Y-116304285D01*
X161205285Y-116304285D02*
X161229095Y-116256666D01*
X161229095Y-116256666D02*
X161252904Y-116232857D01*
X161252904Y-116232857D02*
X161300523Y-116209047D01*
X161300523Y-116209047D02*
X161419571Y-116209047D01*
X161419571Y-116209047D02*
X161467190Y-116232857D01*
X161467190Y-116232857D02*
X161491000Y-116256666D01*
X161491000Y-116256666D02*
X161514809Y-116304285D01*
X161514809Y-116304285D02*
X161514809Y-116447142D01*
X161514809Y-116447142D02*
X161491000Y-116494761D01*
X161491000Y-116494761D02*
X161467190Y-116518571D01*
X164007190Y-113113333D02*
X164031000Y-113137142D01*
X164031000Y-113137142D02*
X164054809Y-113208571D01*
X164054809Y-113208571D02*
X164054809Y-113256190D01*
X164054809Y-113256190D02*
X164031000Y-113327618D01*
X164031000Y-113327618D02*
X163983380Y-113375237D01*
X163983380Y-113375237D02*
X163935761Y-113399047D01*
X163935761Y-113399047D02*
X163840523Y-113422856D01*
X163840523Y-113422856D02*
X163769095Y-113422856D01*
X163769095Y-113422856D02*
X163673857Y-113399047D01*
X163673857Y-113399047D02*
X163626238Y-113375237D01*
X163626238Y-113375237D02*
X163578619Y-113327618D01*
X163578619Y-113327618D02*
X163554809Y-113256190D01*
X163554809Y-113256190D02*
X163554809Y-113208571D01*
X163554809Y-113208571D02*
X163578619Y-113137142D01*
X163578619Y-113137142D02*
X163602428Y-113113333D01*
X163554809Y-112660952D02*
X163554809Y-112899047D01*
X163554809Y-112899047D02*
X163792904Y-112922856D01*
X163792904Y-112922856D02*
X163769095Y-112899047D01*
X163769095Y-112899047D02*
X163745285Y-112851428D01*
X163745285Y-112851428D02*
X163745285Y-112732380D01*
X163745285Y-112732380D02*
X163769095Y-112684761D01*
X163769095Y-112684761D02*
X163792904Y-112660952D01*
X163792904Y-112660952D02*
X163840523Y-112637142D01*
X163840523Y-112637142D02*
X163959571Y-112637142D01*
X163959571Y-112637142D02*
X164007190Y-112660952D01*
X164007190Y-112660952D02*
X164031000Y-112684761D01*
X164031000Y-112684761D02*
X164054809Y-112732380D01*
X164054809Y-112732380D02*
X164054809Y-112851428D01*
X164054809Y-112851428D02*
X164031000Y-112899047D01*
X164031000Y-112899047D02*
X164007190Y-112922856D01*
X172952809Y-121538952D02*
X173357571Y-121538952D01*
X173357571Y-121538952D02*
X173405190Y-121515142D01*
X173405190Y-121515142D02*
X173429000Y-121491333D01*
X173429000Y-121491333D02*
X173452809Y-121443714D01*
X173452809Y-121443714D02*
X173452809Y-121348476D01*
X173452809Y-121348476D02*
X173429000Y-121300857D01*
X173429000Y-121300857D02*
X173405190Y-121277047D01*
X173405190Y-121277047D02*
X173357571Y-121253238D01*
X173357571Y-121253238D02*
X172952809Y-121253238D01*
X173452809Y-120753237D02*
X173452809Y-121038951D01*
X173452809Y-120896094D02*
X172952809Y-120896094D01*
X172952809Y-120896094D02*
X173024238Y-120943713D01*
X173024238Y-120943713D02*
X173071857Y-120991332D01*
X173071857Y-120991332D02*
X173095666Y-121038951D01*
X166547190Y-113351428D02*
X166571000Y-113375237D01*
X166571000Y-113375237D02*
X166594809Y-113446666D01*
X166594809Y-113446666D02*
X166594809Y-113494285D01*
X166594809Y-113494285D02*
X166571000Y-113565713D01*
X166571000Y-113565713D02*
X166523380Y-113613332D01*
X166523380Y-113613332D02*
X166475761Y-113637142D01*
X166475761Y-113637142D02*
X166380523Y-113660951D01*
X166380523Y-113660951D02*
X166309095Y-113660951D01*
X166309095Y-113660951D02*
X166213857Y-113637142D01*
X166213857Y-113637142D02*
X166166238Y-113613332D01*
X166166238Y-113613332D02*
X166118619Y-113565713D01*
X166118619Y-113565713D02*
X166094809Y-113494285D01*
X166094809Y-113494285D02*
X166094809Y-113446666D01*
X166094809Y-113446666D02*
X166118619Y-113375237D01*
X166118619Y-113375237D02*
X166142428Y-113351428D01*
X166594809Y-112875237D02*
X166594809Y-113160951D01*
X166594809Y-113018094D02*
X166094809Y-113018094D01*
X166094809Y-113018094D02*
X166166238Y-113065713D01*
X166166238Y-113065713D02*
X166213857Y-113113332D01*
X166213857Y-113113332D02*
X166237666Y-113160951D01*
X166594809Y-112399047D02*
X166594809Y-112684761D01*
X166594809Y-112541904D02*
X166094809Y-112541904D01*
X166094809Y-112541904D02*
X166166238Y-112589523D01*
X166166238Y-112589523D02*
X166213857Y-112637142D01*
X166213857Y-112637142D02*
X166237666Y-112684761D01*
X158974809Y-117161428D02*
X158736714Y-117328094D01*
X158974809Y-117447142D02*
X158474809Y-117447142D01*
X158474809Y-117447142D02*
X158474809Y-117256666D01*
X158474809Y-117256666D02*
X158498619Y-117209047D01*
X158498619Y-117209047D02*
X158522428Y-117185237D01*
X158522428Y-117185237D02*
X158570047Y-117161428D01*
X158570047Y-117161428D02*
X158641476Y-117161428D01*
X158641476Y-117161428D02*
X158689095Y-117185237D01*
X158689095Y-117185237D02*
X158712904Y-117209047D01*
X158712904Y-117209047D02*
X158736714Y-117256666D01*
X158736714Y-117256666D02*
X158736714Y-117447142D01*
X158974809Y-116685237D02*
X158974809Y-116970951D01*
X158974809Y-116828094D02*
X158474809Y-116828094D01*
X158474809Y-116828094D02*
X158546238Y-116875713D01*
X158546238Y-116875713D02*
X158593857Y-116923332D01*
X158593857Y-116923332D02*
X158617666Y-116970951D01*
X158474809Y-116375714D02*
X158474809Y-116328095D01*
X158474809Y-116328095D02*
X158498619Y-116280476D01*
X158498619Y-116280476D02*
X158522428Y-116256666D01*
X158522428Y-116256666D02*
X158570047Y-116232857D01*
X158570047Y-116232857D02*
X158665285Y-116209047D01*
X158665285Y-116209047D02*
X158784333Y-116209047D01*
X158784333Y-116209047D02*
X158879571Y-116232857D01*
X158879571Y-116232857D02*
X158927190Y-116256666D01*
X158927190Y-116256666D02*
X158951000Y-116280476D01*
X158951000Y-116280476D02*
X158974809Y-116328095D01*
X158974809Y-116328095D02*
X158974809Y-116375714D01*
X158974809Y-116375714D02*
X158951000Y-116423333D01*
X158951000Y-116423333D02*
X158927190Y-116447142D01*
X158927190Y-116447142D02*
X158879571Y-116470952D01*
X158879571Y-116470952D02*
X158784333Y-116494761D01*
X158784333Y-116494761D02*
X158665285Y-116494761D01*
X158665285Y-116494761D02*
X158570047Y-116470952D01*
X158570047Y-116470952D02*
X158522428Y-116447142D01*
X158522428Y-116447142D02*
X158498619Y-116423333D01*
X158498619Y-116423333D02*
X158474809Y-116375714D01*
X153894809Y-116923333D02*
X153656714Y-117089999D01*
X153894809Y-117209047D02*
X153394809Y-117209047D01*
X153394809Y-117209047D02*
X153394809Y-117018571D01*
X153394809Y-117018571D02*
X153418619Y-116970952D01*
X153418619Y-116970952D02*
X153442428Y-116947142D01*
X153442428Y-116947142D02*
X153490047Y-116923333D01*
X153490047Y-116923333D02*
X153561476Y-116923333D01*
X153561476Y-116923333D02*
X153609095Y-116947142D01*
X153609095Y-116947142D02*
X153632904Y-116970952D01*
X153632904Y-116970952D02*
X153656714Y-117018571D01*
X153656714Y-117018571D02*
X153656714Y-117209047D01*
X153894809Y-116685237D02*
X153894809Y-116589999D01*
X153894809Y-116589999D02*
X153871000Y-116542380D01*
X153871000Y-116542380D02*
X153847190Y-116518571D01*
X153847190Y-116518571D02*
X153775761Y-116470952D01*
X153775761Y-116470952D02*
X153680523Y-116447142D01*
X153680523Y-116447142D02*
X153490047Y-116447142D01*
X153490047Y-116447142D02*
X153442428Y-116470952D01*
X153442428Y-116470952D02*
X153418619Y-116494761D01*
X153418619Y-116494761D02*
X153394809Y-116542380D01*
X153394809Y-116542380D02*
X153394809Y-116637618D01*
X153394809Y-116637618D02*
X153418619Y-116685237D01*
X153418619Y-116685237D02*
X153442428Y-116709047D01*
X153442428Y-116709047D02*
X153490047Y-116732856D01*
X153490047Y-116732856D02*
X153609095Y-116732856D01*
X153609095Y-116732856D02*
X153656714Y-116709047D01*
X153656714Y-116709047D02*
X153680523Y-116685237D01*
X153680523Y-116685237D02*
X153704333Y-116637618D01*
X153704333Y-116637618D02*
X153704333Y-116542380D01*
X153704333Y-116542380D02*
X153680523Y-116494761D01*
X153680523Y-116494761D02*
X153656714Y-116470952D01*
X153656714Y-116470952D02*
X153609095Y-116447142D01*
X181787190Y-120971428D02*
X181811000Y-120995237D01*
X181811000Y-120995237D02*
X181834809Y-121066666D01*
X181834809Y-121066666D02*
X181834809Y-121114285D01*
X181834809Y-121114285D02*
X181811000Y-121185713D01*
X181811000Y-121185713D02*
X181763380Y-121233332D01*
X181763380Y-121233332D02*
X181715761Y-121257142D01*
X181715761Y-121257142D02*
X181620523Y-121280951D01*
X181620523Y-121280951D02*
X181549095Y-121280951D01*
X181549095Y-121280951D02*
X181453857Y-121257142D01*
X181453857Y-121257142D02*
X181406238Y-121233332D01*
X181406238Y-121233332D02*
X181358619Y-121185713D01*
X181358619Y-121185713D02*
X181334809Y-121114285D01*
X181334809Y-121114285D02*
X181334809Y-121066666D01*
X181334809Y-121066666D02*
X181358619Y-120995237D01*
X181358619Y-120995237D02*
X181382428Y-120971428D01*
X181834809Y-120495237D02*
X181834809Y-120780951D01*
X181834809Y-120638094D02*
X181334809Y-120638094D01*
X181334809Y-120638094D02*
X181406238Y-120685713D01*
X181406238Y-120685713D02*
X181453857Y-120733332D01*
X181453857Y-120733332D02*
X181477666Y-120780951D01*
X181334809Y-120042857D02*
X181334809Y-120280952D01*
X181334809Y-120280952D02*
X181572904Y-120304761D01*
X181572904Y-120304761D02*
X181549095Y-120280952D01*
X181549095Y-120280952D02*
X181525285Y-120233333D01*
X181525285Y-120233333D02*
X181525285Y-120114285D01*
X181525285Y-120114285D02*
X181549095Y-120066666D01*
X181549095Y-120066666D02*
X181572904Y-120042857D01*
X181572904Y-120042857D02*
X181620523Y-120019047D01*
X181620523Y-120019047D02*
X181739571Y-120019047D01*
X181739571Y-120019047D02*
X181787190Y-120042857D01*
X181787190Y-120042857D02*
X181811000Y-120066666D01*
X181811000Y-120066666D02*
X181834809Y-120114285D01*
X181834809Y-120114285D02*
X181834809Y-120233333D01*
X181834809Y-120233333D02*
X181811000Y-120280952D01*
X181811000Y-120280952D02*
X181787190Y-120304761D01*
X184374809Y-115653333D02*
X184136714Y-115819999D01*
X184374809Y-115939047D02*
X183874809Y-115939047D01*
X183874809Y-115939047D02*
X183874809Y-115748571D01*
X183874809Y-115748571D02*
X183898619Y-115700952D01*
X183898619Y-115700952D02*
X183922428Y-115677142D01*
X183922428Y-115677142D02*
X183970047Y-115653333D01*
X183970047Y-115653333D02*
X184041476Y-115653333D01*
X184041476Y-115653333D02*
X184089095Y-115677142D01*
X184089095Y-115677142D02*
X184112904Y-115700952D01*
X184112904Y-115700952D02*
X184136714Y-115748571D01*
X184136714Y-115748571D02*
X184136714Y-115939047D01*
X183874809Y-115224761D02*
X183874809Y-115319999D01*
X183874809Y-115319999D02*
X183898619Y-115367618D01*
X183898619Y-115367618D02*
X183922428Y-115391428D01*
X183922428Y-115391428D02*
X183993857Y-115439047D01*
X183993857Y-115439047D02*
X184089095Y-115462856D01*
X184089095Y-115462856D02*
X184279571Y-115462856D01*
X184279571Y-115462856D02*
X184327190Y-115439047D01*
X184327190Y-115439047D02*
X184351000Y-115415237D01*
X184351000Y-115415237D02*
X184374809Y-115367618D01*
X184374809Y-115367618D02*
X184374809Y-115272380D01*
X184374809Y-115272380D02*
X184351000Y-115224761D01*
X184351000Y-115224761D02*
X184327190Y-115200952D01*
X184327190Y-115200952D02*
X184279571Y-115177142D01*
X184279571Y-115177142D02*
X184160523Y-115177142D01*
X184160523Y-115177142D02*
X184112904Y-115200952D01*
X184112904Y-115200952D02*
X184089095Y-115224761D01*
X184089095Y-115224761D02*
X184065285Y-115272380D01*
X184065285Y-115272380D02*
X184065285Y-115367618D01*
X184065285Y-115367618D02*
X184089095Y-115415237D01*
X184089095Y-115415237D02*
X184112904Y-115439047D01*
X184112904Y-115439047D02*
X184160523Y-115462856D01*
X158083334Y-123731000D02*
X158154762Y-123754809D01*
X158154762Y-123754809D02*
X158273810Y-123754809D01*
X158273810Y-123754809D02*
X158321429Y-123731000D01*
X158321429Y-123731000D02*
X158345238Y-123707190D01*
X158345238Y-123707190D02*
X158369048Y-123659571D01*
X158369048Y-123659571D02*
X158369048Y-123611952D01*
X158369048Y-123611952D02*
X158345238Y-123564333D01*
X158345238Y-123564333D02*
X158321429Y-123540523D01*
X158321429Y-123540523D02*
X158273810Y-123516714D01*
X158273810Y-123516714D02*
X158178572Y-123492904D01*
X158178572Y-123492904D02*
X158130953Y-123469095D01*
X158130953Y-123469095D02*
X158107143Y-123445285D01*
X158107143Y-123445285D02*
X158083334Y-123397666D01*
X158083334Y-123397666D02*
X158083334Y-123350047D01*
X158083334Y-123350047D02*
X158107143Y-123302428D01*
X158107143Y-123302428D02*
X158130953Y-123278619D01*
X158130953Y-123278619D02*
X158178572Y-123254809D01*
X158178572Y-123254809D02*
X158297619Y-123254809D01*
X158297619Y-123254809D02*
X158369048Y-123278619D01*
X158535714Y-123254809D02*
X158654762Y-123754809D01*
X158654762Y-123754809D02*
X158750000Y-123397666D01*
X158750000Y-123397666D02*
X158845238Y-123754809D01*
X158845238Y-123754809D02*
X158964286Y-123254809D01*
X159416667Y-123754809D02*
X159130953Y-123754809D01*
X159273810Y-123754809D02*
X159273810Y-123254809D01*
X159273810Y-123254809D02*
X159226191Y-123326238D01*
X159226191Y-123326238D02*
X159178572Y-123373857D01*
X159178572Y-123373857D02*
X159130953Y-123397666D01*
X195804809Y-130723928D02*
X195566714Y-130890594D01*
X195804809Y-131009642D02*
X195304809Y-131009642D01*
X195304809Y-131009642D02*
X195304809Y-130819166D01*
X195304809Y-130819166D02*
X195328619Y-130771547D01*
X195328619Y-130771547D02*
X195352428Y-130747737D01*
X195352428Y-130747737D02*
X195400047Y-130723928D01*
X195400047Y-130723928D02*
X195471476Y-130723928D01*
X195471476Y-130723928D02*
X195519095Y-130747737D01*
X195519095Y-130747737D02*
X195542904Y-130771547D01*
X195542904Y-130771547D02*
X195566714Y-130819166D01*
X195566714Y-130819166D02*
X195566714Y-131009642D01*
X195804809Y-130247737D02*
X195804809Y-130533451D01*
X195804809Y-130390594D02*
X195304809Y-130390594D01*
X195304809Y-130390594D02*
X195376238Y-130438213D01*
X195376238Y-130438213D02*
X195423857Y-130485832D01*
X195423857Y-130485832D02*
X195447666Y-130533451D01*
X195304809Y-129795357D02*
X195304809Y-130033452D01*
X195304809Y-130033452D02*
X195542904Y-130057261D01*
X195542904Y-130057261D02*
X195519095Y-130033452D01*
X195519095Y-130033452D02*
X195495285Y-129985833D01*
X195495285Y-129985833D02*
X195495285Y-129866785D01*
X195495285Y-129866785D02*
X195519095Y-129819166D01*
X195519095Y-129819166D02*
X195542904Y-129795357D01*
X195542904Y-129795357D02*
X195590523Y-129771547D01*
X195590523Y-129771547D02*
X195709571Y-129771547D01*
X195709571Y-129771547D02*
X195757190Y-129795357D01*
X195757190Y-129795357D02*
X195781000Y-129819166D01*
X195781000Y-129819166D02*
X195804809Y-129866785D01*
X195804809Y-129866785D02*
X195804809Y-129985833D01*
X195804809Y-129985833D02*
X195781000Y-130033452D01*
X195781000Y-130033452D02*
X195757190Y-130057261D01*
X167556666Y-126923190D02*
X167532857Y-126947000D01*
X167532857Y-126947000D02*
X167461428Y-126970809D01*
X167461428Y-126970809D02*
X167413809Y-126970809D01*
X167413809Y-126970809D02*
X167342381Y-126947000D01*
X167342381Y-126947000D02*
X167294762Y-126899380D01*
X167294762Y-126899380D02*
X167270952Y-126851761D01*
X167270952Y-126851761D02*
X167247143Y-126756523D01*
X167247143Y-126756523D02*
X167247143Y-126685095D01*
X167247143Y-126685095D02*
X167270952Y-126589857D01*
X167270952Y-126589857D02*
X167294762Y-126542238D01*
X167294762Y-126542238D02*
X167342381Y-126494619D01*
X167342381Y-126494619D02*
X167413809Y-126470809D01*
X167413809Y-126470809D02*
X167461428Y-126470809D01*
X167461428Y-126470809D02*
X167532857Y-126494619D01*
X167532857Y-126494619D02*
X167556666Y-126518428D01*
X167723333Y-126470809D02*
X168032857Y-126470809D01*
X168032857Y-126470809D02*
X167866190Y-126661285D01*
X167866190Y-126661285D02*
X167937619Y-126661285D01*
X167937619Y-126661285D02*
X167985238Y-126685095D01*
X167985238Y-126685095D02*
X168009047Y-126708904D01*
X168009047Y-126708904D02*
X168032857Y-126756523D01*
X168032857Y-126756523D02*
X168032857Y-126875571D01*
X168032857Y-126875571D02*
X168009047Y-126923190D01*
X168009047Y-126923190D02*
X167985238Y-126947000D01*
X167985238Y-126947000D02*
X167937619Y-126970809D01*
X167937619Y-126970809D02*
X167794762Y-126970809D01*
X167794762Y-126970809D02*
X167747143Y-126947000D01*
X167747143Y-126947000D02*
X167723333Y-126923190D01*
X164007190Y-116907428D02*
X164031000Y-116931237D01*
X164031000Y-116931237D02*
X164054809Y-117002666D01*
X164054809Y-117002666D02*
X164054809Y-117050285D01*
X164054809Y-117050285D02*
X164031000Y-117121713D01*
X164031000Y-117121713D02*
X163983380Y-117169332D01*
X163983380Y-117169332D02*
X163935761Y-117193142D01*
X163935761Y-117193142D02*
X163840523Y-117216951D01*
X163840523Y-117216951D02*
X163769095Y-117216951D01*
X163769095Y-117216951D02*
X163673857Y-117193142D01*
X163673857Y-117193142D02*
X163626238Y-117169332D01*
X163626238Y-117169332D02*
X163578619Y-117121713D01*
X163578619Y-117121713D02*
X163554809Y-117050285D01*
X163554809Y-117050285D02*
X163554809Y-117002666D01*
X163554809Y-117002666D02*
X163578619Y-116931237D01*
X163578619Y-116931237D02*
X163602428Y-116907428D01*
X164054809Y-116431237D02*
X164054809Y-116716951D01*
X164054809Y-116574094D02*
X163554809Y-116574094D01*
X163554809Y-116574094D02*
X163626238Y-116621713D01*
X163626238Y-116621713D02*
X163673857Y-116669332D01*
X163673857Y-116669332D02*
X163697666Y-116716951D01*
X163721476Y-116002666D02*
X164054809Y-116002666D01*
X163531000Y-116121714D02*
X163888142Y-116240761D01*
X163888142Y-116240761D02*
X163888142Y-115931238D01*
X161929048Y-107496809D02*
X162214762Y-107496809D01*
X162071905Y-107996809D02*
X162071905Y-107496809D01*
X162381428Y-107996809D02*
X162381428Y-107496809D01*
X162381428Y-107496809D02*
X162571904Y-107496809D01*
X162571904Y-107496809D02*
X162619523Y-107520619D01*
X162619523Y-107520619D02*
X162643333Y-107544428D01*
X162643333Y-107544428D02*
X162667142Y-107592047D01*
X162667142Y-107592047D02*
X162667142Y-107663476D01*
X162667142Y-107663476D02*
X162643333Y-107711095D01*
X162643333Y-107711095D02*
X162619523Y-107734904D01*
X162619523Y-107734904D02*
X162571904Y-107758714D01*
X162571904Y-107758714D02*
X162381428Y-107758714D01*
X163095714Y-107663476D02*
X163095714Y-107996809D01*
X162976666Y-107473000D02*
X162857619Y-107830142D01*
X162857619Y-107830142D02*
X163167142Y-107830142D01*
X193264809Y-130723928D02*
X193026714Y-130890594D01*
X193264809Y-131009642D02*
X192764809Y-131009642D01*
X192764809Y-131009642D02*
X192764809Y-130819166D01*
X192764809Y-130819166D02*
X192788619Y-130771547D01*
X192788619Y-130771547D02*
X192812428Y-130747737D01*
X192812428Y-130747737D02*
X192860047Y-130723928D01*
X192860047Y-130723928D02*
X192931476Y-130723928D01*
X192931476Y-130723928D02*
X192979095Y-130747737D01*
X192979095Y-130747737D02*
X193002904Y-130771547D01*
X193002904Y-130771547D02*
X193026714Y-130819166D01*
X193026714Y-130819166D02*
X193026714Y-131009642D01*
X193264809Y-130247737D02*
X193264809Y-130533451D01*
X193264809Y-130390594D02*
X192764809Y-130390594D01*
X192764809Y-130390594D02*
X192836238Y-130438213D01*
X192836238Y-130438213D02*
X192883857Y-130485832D01*
X192883857Y-130485832D02*
X192907666Y-130533451D01*
X192931476Y-129819166D02*
X193264809Y-129819166D01*
X192741000Y-129938214D02*
X193098142Y-130057261D01*
X193098142Y-130057261D02*
X193098142Y-129747738D01*
X176707190Y-113113333D02*
X176731000Y-113137142D01*
X176731000Y-113137142D02*
X176754809Y-113208571D01*
X176754809Y-113208571D02*
X176754809Y-113256190D01*
X176754809Y-113256190D02*
X176731000Y-113327618D01*
X176731000Y-113327618D02*
X176683380Y-113375237D01*
X176683380Y-113375237D02*
X176635761Y-113399047D01*
X176635761Y-113399047D02*
X176540523Y-113422856D01*
X176540523Y-113422856D02*
X176469095Y-113422856D01*
X176469095Y-113422856D02*
X176373857Y-113399047D01*
X176373857Y-113399047D02*
X176326238Y-113375237D01*
X176326238Y-113375237D02*
X176278619Y-113327618D01*
X176278619Y-113327618D02*
X176254809Y-113256190D01*
X176254809Y-113256190D02*
X176254809Y-113208571D01*
X176254809Y-113208571D02*
X176278619Y-113137142D01*
X176278619Y-113137142D02*
X176302428Y-113113333D01*
X176254809Y-112684761D02*
X176254809Y-112779999D01*
X176254809Y-112779999D02*
X176278619Y-112827618D01*
X176278619Y-112827618D02*
X176302428Y-112851428D01*
X176302428Y-112851428D02*
X176373857Y-112899047D01*
X176373857Y-112899047D02*
X176469095Y-112922856D01*
X176469095Y-112922856D02*
X176659571Y-112922856D01*
X176659571Y-112922856D02*
X176707190Y-112899047D01*
X176707190Y-112899047D02*
X176731000Y-112875237D01*
X176731000Y-112875237D02*
X176754809Y-112827618D01*
X176754809Y-112827618D02*
X176754809Y-112732380D01*
X176754809Y-112732380D02*
X176731000Y-112684761D01*
X176731000Y-112684761D02*
X176707190Y-112660952D01*
X176707190Y-112660952D02*
X176659571Y-112637142D01*
X176659571Y-112637142D02*
X176540523Y-112637142D01*
X176540523Y-112637142D02*
X176492904Y-112660952D01*
X176492904Y-112660952D02*
X176469095Y-112684761D01*
X176469095Y-112684761D02*
X176445285Y-112732380D01*
X176445285Y-112732380D02*
X176445285Y-112827618D01*
X176445285Y-112827618D02*
X176469095Y-112875237D01*
X176469095Y-112875237D02*
X176492904Y-112899047D01*
X176492904Y-112899047D02*
X176540523Y-112922856D01*
X190178571Y-119049190D02*
X190154762Y-119073000D01*
X190154762Y-119073000D02*
X190083333Y-119096809D01*
X190083333Y-119096809D02*
X190035714Y-119096809D01*
X190035714Y-119096809D02*
X189964286Y-119073000D01*
X189964286Y-119073000D02*
X189916667Y-119025380D01*
X189916667Y-119025380D02*
X189892857Y-118977761D01*
X189892857Y-118977761D02*
X189869048Y-118882523D01*
X189869048Y-118882523D02*
X189869048Y-118811095D01*
X189869048Y-118811095D02*
X189892857Y-118715857D01*
X189892857Y-118715857D02*
X189916667Y-118668238D01*
X189916667Y-118668238D02*
X189964286Y-118620619D01*
X189964286Y-118620619D02*
X190035714Y-118596809D01*
X190035714Y-118596809D02*
X190083333Y-118596809D01*
X190083333Y-118596809D02*
X190154762Y-118620619D01*
X190154762Y-118620619D02*
X190178571Y-118644428D01*
X190654762Y-119096809D02*
X190369048Y-119096809D01*
X190511905Y-119096809D02*
X190511905Y-118596809D01*
X190511905Y-118596809D02*
X190464286Y-118668238D01*
X190464286Y-118668238D02*
X190416667Y-118715857D01*
X190416667Y-118715857D02*
X190369048Y-118739666D01*
X190845238Y-118644428D02*
X190869047Y-118620619D01*
X190869047Y-118620619D02*
X190916666Y-118596809D01*
X190916666Y-118596809D02*
X191035714Y-118596809D01*
X191035714Y-118596809D02*
X191083333Y-118620619D01*
X191083333Y-118620619D02*
X191107142Y-118644428D01*
X191107142Y-118644428D02*
X191130952Y-118692047D01*
X191130952Y-118692047D02*
X191130952Y-118739666D01*
X191130952Y-118739666D02*
X191107142Y-118811095D01*
X191107142Y-118811095D02*
X190821428Y-119096809D01*
X190821428Y-119096809D02*
X191130952Y-119096809D01*
X184327190Y-120971428D02*
X184351000Y-120995237D01*
X184351000Y-120995237D02*
X184374809Y-121066666D01*
X184374809Y-121066666D02*
X184374809Y-121114285D01*
X184374809Y-121114285D02*
X184351000Y-121185713D01*
X184351000Y-121185713D02*
X184303380Y-121233332D01*
X184303380Y-121233332D02*
X184255761Y-121257142D01*
X184255761Y-121257142D02*
X184160523Y-121280951D01*
X184160523Y-121280951D02*
X184089095Y-121280951D01*
X184089095Y-121280951D02*
X183993857Y-121257142D01*
X183993857Y-121257142D02*
X183946238Y-121233332D01*
X183946238Y-121233332D02*
X183898619Y-121185713D01*
X183898619Y-121185713D02*
X183874809Y-121114285D01*
X183874809Y-121114285D02*
X183874809Y-121066666D01*
X183874809Y-121066666D02*
X183898619Y-120995237D01*
X183898619Y-120995237D02*
X183922428Y-120971428D01*
X184374809Y-120495237D02*
X184374809Y-120780951D01*
X184374809Y-120638094D02*
X183874809Y-120638094D01*
X183874809Y-120638094D02*
X183946238Y-120685713D01*
X183946238Y-120685713D02*
X183993857Y-120733332D01*
X183993857Y-120733332D02*
X184017666Y-120780951D01*
X183874809Y-120185714D02*
X183874809Y-120138095D01*
X183874809Y-120138095D02*
X183898619Y-120090476D01*
X183898619Y-120090476D02*
X183922428Y-120066666D01*
X183922428Y-120066666D02*
X183970047Y-120042857D01*
X183970047Y-120042857D02*
X184065285Y-120019047D01*
X184065285Y-120019047D02*
X184184333Y-120019047D01*
X184184333Y-120019047D02*
X184279571Y-120042857D01*
X184279571Y-120042857D02*
X184327190Y-120066666D01*
X184327190Y-120066666D02*
X184351000Y-120090476D01*
X184351000Y-120090476D02*
X184374809Y-120138095D01*
X184374809Y-120138095D02*
X184374809Y-120185714D01*
X184374809Y-120185714D02*
X184351000Y-120233333D01*
X184351000Y-120233333D02*
X184327190Y-120257142D01*
X184327190Y-120257142D02*
X184279571Y-120280952D01*
X184279571Y-120280952D02*
X184184333Y-120304761D01*
X184184333Y-120304761D02*
X184065285Y-120304761D01*
X184065285Y-120304761D02*
X183970047Y-120280952D01*
X183970047Y-120280952D02*
X183922428Y-120257142D01*
X183922428Y-120257142D02*
X183898619Y-120233333D01*
X183898619Y-120233333D02*
X183874809Y-120185714D01*
X161467190Y-120971428D02*
X161491000Y-120995237D01*
X161491000Y-120995237D02*
X161514809Y-121066666D01*
X161514809Y-121066666D02*
X161514809Y-121114285D01*
X161514809Y-121114285D02*
X161491000Y-121185713D01*
X161491000Y-121185713D02*
X161443380Y-121233332D01*
X161443380Y-121233332D02*
X161395761Y-121257142D01*
X161395761Y-121257142D02*
X161300523Y-121280951D01*
X161300523Y-121280951D02*
X161229095Y-121280951D01*
X161229095Y-121280951D02*
X161133857Y-121257142D01*
X161133857Y-121257142D02*
X161086238Y-121233332D01*
X161086238Y-121233332D02*
X161038619Y-121185713D01*
X161038619Y-121185713D02*
X161014809Y-121114285D01*
X161014809Y-121114285D02*
X161014809Y-121066666D01*
X161014809Y-121066666D02*
X161038619Y-120995237D01*
X161038619Y-120995237D02*
X161062428Y-120971428D01*
X161062428Y-120780951D02*
X161038619Y-120757142D01*
X161038619Y-120757142D02*
X161014809Y-120709523D01*
X161014809Y-120709523D02*
X161014809Y-120590475D01*
X161014809Y-120590475D02*
X161038619Y-120542856D01*
X161038619Y-120542856D02*
X161062428Y-120519047D01*
X161062428Y-120519047D02*
X161110047Y-120495237D01*
X161110047Y-120495237D02*
X161157666Y-120495237D01*
X161157666Y-120495237D02*
X161229095Y-120519047D01*
X161229095Y-120519047D02*
X161514809Y-120804761D01*
X161514809Y-120804761D02*
X161514809Y-120495237D01*
X161514809Y-120257142D02*
X161514809Y-120161904D01*
X161514809Y-120161904D02*
X161491000Y-120114285D01*
X161491000Y-120114285D02*
X161467190Y-120090476D01*
X161467190Y-120090476D02*
X161395761Y-120042857D01*
X161395761Y-120042857D02*
X161300523Y-120019047D01*
X161300523Y-120019047D02*
X161110047Y-120019047D01*
X161110047Y-120019047D02*
X161062428Y-120042857D01*
X161062428Y-120042857D02*
X161038619Y-120066666D01*
X161038619Y-120066666D02*
X161014809Y-120114285D01*
X161014809Y-120114285D02*
X161014809Y-120209523D01*
X161014809Y-120209523D02*
X161038619Y-120257142D01*
X161038619Y-120257142D02*
X161062428Y-120280952D01*
X161062428Y-120280952D02*
X161110047Y-120304761D01*
X161110047Y-120304761D02*
X161229095Y-120304761D01*
X161229095Y-120304761D02*
X161276714Y-120280952D01*
X161276714Y-120280952D02*
X161300523Y-120257142D01*
X161300523Y-120257142D02*
X161324333Y-120209523D01*
X161324333Y-120209523D02*
X161324333Y-120114285D01*
X161324333Y-120114285D02*
X161300523Y-120066666D01*
X161300523Y-120066666D02*
X161276714Y-120042857D01*
X161276714Y-120042857D02*
X161229095Y-120019047D01*
X174167190Y-113113333D02*
X174191000Y-113137142D01*
X174191000Y-113137142D02*
X174214809Y-113208571D01*
X174214809Y-113208571D02*
X174214809Y-113256190D01*
X174214809Y-113256190D02*
X174191000Y-113327618D01*
X174191000Y-113327618D02*
X174143380Y-113375237D01*
X174143380Y-113375237D02*
X174095761Y-113399047D01*
X174095761Y-113399047D02*
X174000523Y-113422856D01*
X174000523Y-113422856D02*
X173929095Y-113422856D01*
X173929095Y-113422856D02*
X173833857Y-113399047D01*
X173833857Y-113399047D02*
X173786238Y-113375237D01*
X173786238Y-113375237D02*
X173738619Y-113327618D01*
X173738619Y-113327618D02*
X173714809Y-113256190D01*
X173714809Y-113256190D02*
X173714809Y-113208571D01*
X173714809Y-113208571D02*
X173738619Y-113137142D01*
X173738619Y-113137142D02*
X173762428Y-113113333D01*
X173881476Y-112684761D02*
X174214809Y-112684761D01*
X173691000Y-112803809D02*
X174048142Y-112922856D01*
X174048142Y-112922856D02*
X174048142Y-112613333D01*
D11*
%TO.C,C7*%
X164590000Y-130256233D02*
X164590000Y-130548767D01*
X165610000Y-130256233D02*
X165610000Y-130548767D01*
%TO.C,C8*%
X162050000Y-130256233D02*
X162050000Y-130548767D01*
X163070000Y-130256233D02*
X163070000Y-130548767D01*
%TO.C,R4*%
X160542500Y-130657224D02*
X160542500Y-130147776D01*
X159497500Y-130657224D02*
X159497500Y-130147776D01*
%TO.C,R3*%
X167117500Y-130147776D02*
X167117500Y-130657224D01*
X168162500Y-130147776D02*
X168162500Y-130657224D01*
%TO.C,R8*%
X169657500Y-130147776D02*
X169657500Y-130657224D01*
X170702500Y-130147776D02*
X170702500Y-130657224D01*
%TO.C,C1*%
X177290000Y-130256233D02*
X177290000Y-130548767D01*
X178310000Y-130256233D02*
X178310000Y-130548767D01*
%TO.C,R1*%
X179817500Y-130147776D02*
X179817500Y-130657224D01*
X180862500Y-130147776D02*
X180862500Y-130657224D01*
%TO.C,R5*%
X173242500Y-130657224D02*
X173242500Y-130147776D01*
X172197500Y-130657224D02*
X172197500Y-130147776D01*
%TO.C,C9*%
X174750000Y-130256233D02*
X174750000Y-130548767D01*
X175770000Y-130256233D02*
X175770000Y-130548767D01*
%TO.C,C21*%
X187450000Y-130256233D02*
X187450000Y-130548767D01*
X188470000Y-130256233D02*
X188470000Y-130548767D01*
%TO.C,C23*%
X182370000Y-130256233D02*
X182370000Y-130548767D01*
X183390000Y-130256233D02*
X183390000Y-130548767D01*
%TO.C,C22*%
X184910000Y-130256233D02*
X184910000Y-130548767D01*
X185930000Y-130256233D02*
X185930000Y-130548767D01*
%TO.C,Q1*%
X185552500Y-127162500D02*
X185072500Y-127162500D01*
X185312500Y-126832500D01*
X185552500Y-127162500D01*
G36*
X185552500Y-127162500D02*
G01*
X185072500Y-127162500D01*
X185312500Y-126832500D01*
X185552500Y-127162500D01*
G37*
X184150000Y-123762500D02*
X183500000Y-123762500D01*
X184150000Y-123762500D02*
X184800000Y-123762500D01*
X184150000Y-126882500D02*
X183500000Y-126882500D01*
X184150000Y-126882500D02*
X184800000Y-126882500D01*
%TO.C,R7*%
X187437500Y-125067776D02*
X187437500Y-125577224D01*
X188482500Y-125067776D02*
X188482500Y-125577224D01*
%TO.C,C2*%
X164590000Y-124606267D02*
X164590000Y-124313733D01*
X165610000Y-124606267D02*
X165610000Y-124313733D01*
%TO.C,C26*%
X154430000Y-113176267D02*
X154430000Y-112883733D01*
X155450000Y-113176267D02*
X155450000Y-112883733D01*
%TO.C,TP2*%
X199960000Y-108520000D02*
X201360000Y-108520000D01*
X199960000Y-109920000D02*
X199960000Y-108520000D01*
X201360000Y-108520000D02*
X201360000Y-109920000D01*
X201360000Y-109920000D02*
X199960000Y-109920000D01*
%TO.C,C24*%
X155450000Y-120503733D02*
X155450000Y-120796267D01*
X154430000Y-120503733D02*
X154430000Y-120796267D01*
%TO.C,C20*%
X165610000Y-120503733D02*
X165610000Y-120796267D01*
X164590000Y-120503733D02*
X164590000Y-120796267D01*
%TO.C,C32*%
X154430000Y-124606267D02*
X154430000Y-124313733D01*
X155450000Y-124606267D02*
X155450000Y-124313733D01*
%TO.C,Y1*%
X188250000Y-118270000D02*
X192750000Y-118270000D01*
X192750000Y-118270000D02*
X192750000Y-112870000D01*
%TO.C,C18*%
X173230000Y-112883733D02*
X173230000Y-113176267D01*
X172210000Y-112883733D02*
X172210000Y-113176267D01*
%TO.C,R16*%
X198867500Y-130657224D02*
X198867500Y-130147776D01*
X199912500Y-130657224D02*
X199912500Y-130147776D01*
%TO.C,R2*%
X180862500Y-112775276D02*
X180862500Y-113284724D01*
X179817500Y-112775276D02*
X179817500Y-113284724D01*
%TO.C,C17*%
X190353733Y-110617500D02*
X190646267Y-110617500D01*
X190353733Y-111637500D02*
X190646267Y-111637500D01*
%TO.C,J4*%
X189182500Y-102810000D02*
X153562500Y-102810000D01*
X189182500Y-102810000D02*
X189182500Y-105470000D01*
X153562500Y-102810000D02*
X153562500Y-105470000D01*
X191782500Y-104140000D02*
X191782500Y-105470000D01*
X191782500Y-105470000D02*
X190452500Y-105470000D01*
X189182500Y-105470000D02*
X153562500Y-105470000D01*
%TO.C,TP5*%
X159320000Y-108520000D02*
X160720000Y-108520000D01*
X159320000Y-109920000D02*
X159320000Y-108520000D01*
X160720000Y-108520000D02*
X160720000Y-109920000D01*
X160720000Y-109920000D02*
X159320000Y-109920000D01*
%TO.C,J5*%
X163770000Y-133544000D02*
X163770000Y-136204000D01*
X199390000Y-133544000D02*
X163770000Y-133544000D01*
X199390000Y-133544000D02*
X199390000Y-136204000D01*
X199390000Y-136204000D02*
X163770000Y-136204000D01*
X201990000Y-134874000D02*
X201990000Y-136204000D01*
X201990000Y-136204000D02*
X200660000Y-136204000D01*
%TO.C,R12*%
X156957500Y-117094724D02*
X156957500Y-116585276D01*
X158002500Y-117094724D02*
X158002500Y-116585276D01*
%TO.C,C27*%
X159510000Y-113176267D02*
X159510000Y-112883733D01*
X160530000Y-113176267D02*
X160530000Y-112883733D01*
%TO.C,R11*%
X163082500Y-124205276D02*
X163082500Y-124714724D01*
X162037500Y-124205276D02*
X162037500Y-124714724D01*
%TO.C,C30*%
X156970000Y-113176267D02*
X156970000Y-112883733D01*
X157990000Y-113176267D02*
X157990000Y-112883733D01*
%TO.C,C16*%
X170690000Y-112883733D02*
X170690000Y-113176267D01*
X169670000Y-112883733D02*
X169670000Y-113176267D01*
%TO.C,C31*%
X162050000Y-113176267D02*
X162050000Y-112883733D01*
X163070000Y-113176267D02*
X163070000Y-112883733D01*
%TO.C,C28*%
X157990000Y-120503733D02*
X157990000Y-120796267D01*
X156970000Y-120503733D02*
X156970000Y-120796267D01*
%TO.C,C13*%
X167130000Y-116986267D02*
X167130000Y-116693733D01*
X168150000Y-116986267D02*
X168150000Y-116693733D01*
%TO.C,TP3*%
X156780000Y-108520000D02*
X158180000Y-108520000D01*
X156780000Y-109920000D02*
X156780000Y-108520000D01*
X158180000Y-108520000D02*
X158180000Y-109920000D01*
X158180000Y-109920000D02*
X156780000Y-109920000D01*
%TO.C,C25*%
X160530000Y-120503733D02*
X160530000Y-120796267D01*
X159510000Y-120503733D02*
X159510000Y-120796267D01*
%TO.C,J3*%
X153560000Y-136000000D02*
X153560000Y-134620000D01*
X154940000Y-136000000D02*
X153560000Y-136000000D01*
X156210000Y-136000000D02*
X161400000Y-136000000D01*
X156210000Y-136000000D02*
X156210000Y-133240000D01*
X161400000Y-136000000D02*
X161400000Y-133240000D01*
X156210000Y-133240000D02*
X161400000Y-133240000D01*
%TO.C,U2*%
X199410000Y-122782500D02*
X199410000Y-120832500D01*
X199410000Y-122782500D02*
X199410000Y-124732500D01*
X194290000Y-122782500D02*
X194290000Y-120832500D01*
X194290000Y-122782500D02*
X194290000Y-124732500D01*
X199645000Y-120322500D02*
X199315000Y-120082500D01*
X199645000Y-119842500D01*
X199645000Y-120322500D01*
G36*
X199645000Y-120322500D02*
G01*
X199315000Y-120082500D01*
X199645000Y-119842500D01*
X199645000Y-120322500D01*
G37*
%TO.C,TP6*%
X164400000Y-108520000D02*
X165800000Y-108520000D01*
X164400000Y-109920000D02*
X164400000Y-108520000D01*
X165800000Y-108520000D02*
X165800000Y-109920000D01*
X165800000Y-109920000D02*
X164400000Y-109920000D01*
%TO.C,C19*%
X168150000Y-120503733D02*
X168150000Y-120796267D01*
X167130000Y-120503733D02*
X167130000Y-120796267D01*
%TO.C,C33*%
X201420000Y-122928767D02*
X201420000Y-122636233D01*
X202440000Y-122928767D02*
X202440000Y-122636233D01*
%TO.C,R13*%
X162037500Y-117094724D02*
X162037500Y-116585276D01*
X163082500Y-117094724D02*
X163082500Y-116585276D01*
%TO.C,C5*%
X165610000Y-112883733D02*
X165610000Y-113176267D01*
X164590000Y-112883733D02*
X164590000Y-113176267D01*
%TO.C,U1*%
X171650000Y-117548000D02*
X172100000Y-117548000D01*
X171650000Y-117998000D02*
X171650000Y-117548000D01*
X171650000Y-124318000D02*
X171650000Y-124768000D01*
X171650000Y-124768000D02*
X172100000Y-124768000D01*
X178870000Y-117548000D02*
X178420000Y-117548000D01*
X178870000Y-117998000D02*
X178870000Y-117548000D01*
X178870000Y-124318000D02*
X178870000Y-124768000D01*
X178870000Y-124768000D02*
X178420000Y-124768000D01*
X172100000Y-125358000D02*
X171630000Y-125698000D01*
X171630000Y-125018000D01*
X172100000Y-125358000D01*
G36*
X172100000Y-125358000D02*
G01*
X171630000Y-125698000D01*
X171630000Y-125018000D01*
X172100000Y-125358000D01*
G37*
%TO.C,C11*%
X168150000Y-112883733D02*
X168150000Y-113176267D01*
X167130000Y-112883733D02*
X167130000Y-113176267D01*
%TO.C,TP1*%
X197420000Y-108520000D02*
X198820000Y-108520000D01*
X197420000Y-109920000D02*
X197420000Y-108520000D01*
X198820000Y-108520000D02*
X198820000Y-109920000D01*
X198820000Y-109920000D02*
X197420000Y-109920000D01*
%TO.C,R10*%
X159497500Y-117094724D02*
X159497500Y-116585276D01*
X160542500Y-117094724D02*
X160542500Y-116585276D01*
%TO.C,R9*%
X154417500Y-117094724D02*
X154417500Y-116585276D01*
X155462500Y-117094724D02*
X155462500Y-116585276D01*
%TO.C,C15*%
X182370000Y-120796267D02*
X182370000Y-120503733D01*
X183390000Y-120796267D02*
X183390000Y-120503733D01*
%TO.C,R6*%
X184897500Y-115824724D02*
X184897500Y-115315276D01*
X185942500Y-115824724D02*
X185942500Y-115315276D01*
%TO.C,R15*%
X196327500Y-130657224D02*
X196327500Y-130147776D01*
X197372500Y-130657224D02*
X197372500Y-130147776D01*
%TO.C,C3*%
X167130000Y-124606267D02*
X167130000Y-124313733D01*
X168150000Y-124606267D02*
X168150000Y-124313733D01*
%TO.C,J2*%
X199390000Y-105470000D02*
X201990000Y-105470000D01*
X199390000Y-105470000D02*
X199390000Y-102810000D01*
X201990000Y-105470000D02*
X201990000Y-102810000D01*
X196790000Y-104140000D02*
X196790000Y-102810000D01*
X196790000Y-102810000D02*
X198120000Y-102810000D01*
X199390000Y-102810000D02*
X201990000Y-102810000D01*
%TO.C,C14*%
X164590000Y-116986267D02*
X164590000Y-116693733D01*
X165610000Y-116986267D02*
X165610000Y-116693733D01*
%TO.C,TP4*%
X161860000Y-108520000D02*
X163260000Y-108520000D01*
X161860000Y-109920000D02*
X161860000Y-108520000D01*
X163260000Y-108520000D02*
X163260000Y-109920000D01*
X163260000Y-109920000D02*
X161860000Y-109920000D01*
%TO.C,R14*%
X193787500Y-130657224D02*
X193787500Y-130147776D01*
X194832500Y-130657224D02*
X194832500Y-130147776D01*
%TO.C,C6*%
X177290000Y-113176267D02*
X177290000Y-112883733D01*
X178310000Y-113176267D02*
X178310000Y-112883733D01*
%TO.C,C12*%
X190353733Y-119507500D02*
X190646267Y-119507500D01*
X190353733Y-120527500D02*
X190646267Y-120527500D01*
%TO.C,C10*%
X184910000Y-120796267D02*
X184910000Y-120503733D01*
X185930000Y-120796267D02*
X185930000Y-120503733D01*
%TO.C,C29*%
X163070000Y-120503733D02*
X163070000Y-120796267D01*
X162050000Y-120503733D02*
X162050000Y-120796267D01*
%TO.C,C4*%
X174750000Y-113176267D02*
X174750000Y-112883733D01*
X175770000Y-113176267D02*
X175770000Y-112883733D01*
%TD*%
M02*
