M48
; DRILL file {KiCad 9.0.1} date 2025-05-22T01:20:02+0100
; FORMAT={-:-/ absolute / inch / decimal}
; #@! TF.CreationDate,2025-05-22T01:20:02+01:00
; #@! TF.GenerationSoftware,Kicad,Pcbnew,9.0.1
; #@! TF.FileFunction,Plated,1,2,PTH
FMAT,2
INCH
; #@! TA.AperFunction,Plated,PTH,ViaDrill
T1C0.0118
; #@! TA.AperFunction,Plated,PTH,ComponentDrill
T2C0.0197
; #@! TA.AperFunction,Plated,PTH,ComponentDrill
T3C0.0394
%
G90
G05
T1
X6.0Y-4.05
X6.0Y-4.1
X6.0Y-4.15
X6.0Y-4.2
X6.0Y-4.25
X6.0Y-4.3
X6.0Y-4.35
X6.0Y-4.4
X6.0Y-4.45
X6.0Y-4.5
X6.0Y-4.55
X6.0Y-4.6
X6.0Y-4.65
X6.0Y-4.7
X6.0Y-4.75
X6.0Y-4.8
X6.0Y-4.85
X6.0Y-4.9
X6.0Y-4.95
X6.0Y-5.0
X6.0Y-5.05
X6.0Y-5.1
X6.0Y-5.15
X6.0Y-5.2
X6.0Y-5.25
X6.0Y-5.3
X6.0Y-5.35
X6.05Y-4.2
X6.05Y-4.25
X6.05Y-4.3
X6.05Y-4.35
X6.05Y-4.5
X6.05Y-4.55
X6.05Y-4.65
X6.05Y-4.7
X6.05Y-4.8
X6.05Y-4.934
X6.05Y-5.0
X6.05Y-5.05
X6.05Y-5.1
X6.05Y-5.15
X6.05Y-5.2
X6.1Y-4.2
X6.1Y-4.25
X6.1Y-4.3
X6.1Y-4.36
X6.1Y-5.05
X6.1Y-5.1
X6.1Y-5.15
X6.12Y-4.99
X6.15Y-4.2
X6.15Y-4.83
X6.15Y-5.05
X6.15Y-5.1
X6.15Y-5.15
X6.2Y-4.36
X6.2Y-4.83
X6.2Y-4.95
X6.2Y-5.05
X6.25Y-4.2
X6.25Y-4.95
X6.25Y-5.0
X6.3Y-4.36
X6.3Y-4.95
X6.3Y-5.05
X6.35Y-4.2
X6.35Y-5.05
X6.35Y-5.2
X6.38Y-4.9904
X6.4Y-4.36
X6.4Y-5.05
X6.4Y-5.25
X6.4Y-5.3
X6.4Y-5.35
X6.45Y-4.2
X6.45Y-4.634
X6.45Y-4.716
X6.45Y-4.934
X6.45Y-5.05
X6.45Y-5.1
X6.45Y-5.2
X6.5Y-4.36
X6.5Y-5.05
X6.55Y-4.2
X6.55Y-4.25
X6.55Y-4.3
X6.55Y-4.35
X6.55Y-4.634
X6.55Y-4.716
X6.55Y-4.934
X6.55Y-5.05
X6.6Y-4.2
X6.6Y-4.25
X6.6Y-4.3
X6.6Y-4.36
X6.6Y-5.05
X6.6417Y-4.8683
X6.65Y-4.2
X6.65Y-4.25
X6.65Y-4.3
X6.65Y-4.35
X6.65Y-4.55
X6.65Y-5.05
X6.65Y-5.2
X6.6668Y-4.835
X6.67Y-4.755
X6.7Y-4.2
X6.7Y-4.25
X6.7Y-4.3
X6.7Y-4.36
X6.7Y-4.55
X6.7Y-4.6
X6.7Y-5.22
X6.73Y-5.0
X6.735Y-4.93
X6.735Y-4.96
X6.75Y-4.2
X6.75Y-4.25
X6.75Y-4.3
X6.75Y-4.35
X6.75Y-4.55
X6.75Y-4.6
X6.75Y-5.2
X6.8Y-4.25
X6.8Y-4.3
X6.8Y-4.36
X6.8Y-5.05
X6.85Y-4.3
X6.85Y-4.35
X6.85Y-4.53
X6.85Y-5.05
X6.85Y-5.2
X6.89Y-5.0
X6.8988Y-4.5547
X6.9Y-4.8
X6.9Y-4.85
X6.9Y-5.05
X6.91Y-4.75
X6.9316Y-4.5436
X6.95Y-4.8
X6.95Y-4.85
X6.95Y-5.2
X6.96Y-5.0364
X6.9676Y-4.5406
X7.0Y-4.2
X7.0Y-4.25
X7.0Y-4.3
X7.0Y-4.7
X7.0Y-4.75
X7.0Y-4.85
X7.02Y-5.03
X7.05Y-4.57
X7.05Y-4.95
X7.05Y-5.2
X7.07Y-4.5436
X7.07Y-4.62
X7.0714Y-5.0042
X7.08Y-4.92
X7.095Y-4.98
X7.1Y-4.2
X7.1Y-4.25
X7.1Y-4.3
X7.1Y-4.35
X7.12Y-4.75
X7.14Y-4.61
X7.15Y-4.2
X7.15Y-4.25
X7.15Y-4.3
X7.15Y-4.35
X7.15Y-4.4
X7.15Y-4.45
X7.15Y-4.88
X7.15Y-4.95
X7.15Y-5.0
X7.15Y-5.05
X7.1717Y-4.6117
X7.1817Y-4.8783
X7.19Y-4.49
X7.2Y-4.66
X7.2Y-5.22
X7.2164Y-4.8796
X7.2273Y-4.8436
X7.25Y-4.2
X7.25Y-4.25
X7.25Y-4.3
X7.25Y-4.35
X7.25Y-4.4
X7.25Y-5.05
X7.3Y-4.66
X7.3Y-5.22
X7.35Y-4.2
X7.35Y-4.25
X7.35Y-4.3
X7.35Y-4.35
X7.35Y-4.4
X7.35Y-4.45
X7.35Y-4.85
X7.35Y-5.05
X7.35Y-5.2
X7.364Y-4.746
X7.38Y-4.8
X7.39Y-4.6071
X7.4Y-4.25
X7.4Y-4.3
X7.4Y-4.35
X7.4Y-4.4
X7.4Y-5.22
X7.41Y-4.7251
X7.45Y-4.2
X7.45Y-4.25
X7.45Y-4.3
X7.45Y-5.2
X7.4547Y-4.68
X7.5Y-4.25
X7.5Y-4.3
X7.5Y-4.9
X7.5Y-4.95
X7.5453Y-4.42
X7.55Y-4.2
X7.55Y-4.25
X7.55Y-4.3
X7.55Y-4.9
X7.55Y-4.95
X7.55Y-5.0
X7.55Y-5.2
X7.59Y-4.3751
X7.6Y-4.05
X7.6Y-4.15
X7.6Y-4.2
X7.6Y-4.25
X7.6Y-4.3
X7.6Y-4.7
X7.6Y-4.75
X7.6Y-4.9
X7.6Y-4.95
X7.6Y-5.0
X7.6Y-5.05
X7.61Y-4.49
X7.65Y-4.05
X7.65Y-4.15
X7.65Y-4.2
X7.65Y-4.25
X7.65Y-4.3
X7.65Y-4.35
X7.65Y-4.4
X7.65Y-4.45
X7.65Y-4.5
X7.65Y-4.55
X7.65Y-4.6
X7.65Y-4.65
X7.675Y-4.67
X7.7Y-4.05
X7.7Y-4.15
X7.7Y-4.2
X7.7Y-4.25
X7.7Y-4.3
X7.7Y-4.35
X7.7Y-4.4
X7.7Y-4.45
X7.7Y-4.5
X7.7Y-4.55
X7.7Y-4.6
X7.7Y-4.65
X7.7Y-5.2
X7.725Y-4.67
X7.75Y-4.4
X7.75Y-4.45
X7.75Y-4.5
X7.75Y-4.55
X7.75Y-4.6
X7.75Y-4.65
X7.775Y-4.67
X7.8Y-4.4
X7.8Y-4.45
X7.8Y-4.5
X7.8Y-4.55
X7.8Y-4.6
X7.8Y-4.65
X7.8Y-5.2
X7.825Y-4.67
X7.85Y-4.2
X7.85Y-4.45
X7.85Y-4.5
X7.85Y-4.55
X7.85Y-4.6
X7.85Y-4.65
X7.85Y-5.05
X7.9Y-4.2
X7.9Y-4.5
X7.9Y-4.55
X7.9Y-4.6
X7.9Y-4.65
X7.9Y-4.7
X7.9Y-4.75
X7.9Y-4.8
X7.95Y-4.2
X7.95Y-4.25
X7.95Y-4.3
X7.95Y-4.35
X7.95Y-4.4
X7.95Y-4.55
X7.95Y-4.6
X7.95Y-4.65
X7.95Y-4.7
X7.95Y-4.75
X7.95Y-4.95
X7.95Y-5.0
X7.95Y-5.05
X7.95Y-5.1
X7.95Y-5.15
X7.95Y-5.2
X8.0Y-4.05
X8.0Y-4.1
X8.0Y-4.15
X8.0Y-4.2
X8.0Y-4.25
X8.0Y-4.3
X8.0Y-4.35
X8.0Y-4.4
X8.0Y-4.45
X8.0Y-4.9
X8.0Y-4.95
X8.0Y-5.0
X8.0Y-5.05
X8.0Y-5.1
X8.0Y-5.15
X8.0Y-5.2
X8.0Y-5.25
X8.0Y-5.3
X8.0Y-5.35
T2
X6.2Y-4.3
X6.3Y-4.3
X6.4Y-4.3
X6.5Y-4.3
X7.8Y-4.3
X7.9Y-4.3
T3
X6.0981Y-4.1
X6.1Y-5.3
X6.1981Y-4.1
X6.2Y-5.3
X6.2981Y-4.1
X6.3Y-5.3
X6.3981Y-4.1
X6.4981Y-4.1
X6.5Y-5.31
X6.5981Y-4.1
X6.6Y-5.31
X6.6981Y-4.1
X6.7Y-5.31
X6.7981Y-4.1
X6.8Y-5.31
X6.8981Y-4.1
X6.9Y-5.31
X6.9981Y-4.1
X7.0Y-5.31
X7.0981Y-4.1
X7.1Y-5.31
X7.1981Y-4.1
X7.2Y-5.31
X7.2981Y-4.1
X7.3Y-5.31
X7.3981Y-4.1
X7.4Y-5.31
X7.4981Y-4.1
X7.5Y-5.31
X7.6Y-5.31
X7.7Y-5.31
X7.8Y-4.1
X7.8Y-5.31
X7.9Y-4.1
X7.9Y-5.31
M30
