%TF.GenerationSoftware,KiCad,Pcbnew,9.0.1*%
%TF.CreationDate,2025-05-22T01:20:04+01:00*%
%TF.ProjectId,ADAU1701-DSP,41444155-3137-4303-912d-4453502e6b69,rev?*%
%TF.SameCoordinates,Original*%
%TF.FileFunction,Paste,Top*%
%TF.FilePolarity,Positive*%
%FSLAX46Y46*%
G04 Gerber Fmt 4.6, Leading zero omitted, Abs format (unit mm)*
G04 Created by KiCad (PCBNEW 9.0.1) date 2025-05-22 01:20:04*
%MOMM*%
%LPD*%
G01*
G04 APERTURE LIST*
G04 Aperture macros list*
%AMRoundRect*
0 Rectangle with rounded corners*
0 $1 Rounding radius*
0 $2 $3 $4 $5 $6 $7 $8 $9 X,Y pos of 4 corners*
0 Add a 4 corners polygon primitive as box body*
4,1,4,$2,$3,$4,$5,$6,$7,$8,$9,$2,$3,0*
0 Add four circle primitives for the rounded corners*
1,1,$1+$1,$2,$3*
1,1,$1+$1,$4,$5*
1,1,$1+$1,$6,$7*
1,1,$1+$1,$8,$9*
0 Add four rect primitives between the rounded corners*
20,1,$1+$1,$2,$3,$4,$5,0*
20,1,$1+$1,$4,$5,$6,$7,0*
20,1,$1+$1,$6,$7,$8,$9,0*
20,1,$1+$1,$8,$9,$2,$3,0*%
G04 Aperture macros list end*
%ADD10RoundRect,0.237500X-0.237500X0.300000X-0.237500X-0.300000X0.237500X-0.300000X0.237500X0.300000X0*%
%ADD11RoundRect,0.237500X0.237500X-0.250000X0.237500X0.250000X-0.237500X0.250000X-0.237500X-0.250000X0*%
%ADD12RoundRect,0.237500X-0.237500X0.250000X-0.237500X-0.250000X0.237500X-0.250000X0.237500X0.250000X0*%
%ADD13RoundRect,0.150000X0.587500X0.150000X-0.587500X0.150000X-0.587500X-0.150000X0.587500X-0.150000X0*%
%ADD14RoundRect,0.237500X0.237500X-0.300000X0.237500X0.300000X-0.237500X0.300000X-0.237500X-0.300000X0*%
%ADD15R,1.800000X2.100000*%
%ADD16RoundRect,0.237500X-0.300000X-0.237500X0.300000X-0.237500X0.300000X0.237500X-0.300000X0.237500X0*%
%ADD17RoundRect,0.150000X-0.150000X0.825000X-0.150000X-0.825000X0.150000X-0.825000X0.150000X0.825000X0*%
%ADD18RoundRect,0.075000X0.075000X-0.662500X0.075000X0.662500X-0.075000X0.662500X-0.075000X-0.662500X0*%
%ADD19RoundRect,0.075000X0.662500X-0.075000X0.662500X0.075000X-0.662500X0.075000X-0.662500X-0.075000X0*%
%ADD20R,1.050000X0.650000*%
G04 APERTURE END LIST*
D10*
%TO.C,C7*%
X165100000Y-131265000D03*
X165100000Y-129540000D03*
%TD*%
%TO.C,C8*%
X162560000Y-131265000D03*
X162560000Y-129540000D03*
%TD*%
D11*
%TO.C,R4*%
X160020000Y-129490000D03*
X160020000Y-131315000D03*
%TD*%
D12*
%TO.C,R3*%
X167640000Y-131315000D03*
X167640000Y-129490000D03*
%TD*%
%TO.C,R8*%
X170180000Y-131315000D03*
X170180000Y-129490000D03*
%TD*%
D10*
%TO.C,C1*%
X177800000Y-131265000D03*
X177800000Y-129540000D03*
%TD*%
D12*
%TO.C,R1*%
X180340000Y-131315000D03*
X180340000Y-129490000D03*
%TD*%
D11*
%TO.C,R5*%
X172720000Y-129490000D03*
X172720000Y-131315000D03*
%TD*%
D10*
%TO.C,C9*%
X175260000Y-131265000D03*
X175260000Y-129540000D03*
%TD*%
%TO.C,C21*%
X187960000Y-131265000D03*
X187960000Y-129540000D03*
%TD*%
%TO.C,C23*%
X182880000Y-131265000D03*
X182880000Y-129540000D03*
%TD*%
%TO.C,C22*%
X185420000Y-131265000D03*
X185420000Y-129540000D03*
%TD*%
D13*
%TO.C,Q1*%
X183212500Y-125322500D03*
X185087500Y-124372500D03*
X185087500Y-126272500D03*
%TD*%
D12*
%TO.C,R7*%
X187960000Y-126235000D03*
X187960000Y-124410000D03*
%TD*%
D14*
%TO.C,C2*%
X165100000Y-125322500D03*
X165100000Y-123597500D03*
%TD*%
%TO.C,C26*%
X154940000Y-113892500D03*
X154940000Y-112167500D03*
%TD*%
D10*
%TO.C,C24*%
X154940000Y-119787500D03*
X154940000Y-121512500D03*
%TD*%
%TO.C,C20*%
X165100000Y-119787500D03*
X165100000Y-121512500D03*
%TD*%
D14*
%TO.C,C32*%
X154940000Y-125322500D03*
X154940000Y-123597500D03*
%TD*%
D15*
%TO.C,Y1*%
X191650000Y-117020000D03*
X191650000Y-114120000D03*
X189350000Y-114120000D03*
X189350000Y-117020000D03*
%TD*%
D10*
%TO.C,C18*%
X172720000Y-112167500D03*
X172720000Y-113892500D03*
%TD*%
D11*
%TO.C,R16*%
X199390000Y-131315000D03*
X199390000Y-129490000D03*
%TD*%
D12*
%TO.C,R2*%
X180340000Y-112117500D03*
X180340000Y-113942500D03*
%TD*%
D16*
%TO.C,C17*%
X189637500Y-111127500D03*
X191362500Y-111127500D03*
%TD*%
D11*
%TO.C,R12*%
X157480000Y-117752500D03*
X157480000Y-115927500D03*
%TD*%
D14*
%TO.C,C27*%
X160020000Y-113892500D03*
X160020000Y-112167500D03*
%TD*%
D12*
%TO.C,R11*%
X162560000Y-123547500D03*
X162560000Y-125372500D03*
%TD*%
D14*
%TO.C,C30*%
X157480000Y-113892500D03*
X157480000Y-112167500D03*
%TD*%
D10*
%TO.C,C16*%
X170180000Y-112167500D03*
X170180000Y-113892500D03*
%TD*%
D14*
%TO.C,C31*%
X162560000Y-113892500D03*
X162560000Y-112167500D03*
%TD*%
D10*
%TO.C,C28*%
X157480000Y-119787500D03*
X157480000Y-121512500D03*
%TD*%
D14*
%TO.C,C13*%
X167640000Y-117702500D03*
X167640000Y-115977500D03*
%TD*%
D10*
%TO.C,C25*%
X160020000Y-119787500D03*
X160020000Y-121512500D03*
%TD*%
D17*
%TO.C,U2*%
X198755000Y-120307500D03*
X197485000Y-120307500D03*
X196215000Y-120307500D03*
X194945000Y-120307500D03*
X194945000Y-125257500D03*
X196215000Y-125257500D03*
X197485000Y-125257500D03*
X198755000Y-125257500D03*
%TD*%
D10*
%TO.C,C19*%
X167640000Y-119787500D03*
X167640000Y-121512500D03*
%TD*%
D14*
%TO.C,C33*%
X201930000Y-123645000D03*
X201930000Y-121920000D03*
%TD*%
D11*
%TO.C,R13*%
X162560000Y-117752500D03*
X162560000Y-115927500D03*
%TD*%
D10*
%TO.C,C5*%
X165100000Y-112167500D03*
X165100000Y-113892500D03*
%TD*%
D18*
%TO.C,U1*%
X172510000Y-125320500D03*
X173010000Y-125320500D03*
X173510000Y-125320500D03*
X174010000Y-125320500D03*
X174510000Y-125320500D03*
X175010000Y-125320500D03*
X175510000Y-125320500D03*
X176010000Y-125320500D03*
X176510000Y-125320500D03*
X177010000Y-125320500D03*
X177510000Y-125320500D03*
X178010000Y-125320500D03*
D19*
X179422500Y-123908000D03*
X179422500Y-123408000D03*
X179422500Y-122908000D03*
X179422500Y-122408000D03*
X179422500Y-121908000D03*
X179422500Y-121408000D03*
X179422500Y-120908000D03*
X179422500Y-120408000D03*
X179422500Y-119908000D03*
X179422500Y-119408000D03*
X179422500Y-118908000D03*
X179422500Y-118408000D03*
D18*
X178010000Y-116995500D03*
X177510000Y-116995500D03*
X177010000Y-116995500D03*
X176510000Y-116995500D03*
X176010000Y-116995500D03*
X175510000Y-116995500D03*
X175010000Y-116995500D03*
X174510000Y-116995500D03*
X174010000Y-116995500D03*
X173510000Y-116995500D03*
X173010000Y-116995500D03*
X172510000Y-116995500D03*
D19*
X171097500Y-118408000D03*
X171097500Y-118908000D03*
X171097500Y-119408000D03*
X171097500Y-119908000D03*
X171097500Y-120408000D03*
X171097500Y-120908000D03*
X171097500Y-121408000D03*
X171097500Y-121908000D03*
X171097500Y-122408000D03*
X171097500Y-122908000D03*
X171097500Y-123408000D03*
X171097500Y-123908000D03*
%TD*%
D10*
%TO.C,C11*%
X167640000Y-112167500D03*
X167640000Y-113892500D03*
%TD*%
D11*
%TO.C,R10*%
X160020000Y-117752500D03*
X160020000Y-115927500D03*
%TD*%
%TO.C,R9*%
X154940000Y-117752500D03*
X154940000Y-115927500D03*
%TD*%
D14*
%TO.C,C15*%
X182880000Y-121512500D03*
X182880000Y-119787500D03*
%TD*%
D11*
%TO.C,R6*%
X185420000Y-116482500D03*
X185420000Y-114657500D03*
%TD*%
D20*
%TO.C,SW1*%
X156675000Y-124605000D03*
X160825000Y-124605000D03*
X156675000Y-126755000D03*
X160825000Y-126755000D03*
%TD*%
D11*
%TO.C,R15*%
X196850000Y-131315000D03*
X196850000Y-129490000D03*
%TD*%
D14*
%TO.C,C3*%
X167640000Y-125322500D03*
X167640000Y-123597500D03*
%TD*%
%TO.C,C14*%
X165100000Y-117702500D03*
X165100000Y-115977500D03*
%TD*%
D11*
%TO.C,R14*%
X194310000Y-131315000D03*
X194310000Y-129490000D03*
%TD*%
D14*
%TO.C,C6*%
X177800000Y-113892500D03*
X177800000Y-112167500D03*
%TD*%
D16*
%TO.C,C12*%
X189637500Y-120017500D03*
X191362500Y-120017500D03*
%TD*%
D14*
%TO.C,C10*%
X185420000Y-121512500D03*
X185420000Y-119787500D03*
%TD*%
D10*
%TO.C,C29*%
X162560000Y-119787500D03*
X162560000Y-121512500D03*
%TD*%
D14*
%TO.C,C4*%
X175260000Y-113892500D03*
X175260000Y-112167500D03*
%TD*%
M02*
