%TF.GenerationSoftware,KiCad,Pcbnew,9.0.1*%
%TF.CreationDate,2025-05-21T12:09:37+01:00*%
%TF.ProjectId,FSC-BT631D-Breakout,4653432d-4254-4363-9331-442d42726561,rev?*%
%TF.SameCoordinates,Original*%
%TF.FileFunction,Soldermask,Bot*%
%TF.FilePolarity,Negative*%
%FSLAX46Y46*%
G04 Gerber Fmt 4.6, Leading zero omitted, Abs format (unit mm)*
G04 Created by KiCad (PCBNEW 9.0.1) date 2025-05-21 12:09:37*
%MOMM*%
%LPD*%
G01*
G04 APERTURE LIST*
G04 Aperture macros list*
%AMRoundRect*
0 Rectangle with rounded corners*
0 $1 Rounding radius*
0 $2 $3 $4 $5 $6 $7 $8 $9 X,Y pos of 4 corners*
0 Add a 4 corners polygon primitive as box body*
4,1,4,$2,$3,$4,$5,$6,$7,$8,$9,$2,$3,0*
0 Add four circle primitives for the rounded corners*
1,1,$1+$1,$2,$3*
1,1,$1+$1,$4,$5*
1,1,$1+$1,$6,$7*
1,1,$1+$1,$8,$9*
0 Add four rect primitives between the rounded corners*
20,1,$1+$1,$2,$3,$4,$5,0*
20,1,$1+$1,$4,$5,$6,$7,0*
20,1,$1+$1,$6,$7,$8,$9,0*
20,1,$1+$1,$8,$9,$2,$3,0*%
G04 Aperture macros list end*
%ADD10R,1.000000X1.000000*%
%ADD11C,0.850000*%
%ADD12RoundRect,0.210000X0.490000X-0.790000X0.490000X0.790000X-0.490000X0.790000X-0.490000X-0.790000X0*%
%ADD13C,0.650000*%
%ADD14O,1.154000X2.254000*%
%ADD15O,1.154000X1.954000*%
%ADD16O,1.800000X1.100000*%
%ADD17O,1.250000X1.050000*%
%ADD18R,1.700000X1.700000*%
%ADD19C,1.700000*%
G04 APERTURE END LIST*
D10*
%TO.C,TP7*%
X147320000Y-86360000D03*
%TD*%
%TO.C,TP13*%
X129540000Y-95250000D03*
%TD*%
%TO.C,TP14*%
X129540000Y-100330000D03*
%TD*%
%TO.C,TP9*%
X142240000Y-86360000D03*
%TD*%
D11*
%TO.C,J4*%
X152400000Y-124180000D03*
X152400000Y-118180000D03*
D12*
X154800000Y-124180000D03*
X150000000Y-122180000D03*
X154800000Y-117180000D03*
%TD*%
D10*
%TO.C,TP12*%
X143764000Y-115316000D03*
%TD*%
D13*
%TO.C,J1*%
X101230000Y-120585000D03*
X107010000Y-120585000D03*
D14*
X99795000Y-120065000D03*
D15*
X99795000Y-124265000D03*
D14*
X108445000Y-120065000D03*
D15*
X108445000Y-124265000D03*
%TD*%
D16*
%TO.C,J5*%
X160155000Y-89985000D03*
D17*
X157430000Y-88835000D03*
X157430000Y-83985000D03*
D16*
X160155000Y-82835000D03*
%TD*%
D10*
%TO.C,TP8*%
X144780000Y-86360000D03*
%TD*%
D18*
%TO.C,J6*%
X160045000Y-60990000D03*
D19*
X160045000Y-63530000D03*
X160045000Y-66070000D03*
X160045000Y-68610000D03*
X160045000Y-71150000D03*
%TD*%
D10*
%TO.C,TP1*%
X99040000Y-115570000D03*
%TD*%
D18*
%TO.C,J10*%
X93980000Y-66040000D03*
D19*
X93980000Y-68580000D03*
X93980000Y-71120000D03*
X93980000Y-73660000D03*
X93980000Y-76200000D03*
X93980000Y-78740000D03*
X93980000Y-81280000D03*
X93980000Y-83820000D03*
%TD*%
D10*
%TO.C,TP6*%
X113010000Y-81280000D03*
%TD*%
%TO.C,TP4*%
X115550000Y-96520000D03*
%TD*%
D11*
%TO.C,J3*%
X138430000Y-124180000D03*
X138430000Y-118180000D03*
D12*
X140830000Y-124180000D03*
X136030000Y-122180000D03*
X140830000Y-117180000D03*
%TD*%
D18*
%TO.C,J7*%
X140716000Y-55880000D03*
D19*
X143256000Y-55880000D03*
X145796000Y-55880000D03*
X148336000Y-55880000D03*
X150876000Y-55880000D03*
X153416000Y-55880000D03*
%TD*%
D10*
%TO.C,TP5*%
X102850000Y-81280000D03*
%TD*%
D18*
%TO.C,J8*%
X93980000Y-88900000D03*
D19*
X93980000Y-91440000D03*
X93980000Y-93980000D03*
X93980000Y-96520000D03*
%TD*%
D18*
%TO.C,J2*%
X106680000Y-81280000D03*
D19*
X109220000Y-81280000D03*
%TD*%
D10*
%TO.C,TP10*%
X146814000Y-115316000D03*
%TD*%
D18*
%TO.C,J9*%
X111252000Y-75692000D03*
D19*
X113792000Y-75692000D03*
%TD*%
D10*
%TO.C,TP11*%
X139700000Y-86360000D03*
%TD*%
M02*
