%TF.GenerationSoftware,KiCad,Pcbnew,9.0.1*%
%TF.CreationDate,2025-05-21T12:09:37+01:00*%
%TF.ProjectId,FSC-BT631D-Breakout,4653432d-4254-4363-9331-442d42726561,rev?*%
%TF.SameCoordinates,Original*%
%TF.FileFunction,Copper,L2,Bot*%
%TF.FilePolarity,Positive*%
%FSLAX46Y46*%
G04 Gerber Fmt 4.6, Leading zero omitted, Abs format (unit mm)*
G04 Created by KiCad (PCBNEW 9.0.1) date 2025-05-21 12:09:37*
%MOMM*%
%LPD*%
G01*
G04 APERTURE LIST*
G04 Aperture macros list*
%AMRoundRect*
0 Rectangle with rounded corners*
0 $1 Rounding radius*
0 $2 $3 $4 $5 $6 $7 $8 $9 X,Y pos of 4 corners*
0 Add a 4 corners polygon primitive as box body*
4,1,4,$2,$3,$4,$5,$6,$7,$8,$9,$2,$3,0*
0 Add four circle primitives for the rounded corners*
1,1,$1+$1,$2,$3*
1,1,$1+$1,$4,$5*
1,1,$1+$1,$6,$7*
1,1,$1+$1,$8,$9*
0 Add four rect primitives between the rounded corners*
20,1,$1+$1,$2,$3,$4,$5,0*
20,1,$1+$1,$4,$5,$6,$7,0*
20,1,$1+$1,$6,$7,$8,$9,0*
20,1,$1+$1,$8,$9,$2,$3,0*%
G04 Aperture macros list end*
%TA.AperFunction,ComponentPad*%
%ADD10R,1.000000X1.000000*%
%TD*%
%TA.AperFunction,ComponentPad*%
%ADD11RoundRect,0.210000X0.490000X-0.790000X0.490000X0.790000X-0.490000X0.790000X-0.490000X-0.790000X0*%
%TD*%
%TA.AperFunction,ComponentPad*%
%ADD12O,0.950000X2.050000*%
%TD*%
%TA.AperFunction,ComponentPad*%
%ADD13O,0.950000X1.750000*%
%TD*%
%TA.AperFunction,ComponentPad*%
%ADD14O,1.800000X1.100000*%
%TD*%
%TA.AperFunction,ComponentPad*%
%ADD15O,1.250000X1.050000*%
%TD*%
%TA.AperFunction,ComponentPad*%
%ADD16R,1.700000X1.700000*%
%TD*%
%TA.AperFunction,ComponentPad*%
%ADD17C,1.700000*%
%TD*%
%TA.AperFunction,HeatsinkPad*%
%ADD18C,0.500000*%
%TD*%
%TA.AperFunction,HeatsinkPad*%
%ADD19R,1.650000X2.380000*%
%TD*%
%TA.AperFunction,ViaPad*%
%ADD20C,0.600000*%
%TD*%
%TA.AperFunction,Conductor*%
%ADD21C,0.500000*%
%TD*%
%TA.AperFunction,Conductor*%
%ADD22C,0.200000*%
%TD*%
%TA.AperFunction,Conductor*%
%ADD23C,1.000000*%
%TD*%
G04 APERTURE END LIST*
D10*
%TO.P,TP7,1,1*%
%TO.N,P0.14{slash}I2S_BCLK*%
X147320000Y-86360000D03*
%TD*%
%TO.P,TP13,1,1*%
%TO.N,P1.03{slash}I2C_SCL*%
X129540000Y-95250000D03*
%TD*%
%TO.P,TP14,1,1*%
%TO.N,P1.02{slash}I2C_SDA*%
X129540000Y-100330000D03*
%TD*%
%TO.P,TP9,1,1*%
%TO.N,P0.15{slash}I2S_DOUT*%
X142240000Y-86360000D03*
%TD*%
D11*
%TO.P,J4,G*%
%TO.N,GND*%
X154800000Y-124180000D03*
%TO.P,J4,S*%
%TO.N,HPL*%
X150000000Y-122180000D03*
%TO.P,J4,T*%
%TO.N,HPR*%
X154800000Y-117180000D03*
%TD*%
D10*
%TO.P,TP12,1,1*%
%TO.N,Net-(IC1-LOL)*%
X143764000Y-115316000D03*
%TD*%
D12*
%TO.P,J1,S1,SHIELD*%
%TO.N,GND*%
X99795000Y-120065000D03*
D13*
X99795000Y-124265000D03*
D12*
X108445000Y-120065000D03*
D13*
X108445000Y-124265000D03*
%TD*%
D14*
%TO.P,J5,6,Shield*%
%TO.N,GND*%
X160155000Y-89985000D03*
D15*
X157430000Y-88835000D03*
X157430000Y-83985000D03*
D14*
X160155000Y-82835000D03*
%TD*%
D10*
%TO.P,TP8,1,1*%
%TO.N,P0.16{slash}I2S_WS*%
X144780000Y-86360000D03*
%TD*%
D16*
%TO.P,J6,1,Pin_1*%
%TO.N,VDD*%
X160045000Y-60990000D03*
D17*
%TO.P,J6,2,Pin_2*%
%TO.N,SWDIO*%
X160045000Y-63530000D03*
%TO.P,J6,3,Pin_3*%
%TO.N,SWDCLK*%
X160045000Y-66070000D03*
%TO.P,J6,4,Pin_4*%
%TO.N,RESET*%
X160045000Y-68610000D03*
%TO.P,J6,5,Pin_5*%
%TO.N,GND*%
X160045000Y-71150000D03*
%TD*%
D10*
%TO.P,TP1,1,1*%
%TO.N,VBUS*%
X99040000Y-115570000D03*
%TD*%
D16*
%TO.P,J10,1,Pin_1*%
%TO.N,P0.27*%
X93980000Y-66040000D03*
D17*
%TO.P,J10,2,Pin_2*%
%TO.N,P0.26*%
X93980000Y-68580000D03*
%TO.P,J10,3,Pin_3*%
%TO.N,P0.25*%
X93980000Y-71120000D03*
%TO.P,J10,4,Pin_4*%
%TO.N,P0.24*%
X93980000Y-73660000D03*
%TO.P,J10,5,Pin_5*%
%TO.N,P0.23*%
X93980000Y-76200000D03*
%TO.P,J10,6,Pin_6*%
%TO.N,P0.07*%
X93980000Y-78740000D03*
%TO.P,J10,7,Pin_7*%
%TO.N,P0.06*%
X93980000Y-81280000D03*
%TO.P,J10,8,Pin_8*%
%TO.N,P0.22*%
X93980000Y-83820000D03*
%TD*%
D10*
%TO.P,TP6,1,1*%
%TO.N,VDD*%
X113010000Y-81280000D03*
%TD*%
%TO.P,TP4,1,1*%
%TO.N,/power/VOUT*%
X115550000Y-96520000D03*
%TD*%
D11*
%TO.P,J3,G*%
%TO.N,GND*%
X140830000Y-124180000D03*
%TO.P,J3,S*%
%TO.N,Net-(J3-PadS)*%
X136030000Y-122180000D03*
%TO.P,J3,T*%
%TO.N,Net-(J3-PadT)*%
X140830000Y-117180000D03*
%TD*%
D16*
%TO.P,J7,1,Pin_1*%
%TO.N,VDD*%
X140716000Y-55880000D03*
D17*
%TO.P,J7,2,Pin_2*%
%TO.N,P1.10{slash}UART_CTS*%
X143256000Y-55880000D03*
%TO.P,J7,3,Pin_3*%
%TO.N,P1.08{slash}UART_RXD*%
X145796000Y-55880000D03*
%TO.P,J7,4,Pin_4*%
%TO.N,P1.09{slash}UART_TXD*%
X148336000Y-55880000D03*
%TO.P,J7,5,Pin_5*%
%TO.N,P1.1{slash}UART_RTS*%
X150876000Y-55880000D03*
%TO.P,J7,6,Pin_6*%
%TO.N,GND*%
X153416000Y-55880000D03*
%TD*%
D10*
%TO.P,TP5,1,1*%
%TO.N,+3.3V*%
X102850000Y-81280000D03*
%TD*%
D16*
%TO.P,J8,1,Pin_1*%
%TO.N,VDD*%
X93980000Y-88900000D03*
D17*
%TO.P,J8,2,Pin_2*%
%TO.N,P1.02{slash}I2C_SDA*%
X93980000Y-91440000D03*
%TO.P,J8,3,Pin_3*%
%TO.N,P1.03{slash}I2C_SCL*%
X93980000Y-93980000D03*
%TO.P,J8,4,Pin_4*%
%TO.N,GND*%
X93980000Y-96520000D03*
%TD*%
D16*
%TO.P,J2,1,Pin_1*%
%TO.N,+3.3V*%
X106680000Y-81280000D03*
D17*
%TO.P,J2,2,Pin_2*%
%TO.N,VDD*%
X109220000Y-81280000D03*
%TD*%
D18*
%TO.P,U1,11,GND*%
%TO.N,GND*%
X111165000Y-109550000D03*
X111165000Y-110490000D03*
X111165000Y-111430000D03*
D19*
X111740000Y-110490000D03*
D18*
X112315000Y-109550000D03*
X112315000Y-110490000D03*
X112315000Y-111430000D03*
%TD*%
D10*
%TO.P,TP10,1,1*%
%TO.N,Net-(IC1-LOR)*%
X146814000Y-115316000D03*
%TD*%
D16*
%TO.P,J9,1,Pin_1*%
%TO.N,P0.03{slash}NFC2*%
X111252000Y-75692000D03*
D17*
%TO.P,J9,2,Pin_2*%
%TO.N,P0.02{slash}NFC1*%
X113792000Y-75692000D03*
%TD*%
D10*
%TO.P,TP11,1,1*%
%TO.N,P0.13{slash}I2S_DIN*%
X139700000Y-86360000D03*
%TD*%
D20*
%TO.N,GND*%
X133604000Y-60198000D03*
X134366000Y-60198000D03*
X135128000Y-60198000D03*
X135890000Y-60198000D03*
X136652000Y-60198000D03*
X145000000Y-77500000D03*
X147447000Y-99187000D03*
X160000000Y-92500000D03*
X160274000Y-54356000D03*
X125000000Y-115000000D03*
X127500000Y-57500000D03*
X100000000Y-70000000D03*
X152500000Y-70000000D03*
X142500000Y-122500000D03*
X124460000Y-57404000D03*
X161290000Y-56642000D03*
X132080000Y-54356000D03*
X125000000Y-120000000D03*
X120000000Y-92500000D03*
X130000000Y-90000000D03*
X157500000Y-80000000D03*
X155000000Y-67500000D03*
X127500000Y-72500000D03*
X152500000Y-67500000D03*
X137500000Y-92500000D03*
X119106000Y-104140000D03*
X130000000Y-115000000D03*
X160000000Y-80000000D03*
X157500000Y-120000000D03*
X150000000Y-70000000D03*
X145288000Y-102616000D03*
X157500000Y-115000000D03*
X98552000Y-58928000D03*
X130000000Y-92500000D03*
X113010000Y-93980000D03*
X97790000Y-58928000D03*
X132842000Y-54356000D03*
X100000000Y-65000000D03*
X160000000Y-102500000D03*
X137500000Y-77500000D03*
X96754000Y-101600000D03*
X145000000Y-112500000D03*
X119106000Y-100330000D03*
X119634000Y-70104000D03*
X155702000Y-54356000D03*
X140000000Y-95000000D03*
X147500000Y-75000000D03*
X147500000Y-112500000D03*
X119126000Y-58928000D03*
X125222000Y-54356000D03*
X142500000Y-72500000D03*
X127500000Y-60000000D03*
X102500000Y-60000000D03*
X100838000Y-58928000D03*
X130000000Y-125000000D03*
X155000000Y-75000000D03*
X130000000Y-117500000D03*
X145000000Y-122500000D03*
X127500000Y-122500000D03*
X130000000Y-107500000D03*
X132500000Y-75000000D03*
X160000000Y-122500000D03*
X115313000Y-58928000D03*
X125222000Y-57404000D03*
X96754000Y-111760000D03*
X119885000Y-58928000D03*
X105410000Y-58928000D03*
X160000000Y-112500000D03*
X143002000Y-107950000D03*
X115550000Y-93980000D03*
X116820000Y-87235000D03*
X143764000Y-98806000D03*
X130000000Y-105000000D03*
X157500000Y-112500000D03*
X155000000Y-107500000D03*
X125000000Y-105000000D03*
X135000000Y-67500000D03*
X135000000Y-77500000D03*
X117500000Y-95000000D03*
X155702000Y-105410000D03*
X145000000Y-72500000D03*
X120000000Y-95000000D03*
X152500000Y-90000000D03*
X125000000Y-70000000D03*
X137414000Y-54356000D03*
X152500000Y-80000000D03*
X160000000Y-115000000D03*
X97500000Y-65000000D03*
X122500000Y-92500000D03*
X97028000Y-58928000D03*
X127500000Y-75000000D03*
X125000000Y-125000000D03*
X142500000Y-125000000D03*
X157500000Y-72500000D03*
X145000000Y-80000000D03*
X160000000Y-100000000D03*
X132500000Y-80000000D03*
X132500000Y-125000000D03*
X130000000Y-87500000D03*
X157500000Y-67500000D03*
X137500000Y-67500000D03*
X125222000Y-55372000D03*
X100000000Y-60000000D03*
X160000000Y-77500000D03*
X125000000Y-122500000D03*
X104648000Y-58928000D03*
X146050000Y-100330000D03*
X122500000Y-87500000D03*
X110470000Y-93980000D03*
X116078000Y-58928000D03*
X161290000Y-55118000D03*
X131318000Y-54356000D03*
X112265000Y-58928000D03*
X97500000Y-72500000D03*
X143764000Y-102616000D03*
X127500000Y-92500000D03*
X132500000Y-67500000D03*
X127500000Y-102500000D03*
X121392000Y-113030000D03*
X124460000Y-65024000D03*
X122500000Y-97500000D03*
X135000000Y-82500000D03*
X114554000Y-58928000D03*
X128677500Y-61468000D03*
X101580000Y-87235000D03*
X140000000Y-80000000D03*
X133604000Y-54356000D03*
X147500000Y-70000000D03*
X120905000Y-83312000D03*
X113789000Y-58928000D03*
X93218000Y-58928000D03*
X147500000Y-122500000D03*
X119106000Y-102870000D03*
X127500000Y-110000000D03*
X117602000Y-58928000D03*
X111740000Y-93980000D03*
X161290000Y-55880000D03*
X135128000Y-54356000D03*
X99802000Y-118110000D03*
X140000000Y-75000000D03*
X122500000Y-70000000D03*
X127500000Y-120000000D03*
X109200000Y-118110000D03*
X97500000Y-67500000D03*
X120000000Y-90000000D03*
X97500000Y-60000000D03*
X160000000Y-75000000D03*
X144526000Y-102616000D03*
X136652000Y-54356000D03*
X96754000Y-106680000D03*
X96754000Y-109220000D03*
X160000000Y-95000000D03*
X127500000Y-87500000D03*
X108438000Y-118110000D03*
X155000000Y-110000000D03*
X127500000Y-125000000D03*
X137414000Y-60198000D03*
X124460000Y-54356000D03*
X99314000Y-58928000D03*
X125000000Y-102500000D03*
X104628000Y-110490000D03*
X127508000Y-54356000D03*
X95000000Y-62500000D03*
X135000000Y-115000000D03*
X102362000Y-58928000D03*
X137500000Y-80000000D03*
X155702000Y-102870000D03*
X130000000Y-122500000D03*
X127500000Y-115000000D03*
X107670000Y-118110000D03*
X132500000Y-87500000D03*
X157500000Y-77500000D03*
X147500000Y-67500000D03*
X142500000Y-75000000D03*
X97500000Y-70000000D03*
X160000000Y-107500000D03*
X160000000Y-105000000D03*
X125000000Y-117500000D03*
X155000000Y-90000000D03*
X130556000Y-54356000D03*
X132500000Y-120000000D03*
X132500000Y-112500000D03*
X160000000Y-125000000D03*
X155702000Y-92710000D03*
X140000000Y-72500000D03*
X132500000Y-90000000D03*
X127500000Y-80000000D03*
X152500000Y-72500000D03*
X95504000Y-58928000D03*
X119106000Y-99060000D03*
X125000000Y-72500000D03*
X144780000Y-107442000D03*
X135000000Y-92500000D03*
X138176000Y-60198000D03*
X140000000Y-67500000D03*
X110470000Y-95250000D03*
X142500000Y-112500000D03*
X160000000Y-117500000D03*
X135000000Y-90000000D03*
X159512000Y-54356000D03*
X135000000Y-112500000D03*
X150000000Y-67500000D03*
X117500000Y-97500000D03*
X127500000Y-90000000D03*
X155000000Y-72500000D03*
X146812000Y-98810000D03*
X97500000Y-62500000D03*
X102500000Y-62500000D03*
X103886000Y-58928000D03*
X150000000Y-72500000D03*
X138176000Y-54356000D03*
X132500000Y-92500000D03*
X127500000Y-105000000D03*
X125000000Y-87500000D03*
X146050000Y-98810000D03*
X132500000Y-115000000D03*
X137500000Y-87500000D03*
X157500000Y-107500000D03*
X121392000Y-107950000D03*
X132500000Y-82500000D03*
X125984000Y-54356000D03*
X125984000Y-57404000D03*
X137500000Y-82500000D03*
X99040000Y-118110000D03*
X132500000Y-77500000D03*
X118361000Y-58928000D03*
X155702000Y-100270000D03*
X119106000Y-101600000D03*
X157500000Y-110000000D03*
X155702000Y-95250000D03*
X157500000Y-57500000D03*
X137500000Y-90000000D03*
X125222000Y-65024000D03*
X155000000Y-77500000D03*
X147320000Y-107442000D03*
X147500000Y-125000000D03*
X120650000Y-58928000D03*
X129032000Y-54356000D03*
X92710000Y-60452000D03*
X125000000Y-110000000D03*
X127500000Y-77500000D03*
X132500000Y-72500000D03*
X130000000Y-110000000D03*
X101600000Y-58928000D03*
X103124000Y-58928000D03*
X135000000Y-125000000D03*
X157226000Y-54356000D03*
X134366000Y-54356000D03*
X125984000Y-55372000D03*
X126746000Y-54356000D03*
X95000000Y-60000000D03*
X160000000Y-97500000D03*
X135890000Y-54356000D03*
X119634000Y-70866000D03*
X130000000Y-72500000D03*
X130000000Y-102500000D03*
X145000000Y-75000000D03*
X130000000Y-112500000D03*
X130000000Y-77500000D03*
X145000000Y-120000000D03*
X135000000Y-80000000D03*
X130000000Y-75000000D03*
X137500000Y-72500000D03*
X160000000Y-110000000D03*
X133858000Y-107950000D03*
X156464000Y-54356000D03*
X113030000Y-58928000D03*
X109200000Y-93980000D03*
X96266000Y-58928000D03*
X146070000Y-97790000D03*
X92710000Y-61214000D03*
X142500000Y-77500000D03*
X120000000Y-97500000D03*
X119106000Y-105410000D03*
X145000000Y-125000000D03*
X100000000Y-72500000D03*
X123600000Y-83312000D03*
X143764000Y-99568000D03*
X129794000Y-54356000D03*
X100000000Y-67500000D03*
X128677500Y-58928000D03*
X116837000Y-58928000D03*
X135000000Y-87500000D03*
X158750000Y-54356000D03*
X152500000Y-107500000D03*
X142500000Y-120000000D03*
X114280000Y-93980000D03*
X106172000Y-58928000D03*
X130000000Y-80000000D03*
X150000000Y-80000000D03*
X96754000Y-104140000D03*
X145000000Y-117500000D03*
X127500000Y-117500000D03*
X161036000Y-54356000D03*
X127500000Y-70000000D03*
X157988000Y-54356000D03*
X125000000Y-90000000D03*
X124460000Y-55372000D03*
X145000000Y-67500000D03*
X135000000Y-75000000D03*
X96754000Y-99060000D03*
X122500000Y-95000000D03*
X128270000Y-54356000D03*
X94742000Y-58928000D03*
X152500000Y-110000000D03*
X157500000Y-125000000D03*
X130000000Y-120000000D03*
X100570000Y-118110000D03*
X142500000Y-117500000D03*
X92710000Y-59690000D03*
X93980000Y-58928000D03*
X135000000Y-120000000D03*
X150000000Y-77500000D03*
X130000000Y-82500000D03*
X157500000Y-75000000D03*
X100076000Y-58928000D03*
X152500000Y-75000000D03*
X142500000Y-67500000D03*
X147500000Y-77500000D03*
X100000000Y-62500000D03*
X121412000Y-58928000D03*
X160000000Y-120000000D03*
%TO.N,+3.3V*%
X151638000Y-100270000D03*
X133858000Y-97790000D03*
X151130000Y-97282000D03*
X151638000Y-102870000D03*
X149860000Y-90678000D03*
X106914000Y-99060000D03*
X145542000Y-95412000D03*
X111994000Y-87884000D03*
X133858000Y-102870000D03*
X151638000Y-105410000D03*
X115570000Y-89154000D03*
%TO.N,/power/D+*%
X108985000Y-109815000D03*
X103441000Y-116586000D03*
%TO.N,/power/D-*%
X108985000Y-110665000D03*
X104291000Y-116586000D03*
%TO.N,/power/CC1*%
X102850000Y-118110000D03*
X105759782Y-117954689D03*
%TO.N,/power/VSET*%
X114788000Y-110590000D03*
X105032500Y-106680000D03*
%TO.N,P0.13{slash}I2S_DIN*%
X137414000Y-84558000D03*
%TO.N,P0.16{slash}I2S_WS*%
X137414000Y-83757997D03*
%TO.N,P1.03{slash}I2C_SCL*%
X118618000Y-86159000D03*
X107950000Y-70104000D03*
%TO.N,P1.02{slash}I2C_SDA*%
X118593737Y-86983266D03*
X108691715Y-75331185D03*
%TO.N,VDD*%
X118618000Y-70104000D03*
X106934000Y-66309000D03*
%TO.N,RESET*%
X131774364Y-68631636D03*
X128247669Y-68602331D03*
%TO.N,+5V*%
X132536364Y-69393636D03*
X130048000Y-69342000D03*
%TO.N,/module/USB_D-*%
X151139412Y-83883001D03*
X151130000Y-82633000D03*
%TO.N,Net-(U1-GATE)*%
X107676000Y-114300000D03*
X114788000Y-109390000D03*
%TD*%
D21*
%TO.N,+3.3V*%
X133858000Y-97790000D02*
X143164000Y-97790000D01*
X149860000Y-90678000D02*
X149860000Y-91094000D01*
D22*
X106914000Y-92964000D02*
X106914000Y-99060000D01*
D21*
X149860000Y-90678000D02*
X149860000Y-96012000D01*
X133858000Y-97790000D02*
X124206000Y-97790000D01*
X149860000Y-91094000D02*
X145542000Y-95412000D01*
X151638000Y-105410000D02*
X151638000Y-97790000D01*
X151638000Y-97790000D02*
X151130000Y-97282000D01*
D22*
X111994000Y-87884000D02*
X106914000Y-92964000D01*
D21*
X124206000Y-97790000D02*
X115570000Y-89154000D01*
X133858000Y-102870000D02*
X133858000Y-97790000D01*
X149860000Y-96012000D02*
X151130000Y-97282000D01*
X143164000Y-97790000D02*
X145542000Y-95412000D01*
D22*
%TO.N,/power/D+*%
X107070803Y-110014999D02*
X103640999Y-113444803D01*
X108785001Y-110014999D02*
X107070803Y-110014999D01*
X103640999Y-113444803D02*
X103640999Y-116386001D01*
X108985000Y-109815000D02*
X108785001Y-110014999D01*
X103640999Y-116386001D02*
X103441000Y-116586000D01*
%TO.N,/power/D-*%
X104091001Y-116386001D02*
X104291000Y-116586000D01*
X104091001Y-113631197D02*
X104091001Y-116386001D01*
X108785001Y-110465001D02*
X107257197Y-110465001D01*
X108985000Y-110665000D02*
X108785001Y-110465001D01*
X107257197Y-110465001D02*
X104091001Y-113631197D01*
%TO.N,/power/CC1*%
X105759782Y-117954689D02*
X103005311Y-117954689D01*
X103005311Y-117954689D02*
X102850000Y-118110000D01*
%TO.N,/power/VSET*%
X106302500Y-107950000D02*
X112148000Y-107950000D01*
X105032500Y-106680000D02*
X106302500Y-107950000D01*
X112148000Y-107950000D02*
X114788000Y-110590000D01*
%TO.N,P0.13{slash}I2S_DIN*%
X139216000Y-86360000D02*
X139700000Y-86360000D01*
X137414000Y-84558000D02*
X139216000Y-86360000D01*
%TO.N,P0.16{slash}I2S_WS*%
X142177997Y-83757997D02*
X144780000Y-86360000D01*
X137414000Y-83757997D02*
X142177997Y-83757997D01*
%TO.N,P1.03{slash}I2C_SCL*%
X112760000Y-79502000D02*
X118618000Y-85360000D01*
X107950000Y-70104000D02*
X107950000Y-75438000D01*
X112014000Y-79502000D02*
X112760000Y-79502000D01*
X118618000Y-85360000D02*
X118618000Y-86159000D01*
X107950000Y-75438000D02*
X112014000Y-79502000D01*
%TO.N,P1.02{slash}I2C_SDA*%
X119219000Y-85393900D02*
X118512550Y-84687450D01*
X118512550Y-84687450D02*
X113559550Y-79734450D01*
X119219000Y-86407943D02*
X119219000Y-85393900D01*
X108691715Y-75331185D02*
X112451980Y-79091450D01*
X112451980Y-79091450D02*
X112916550Y-79091450D01*
X118643677Y-86983266D02*
X119219000Y-86407943D01*
X113559550Y-79734450D02*
X112916550Y-79091450D01*
X118593737Y-86983266D02*
X118643677Y-86983266D01*
D23*
%TO.N,VDD*%
X114823000Y-66309000D02*
X118648000Y-62484000D01*
X114823000Y-66309000D02*
X118618000Y-70104000D01*
X93980000Y-87748000D02*
X93980000Y-88900000D01*
X141956000Y-60990000D02*
X140716000Y-62230000D01*
X108231000Y-79729000D02*
X101999000Y-79729000D01*
X160045000Y-60990000D02*
X141956000Y-60990000D01*
X106934000Y-75554786D02*
X109220000Y-77840786D01*
X109220000Y-80718000D02*
X108231000Y-79729000D01*
X109220000Y-77840786D02*
X109220000Y-81280000D01*
X140716000Y-62230000D02*
X140716000Y-55880000D01*
X109220000Y-81280000D02*
X109220000Y-80718000D01*
X106934000Y-66309000D02*
X114823000Y-66309000D01*
X106934000Y-66309000D02*
X106934000Y-75554786D01*
X118648000Y-62484000D02*
X140462000Y-62484000D01*
X101999000Y-79729000D02*
X93980000Y-87748000D01*
X140462000Y-62484000D02*
X140716000Y-62230000D01*
D22*
%TO.N,RESET*%
X128270000Y-68580000D02*
X131722728Y-68580000D01*
X128247669Y-68602331D02*
X128270000Y-68580000D01*
X131722728Y-68580000D02*
X131774364Y-68631636D01*
D21*
%TO.N,+5V*%
X130099636Y-69393636D02*
X130048000Y-69342000D01*
X132536364Y-69393636D02*
X130099636Y-69393636D01*
D22*
%TO.N,/module/USB_D-*%
X151130000Y-82633000D02*
X151130000Y-83873589D01*
X151130000Y-83873589D02*
X151139412Y-83883001D01*
%TO.N,Net-(U1-GATE)*%
X114788000Y-109390000D02*
X115389000Y-109991000D01*
X115389000Y-109991000D02*
X115389000Y-110838943D01*
X115389000Y-110838943D02*
X111927943Y-114300000D01*
X111927943Y-114300000D02*
X107676000Y-114300000D01*
%TD*%
%TA.AperFunction,Conductor*%
%TO.N,GND*%
G36*
X161791148Y-53854852D02*
G01*
X161805500Y-53889500D01*
X161805500Y-125732405D01*
X161791148Y-125767053D01*
X161756500Y-125781405D01*
X161756469Y-125781405D01*
X92243469Y-125737843D01*
X92208830Y-125723470D01*
X92194500Y-125688843D01*
X92194500Y-123793597D01*
X99070000Y-123793597D01*
X99070000Y-124015000D01*
X99470000Y-124015000D01*
X99470000Y-124515000D01*
X99070000Y-124515000D01*
X99070000Y-124736402D01*
X99097860Y-124876472D01*
X99097863Y-124876482D01*
X99152510Y-125008410D01*
X99231855Y-125127160D01*
X99332839Y-125228144D01*
X99451587Y-125307488D01*
X99544999Y-125346181D01*
X99545000Y-125346181D01*
X99545000Y-124887368D01*
X99595446Y-124937814D01*
X99669555Y-124980601D01*
X99752213Y-125002750D01*
X99837787Y-125002750D01*
X99920445Y-124980601D01*
X99994554Y-124937814D01*
X100045000Y-124887368D01*
X100045000Y-125346181D01*
X100138412Y-125307488D01*
X100257160Y-125228144D01*
X100358144Y-125127160D01*
X100437489Y-125008410D01*
X100492136Y-124876482D01*
X100492139Y-124876472D01*
X100520000Y-124736402D01*
X100520000Y-124515000D01*
X100120000Y-124515000D01*
X100120000Y-124015000D01*
X100520000Y-124015000D01*
X100520000Y-123793597D01*
X107720000Y-123793597D01*
X107720000Y-124015000D01*
X108120000Y-124015000D01*
X108120000Y-124515000D01*
X107720000Y-124515000D01*
X107720000Y-124736402D01*
X107747860Y-124876472D01*
X107747863Y-124876482D01*
X107802510Y-125008410D01*
X107881855Y-125127160D01*
X107982839Y-125228144D01*
X108101587Y-125307488D01*
X108194999Y-125346181D01*
X108195000Y-125346181D01*
X108195000Y-124887368D01*
X108245446Y-124937814D01*
X108319555Y-124980601D01*
X108402213Y-125002750D01*
X108487787Y-125002750D01*
X108570445Y-124980601D01*
X108644554Y-124937814D01*
X108695000Y-124887368D01*
X108695000Y-125346181D01*
X108788412Y-125307488D01*
X108856212Y-125262187D01*
X108907160Y-125228144D01*
X109008144Y-125127160D01*
X109087489Y-125008410D01*
X109142136Y-124876482D01*
X109142139Y-124876472D01*
X109170000Y-124736402D01*
X109170000Y-124515000D01*
X108770000Y-124515000D01*
X108770000Y-124113465D01*
X137754500Y-124113465D01*
X137754500Y-124246534D01*
X137780457Y-124377028D01*
X137780459Y-124377035D01*
X137831378Y-124499965D01*
X137831380Y-124499969D01*
X137905305Y-124610606D01*
X137999394Y-124704695D01*
X138110031Y-124778620D01*
X138113363Y-124780000D01*
X138232964Y-124829540D01*
X138232971Y-124829542D01*
X138330624Y-124848966D01*
X138363469Y-124855500D01*
X138496531Y-124855500D01*
X138561346Y-124842606D01*
X138627028Y-124829542D01*
X138627032Y-124829540D01*
X138627036Y-124829540D01*
X138749969Y-124778620D01*
X138753221Y-124776447D01*
X139880000Y-124776447D01*
X140476448Y-124180000D01*
X139880000Y-123583552D01*
X139880000Y-124776447D01*
X138753221Y-124776447D01*
X138860606Y-124704695D01*
X138954695Y-124610606D01*
X139028620Y-124499969D01*
X139079540Y-124377036D01*
X139105500Y-124246531D01*
X139105500Y-124113469D01*
X139085913Y-124015000D01*
X139079542Y-123982971D01*
X139079540Y-123982964D01*
X139028621Y-123860034D01*
X139028620Y-123860031D01*
X138954695Y-123749394D01*
X138860606Y-123655305D01*
X138857930Y-123653517D01*
X138778500Y-123600444D01*
X138749969Y-123581380D01*
X138749966Y-123581378D01*
X138749965Y-123581378D01*
X138627035Y-123530459D01*
X138627028Y-123530457D01*
X138496534Y-123504500D01*
X138496531Y-123504500D01*
X138363469Y-123504500D01*
X138363465Y-123504500D01*
X138232971Y-123530457D01*
X138232964Y-123530459D01*
X138110034Y-123581378D01*
X137999394Y-123655304D01*
X137905304Y-123749394D01*
X137831378Y-123860034D01*
X137780459Y-123982964D01*
X137780457Y-123982971D01*
X137754500Y-124113465D01*
X108770000Y-124113465D01*
X108770000Y-124015000D01*
X109170000Y-124015000D01*
X109170000Y-123793597D01*
X109142139Y-123653527D01*
X109142136Y-123653517D01*
X109087489Y-123521589D01*
X109008144Y-123402839D01*
X108907160Y-123301855D01*
X108788415Y-123222512D01*
X108695000Y-123183818D01*
X108695000Y-123642632D01*
X108644554Y-123592186D01*
X108570445Y-123549399D01*
X108487787Y-123527250D01*
X108402213Y-123527250D01*
X108319555Y-123549399D01*
X108245446Y-123592186D01*
X108195000Y-123642632D01*
X108195000Y-123183818D01*
X108101584Y-123222512D01*
X107982839Y-123301855D01*
X107881855Y-123402839D01*
X107802510Y-123521589D01*
X107747863Y-123653517D01*
X107747860Y-123653527D01*
X107720000Y-123793597D01*
X100520000Y-123793597D01*
X100492139Y-123653527D01*
X100492136Y-123653517D01*
X100437489Y-123521589D01*
X100358144Y-123402839D01*
X100257160Y-123301855D01*
X100138415Y-123222512D01*
X100045000Y-123183818D01*
X100045000Y-123642632D01*
X99994554Y-123592186D01*
X99920445Y-123549399D01*
X99837787Y-123527250D01*
X99752213Y-123527250D01*
X99669555Y-123549399D01*
X99595446Y-123592186D01*
X99545000Y-123642632D01*
X99545000Y-123183818D01*
X99451584Y-123222512D01*
X99332839Y-123301855D01*
X99231855Y-123402839D01*
X99152510Y-123521589D01*
X99097863Y-123653517D01*
X99097860Y-123653527D01*
X99070000Y-123793597D01*
X92194500Y-123793597D01*
X92194500Y-121357694D01*
X135129500Y-121357694D01*
X135129500Y-123002304D01*
X135144724Y-123098433D01*
X135203754Y-123214287D01*
X135203759Y-123214294D01*
X135295705Y-123306240D01*
X135295712Y-123306245D01*
X135411563Y-123365273D01*
X135411567Y-123365275D01*
X135507693Y-123380500D01*
X136552306Y-123380499D01*
X136648433Y-123365275D01*
X136648437Y-123365273D01*
X136764287Y-123306245D01*
X136764289Y-123306243D01*
X136764294Y-123306241D01*
X136856241Y-123214294D01*
X136915275Y-123098433D01*
X136924797Y-123038316D01*
X140041867Y-123038316D01*
X140644643Y-123641092D01*
X140589940Y-123695795D01*
X140550444Y-123764204D01*
X140530000Y-123840504D01*
X140530000Y-124519496D01*
X140550444Y-124595796D01*
X140589940Y-124664205D01*
X140644643Y-124718908D01*
X140041867Y-125321682D01*
X140041868Y-125321683D01*
X140122626Y-125381285D01*
X140253512Y-125427085D01*
X140253521Y-125427086D01*
X140284578Y-125429998D01*
X140284600Y-125430000D01*
X141375400Y-125430000D01*
X141375421Y-125429998D01*
X141406478Y-125427086D01*
X141406487Y-125427085D01*
X141537373Y-125381285D01*
X141618130Y-125321683D01*
X141618131Y-125321682D01*
X141015356Y-124718908D01*
X141070060Y-124664205D01*
X141109556Y-124595796D01*
X141130000Y-124519496D01*
X141130000Y-124180000D01*
X141183552Y-124180000D01*
X141780000Y-124776448D01*
X141780000Y-124113465D01*
X151724500Y-124113465D01*
X151724500Y-124246534D01*
X151750457Y-124377028D01*
X151750459Y-124377035D01*
X151801378Y-124499965D01*
X151801380Y-124499969D01*
X151875305Y-124610606D01*
X151969394Y-124704695D01*
X152080031Y-124778620D01*
X152083363Y-124780000D01*
X152202964Y-124829540D01*
X152202971Y-124829542D01*
X152300624Y-124848966D01*
X152333469Y-124855500D01*
X152466531Y-124855500D01*
X152531346Y-124842606D01*
X152597028Y-124829542D01*
X152597032Y-124829540D01*
X152597036Y-124829540D01*
X152719969Y-124778620D01*
X152723221Y-124776447D01*
X153850000Y-124776447D01*
X154446448Y-124180000D01*
X153850000Y-123583552D01*
X153850000Y-124776447D01*
X152723221Y-124776447D01*
X152830606Y-124704695D01*
X152924695Y-124610606D01*
X152998620Y-124499969D01*
X153049540Y-124377036D01*
X153075500Y-124246531D01*
X153075500Y-124113469D01*
X153055913Y-124015000D01*
X153049542Y-123982971D01*
X153049540Y-123982964D01*
X152998621Y-123860034D01*
X152998620Y-123860031D01*
X152924695Y-123749394D01*
X152830606Y-123655305D01*
X152827930Y-123653517D01*
X152748500Y-123600444D01*
X152719969Y-123581380D01*
X152719966Y-123581378D01*
X152719965Y-123581378D01*
X152597035Y-123530459D01*
X152597028Y-123530457D01*
X152466534Y-123504500D01*
X152466531Y-123504500D01*
X152333469Y-123504500D01*
X152333465Y-123504500D01*
X152202971Y-123530457D01*
X152202964Y-123530459D01*
X152080034Y-123581378D01*
X151969394Y-123655304D01*
X151875304Y-123749394D01*
X151801378Y-123860034D01*
X151750459Y-123982964D01*
X151750457Y-123982971D01*
X151724500Y-124113465D01*
X141780000Y-124113465D01*
X141780000Y-123583552D01*
X141183552Y-124180000D01*
X141130000Y-124180000D01*
X141130000Y-123840504D01*
X141109556Y-123764204D01*
X141070060Y-123695795D01*
X141015356Y-123641091D01*
X141618131Y-123038316D01*
X141618130Y-123038315D01*
X141537374Y-122978714D01*
X141537365Y-122978710D01*
X141406490Y-122932915D01*
X141406478Y-122932913D01*
X141375421Y-122930001D01*
X141375400Y-122930000D01*
X140284600Y-122930000D01*
X140284578Y-122930001D01*
X140253521Y-122932913D01*
X140253509Y-122932915D01*
X140122634Y-122978710D01*
X140041867Y-123038316D01*
X136924797Y-123038316D01*
X136930500Y-123002307D01*
X136930499Y-121357694D01*
X149099500Y-121357694D01*
X149099500Y-123002304D01*
X149114724Y-123098433D01*
X149173754Y-123214287D01*
X149173759Y-123214294D01*
X149265705Y-123306240D01*
X149265712Y-123306245D01*
X149381563Y-123365273D01*
X149381567Y-123365275D01*
X149477693Y-123380500D01*
X150522306Y-123380499D01*
X150618433Y-123365275D01*
X150618437Y-123365273D01*
X150734287Y-123306245D01*
X150734289Y-123306243D01*
X150734294Y-123306241D01*
X150826241Y-123214294D01*
X150885275Y-123098433D01*
X150894797Y-123038316D01*
X154011867Y-123038316D01*
X154614643Y-123641092D01*
X154559940Y-123695795D01*
X154520444Y-123764204D01*
X154500000Y-123840504D01*
X154500000Y-124519496D01*
X154520444Y-124595796D01*
X154559940Y-124664205D01*
X154614643Y-124718908D01*
X154011867Y-125321682D01*
X154011868Y-125321683D01*
X154092626Y-125381285D01*
X154223512Y-125427085D01*
X154223521Y-125427086D01*
X154254578Y-125429998D01*
X154254600Y-125430000D01*
X155345400Y-125430000D01*
X155345421Y-125429998D01*
X155376478Y-125427086D01*
X155376487Y-125427085D01*
X155507373Y-125381285D01*
X155588130Y-125321683D01*
X155588131Y-125321682D01*
X154985356Y-124718908D01*
X155040060Y-124664205D01*
X155079556Y-124595796D01*
X155100000Y-124519496D01*
X155100000Y-124180000D01*
X155153552Y-124180000D01*
X155750000Y-124776448D01*
X155750000Y-123583552D01*
X155153552Y-124180000D01*
X155100000Y-124180000D01*
X155100000Y-123840504D01*
X155079556Y-123764204D01*
X155040060Y-123695795D01*
X154985356Y-123641091D01*
X155588131Y-123038316D01*
X155588130Y-123038315D01*
X155507374Y-122978714D01*
X155507365Y-122978710D01*
X155376490Y-122932915D01*
X155376478Y-122932913D01*
X155345421Y-122930001D01*
X155345400Y-122930000D01*
X154254600Y-122930000D01*
X154254578Y-122930001D01*
X154223521Y-122932913D01*
X154223509Y-122932915D01*
X154092634Y-122978710D01*
X154011867Y-123038316D01*
X150894797Y-123038316D01*
X150900500Y-123002307D01*
X150900499Y-121357694D01*
X150885275Y-121261567D01*
X150885275Y-121261566D01*
X150826245Y-121145712D01*
X150826240Y-121145705D01*
X150734294Y-121053759D01*
X150734287Y-121053754D01*
X150618436Y-120994726D01*
X150618434Y-120994725D01*
X150618433Y-120994725D01*
X150522307Y-120979500D01*
X150522305Y-120979500D01*
X149477695Y-120979500D01*
X149381566Y-120994724D01*
X149265712Y-121053754D01*
X149265705Y-121053759D01*
X149173759Y-121145705D01*
X149173754Y-121145712D01*
X149114726Y-121261563D01*
X149099500Y-121357694D01*
X136930499Y-121357694D01*
X136915275Y-121261567D01*
X136915275Y-121261566D01*
X136856245Y-121145712D01*
X136856240Y-121145705D01*
X136764294Y-121053759D01*
X136764287Y-121053754D01*
X136648436Y-120994726D01*
X136648434Y-120994725D01*
X136648433Y-120994725D01*
X136552307Y-120979500D01*
X136552305Y-120979500D01*
X135507695Y-120979500D01*
X135411566Y-120994724D01*
X135295712Y-121053754D01*
X135295705Y-121053759D01*
X135203759Y-121145705D01*
X135203754Y-121145712D01*
X135144726Y-121261563D01*
X135129500Y-121357694D01*
X92194500Y-121357694D01*
X92194500Y-119443597D01*
X99070000Y-119443597D01*
X99070000Y-119815000D01*
X99470000Y-119815000D01*
X99470000Y-120315000D01*
X99070000Y-120315000D01*
X99070000Y-120686402D01*
X99097860Y-120826472D01*
X99097863Y-120826482D01*
X99152510Y-120958410D01*
X99231855Y-121077160D01*
X99332839Y-121178144D01*
X99451587Y-121257488D01*
X99544999Y-121296181D01*
X99545000Y-121296181D01*
X99545000Y-120837368D01*
X99595446Y-120887814D01*
X99669555Y-120930601D01*
X99752213Y-120952750D01*
X99837787Y-120952750D01*
X99920445Y-120930601D01*
X99994554Y-120887814D01*
X100045000Y-120837368D01*
X100045000Y-121296181D01*
X100138412Y-121257488D01*
X100257160Y-121178144D01*
X100358144Y-121077160D01*
X100437489Y-120958410D01*
X100492136Y-120826482D01*
X100492139Y-120826472D01*
X100520000Y-120686402D01*
X100520000Y-120509230D01*
X100654500Y-120509230D01*
X100654500Y-120660769D01*
X100693718Y-120807133D01*
X100693719Y-120807137D01*
X100740299Y-120887814D01*
X100769485Y-120938365D01*
X100876635Y-121045515D01*
X100890914Y-121053759D01*
X101007862Y-121121280D01*
X101007864Y-121121280D01*
X101007865Y-121121281D01*
X101099044Y-121145712D01*
X101154230Y-121160499D01*
X101154231Y-121160500D01*
X101154234Y-121160500D01*
X101305769Y-121160500D01*
X101305769Y-121160499D01*
X101452135Y-121121281D01*
X101583365Y-121045515D01*
X101690515Y-120938365D01*
X101766281Y-120807135D01*
X101805499Y-120660769D01*
X101805500Y-120660769D01*
X101805500Y-120509231D01*
X101805499Y-120509230D01*
X106434500Y-120509230D01*
X106434500Y-120660769D01*
X106473718Y-120807133D01*
X106473719Y-120807137D01*
X106520299Y-120887814D01*
X106549485Y-120938365D01*
X106656635Y-121045515D01*
X106670914Y-121053759D01*
X106787862Y-121121280D01*
X106787864Y-121121280D01*
X106787865Y-121121281D01*
X106879044Y-121145712D01*
X106934230Y-121160499D01*
X106934231Y-121160500D01*
X106934234Y-121160500D01*
X107085769Y-121160500D01*
X107085769Y-121160499D01*
X107232135Y-121121281D01*
X107363365Y-121045515D01*
X107470515Y-120938365D01*
X107546281Y-120807135D01*
X107585499Y-120660769D01*
X107585500Y-120660769D01*
X107585500Y-120509231D01*
X107585499Y-120509230D01*
X107546281Y-120362866D01*
X107546280Y-120362863D01*
X107521073Y-120319204D01*
X107470514Y-120231634D01*
X107363365Y-120124485D01*
X107232137Y-120048719D01*
X107232133Y-120048718D01*
X107085769Y-120009500D01*
X107085766Y-120009500D01*
X106934234Y-120009500D01*
X106934231Y-120009500D01*
X106787866Y-120048718D01*
X106787862Y-120048719D01*
X106656634Y-120124485D01*
X106656634Y-120124486D01*
X106549486Y-120231634D01*
X106549485Y-120231634D01*
X106473719Y-120362862D01*
X106473718Y-120362866D01*
X106434500Y-120509230D01*
X101805499Y-120509230D01*
X101766281Y-120362866D01*
X101766280Y-120362862D01*
X101690514Y-120231634D01*
X101583365Y-120124485D01*
X101452137Y-120048719D01*
X101452133Y-120048718D01*
X101305769Y-120009500D01*
X101305766Y-120009500D01*
X101154234Y-120009500D01*
X101154231Y-120009500D01*
X101007866Y-120048718D01*
X101007862Y-120048719D01*
X100876634Y-120124485D01*
X100876634Y-120124486D01*
X100769486Y-120231634D01*
X100769485Y-120231634D01*
X100693719Y-120362862D01*
X100693718Y-120362866D01*
X100654500Y-120509230D01*
X100520000Y-120509230D01*
X100520000Y-120315000D01*
X100120000Y-120315000D01*
X100120000Y-119815000D01*
X100520000Y-119815000D01*
X100520000Y-119443597D01*
X107720000Y-119443597D01*
X107720000Y-119815000D01*
X108120000Y-119815000D01*
X108120000Y-120315000D01*
X107720000Y-120315000D01*
X107720000Y-120686402D01*
X107747860Y-120826472D01*
X107747863Y-120826482D01*
X107802510Y-120958410D01*
X107881855Y-121077160D01*
X107982839Y-121178144D01*
X108101587Y-121257488D01*
X108194999Y-121296181D01*
X108195000Y-121296181D01*
X108195000Y-120837368D01*
X108245446Y-120887814D01*
X108319555Y-120930601D01*
X108402213Y-120952750D01*
X108487787Y-120952750D01*
X108570445Y-120930601D01*
X108644554Y-120887814D01*
X108695000Y-120837368D01*
X108695000Y-121296181D01*
X108788412Y-121257488D01*
X108907160Y-121178144D01*
X109008144Y-121077160D01*
X109087489Y-120958410D01*
X109142136Y-120826482D01*
X109142139Y-120826472D01*
X109170000Y-120686402D01*
X109170000Y-120315000D01*
X108770000Y-120315000D01*
X108770000Y-119815000D01*
X109170000Y-119815000D01*
X109170000Y-119443597D01*
X109142139Y-119303527D01*
X109142136Y-119303517D01*
X109087489Y-119171589D01*
X109008144Y-119052839D01*
X108907160Y-118951855D01*
X108788415Y-118872512D01*
X108695000Y-118833818D01*
X108695000Y-119292632D01*
X108644554Y-119242186D01*
X108570445Y-119199399D01*
X108487787Y-119177250D01*
X108402213Y-119177250D01*
X108319555Y-119199399D01*
X108245446Y-119242186D01*
X108195000Y-119292632D01*
X108195000Y-118833818D01*
X108101584Y-118872512D01*
X107982839Y-118951855D01*
X107881855Y-119052839D01*
X107802510Y-119171589D01*
X107747863Y-119303517D01*
X107747860Y-119303527D01*
X107720000Y-119443597D01*
X100520000Y-119443597D01*
X100492139Y-119303527D01*
X100492136Y-119303517D01*
X100437489Y-119171589D01*
X100358144Y-119052839D01*
X100257160Y-118951855D01*
X100138415Y-118872512D01*
X100045000Y-118833818D01*
X100045000Y-119292632D01*
X99994554Y-119242186D01*
X99920445Y-119199399D01*
X99837787Y-119177250D01*
X99752213Y-119177250D01*
X99669555Y-119199399D01*
X99595446Y-119242186D01*
X99545000Y-119292632D01*
X99545000Y-118833818D01*
X99451584Y-118872512D01*
X99332839Y-118951855D01*
X99231855Y-119052839D01*
X99152510Y-119171589D01*
X99097863Y-119303517D01*
X99097860Y-119303527D01*
X99070000Y-119443597D01*
X92194500Y-119443597D01*
X92194500Y-118044104D01*
X102349500Y-118044104D01*
X102349500Y-118175895D01*
X102383607Y-118303184D01*
X102383608Y-118303188D01*
X102428245Y-118380500D01*
X102449500Y-118417314D01*
X102542686Y-118510500D01*
X102584457Y-118534617D01*
X102656811Y-118576391D01*
X102656813Y-118576391D01*
X102656814Y-118576392D01*
X102757207Y-118603292D01*
X102784104Y-118610499D01*
X102784105Y-118610500D01*
X102784108Y-118610500D01*
X102915895Y-118610500D01*
X102915895Y-118610499D01*
X103043186Y-118576392D01*
X103157314Y-118510500D01*
X103250500Y-118417314D01*
X103316392Y-118303186D01*
X103319522Y-118291506D01*
X103342352Y-118261753D01*
X103366852Y-118255189D01*
X105332172Y-118255189D01*
X105366820Y-118269541D01*
X105452468Y-118355189D01*
X105490294Y-118377028D01*
X105566593Y-118421080D01*
X105566595Y-118421080D01*
X105566596Y-118421081D01*
X105666989Y-118447981D01*
X105693886Y-118455188D01*
X105693887Y-118455189D01*
X105693890Y-118455189D01*
X105825677Y-118455189D01*
X105825677Y-118455188D01*
X105952968Y-118421081D01*
X106067096Y-118355189D01*
X106160282Y-118262003D01*
X106226174Y-118147875D01*
X106235394Y-118113465D01*
X137754500Y-118113465D01*
X137754500Y-118246534D01*
X137780457Y-118377028D01*
X137780459Y-118377035D01*
X137831378Y-118499965D01*
X137831380Y-118499969D01*
X137838416Y-118510499D01*
X137905233Y-118610499D01*
X137905305Y-118610606D01*
X137999394Y-118704695D01*
X138110031Y-118778620D01*
X138232964Y-118829540D01*
X138232971Y-118829542D01*
X138330624Y-118848966D01*
X138363469Y-118855500D01*
X138496531Y-118855500D01*
X138561346Y-118842606D01*
X138627028Y-118829542D01*
X138627032Y-118829540D01*
X138627036Y-118829540D01*
X138749969Y-118778620D01*
X138860606Y-118704695D01*
X138954695Y-118610606D01*
X139028620Y-118499969D01*
X139079540Y-118377036D01*
X139081880Y-118365275D01*
X139093622Y-118306245D01*
X139105500Y-118246531D01*
X139105500Y-118113469D01*
X139091702Y-118044104D01*
X139079542Y-117982971D01*
X139079540Y-117982964D01*
X139028621Y-117860034D01*
X139028620Y-117860031D01*
X138954695Y-117749394D01*
X138860606Y-117655305D01*
X138848736Y-117647374D01*
X138824057Y-117630884D01*
X138749969Y-117581380D01*
X138749966Y-117581378D01*
X138749965Y-117581378D01*
X138627035Y-117530459D01*
X138627028Y-117530457D01*
X138496534Y-117504500D01*
X138496531Y-117504500D01*
X138363469Y-117504500D01*
X138363465Y-117504500D01*
X138232971Y-117530457D01*
X138232964Y-117530459D01*
X138110034Y-117581378D01*
X137999394Y-117655304D01*
X137905304Y-117749394D01*
X137831378Y-117860034D01*
X137780459Y-117982964D01*
X137780457Y-117982971D01*
X137754500Y-118113465D01*
X106235394Y-118113465D01*
X106253979Y-118044104D01*
X106260282Y-118020583D01*
X106260282Y-117888794D01*
X106260281Y-117888793D01*
X106237209Y-117802686D01*
X106226174Y-117761503D01*
X106226173Y-117761502D01*
X106226173Y-117761500D01*
X106164860Y-117655305D01*
X106160282Y-117647375D01*
X106067096Y-117554189D01*
X105952970Y-117488297D01*
X105952966Y-117488296D01*
X105825677Y-117454189D01*
X105825674Y-117454189D01*
X105693890Y-117454189D01*
X105693887Y-117454189D01*
X105566597Y-117488296D01*
X105566593Y-117488297D01*
X105452467Y-117554189D01*
X105452467Y-117554190D01*
X105366820Y-117639837D01*
X105332172Y-117654189D01*
X103074642Y-117654189D01*
X103050144Y-117647625D01*
X103043186Y-117643608D01*
X103043183Y-117643607D01*
X103043181Y-117643606D01*
X102915895Y-117609500D01*
X102915892Y-117609500D01*
X102784108Y-117609500D01*
X102784105Y-117609500D01*
X102656815Y-117643607D01*
X102656811Y-117643608D01*
X102542685Y-117709500D01*
X102542685Y-117709501D01*
X102449501Y-117802685D01*
X102449500Y-117802685D01*
X102383608Y-117916811D01*
X102383607Y-117916815D01*
X102349500Y-118044104D01*
X92194500Y-118044104D01*
X92194500Y-116520104D01*
X102940500Y-116520104D01*
X102940500Y-116651895D01*
X102974607Y-116779184D01*
X102974608Y-116779188D01*
X103038073Y-116889110D01*
X103040500Y-116893314D01*
X103133686Y-116986500D01*
X103175457Y-117010617D01*
X103247811Y-117052391D01*
X103247813Y-117052391D01*
X103247814Y-117052392D01*
X103348207Y-117079292D01*
X103375104Y-117086499D01*
X103375105Y-117086500D01*
X103375108Y-117086500D01*
X103506895Y-117086500D01*
X103506895Y-117086499D01*
X103634186Y-117052392D01*
X103748314Y-116986500D01*
X103831352Y-116903462D01*
X103866000Y-116889110D01*
X103900648Y-116903462D01*
X103983686Y-116986500D01*
X104025457Y-117010617D01*
X104097811Y-117052391D01*
X104097813Y-117052391D01*
X104097814Y-117052392D01*
X104198207Y-117079292D01*
X104225104Y-117086499D01*
X104225105Y-117086500D01*
X104225108Y-117086500D01*
X104356895Y-117086500D01*
X104356895Y-117086499D01*
X104484186Y-117052392D01*
X104598314Y-116986500D01*
X104691500Y-116893314D01*
X104757392Y-116779186D01*
X104791499Y-116651895D01*
X104791500Y-116651895D01*
X104791500Y-116520105D01*
X104791499Y-116520104D01*
X104757392Y-116392815D01*
X104757391Y-116392811D01*
X104750149Y-116380268D01*
X104737116Y-116357694D01*
X139929500Y-116357694D01*
X139929500Y-118002304D01*
X139944724Y-118098433D01*
X140003754Y-118214287D01*
X140003759Y-118214294D01*
X140095705Y-118306240D01*
X140095712Y-118306245D01*
X140191770Y-118355188D01*
X140211567Y-118365275D01*
X140307693Y-118380500D01*
X141352306Y-118380499D01*
X141448433Y-118365275D01*
X141468230Y-118355188D01*
X141564287Y-118306245D01*
X141564289Y-118306243D01*
X141564294Y-118306241D01*
X141656241Y-118214294D01*
X141675807Y-118175895D01*
X141707616Y-118113465D01*
X151724500Y-118113465D01*
X151724500Y-118246534D01*
X151750457Y-118377028D01*
X151750459Y-118377035D01*
X151801378Y-118499965D01*
X151801380Y-118499969D01*
X151808416Y-118510499D01*
X151875233Y-118610499D01*
X151875305Y-118610606D01*
X151969394Y-118704695D01*
X152080031Y-118778620D01*
X152202964Y-118829540D01*
X152202971Y-118829542D01*
X152300624Y-118848966D01*
X152333469Y-118855500D01*
X152466531Y-118855500D01*
X152531346Y-118842606D01*
X152597028Y-118829542D01*
X152597032Y-118829540D01*
X152597036Y-118829540D01*
X152719969Y-118778620D01*
X152830606Y-118704695D01*
X152924695Y-118610606D01*
X152998620Y-118499969D01*
X153049540Y-118377036D01*
X153051880Y-118365275D01*
X153063622Y-118306245D01*
X153075500Y-118246531D01*
X153075500Y-118113469D01*
X153061702Y-118044104D01*
X153049542Y-117982971D01*
X153049540Y-117982964D01*
X152998621Y-117860034D01*
X152998620Y-117860031D01*
X152924695Y-117749394D01*
X152830606Y-117655305D01*
X152818736Y-117647374D01*
X152794057Y-117630884D01*
X152719969Y-117581380D01*
X152719966Y-117581378D01*
X152719965Y-117581378D01*
X152597035Y-117530459D01*
X152597028Y-117530457D01*
X152466534Y-117504500D01*
X152466531Y-117504500D01*
X152333469Y-117504500D01*
X152333465Y-117504500D01*
X152202971Y-117530457D01*
X152202964Y-117530459D01*
X152080034Y-117581378D01*
X151969394Y-117655304D01*
X151875304Y-117749394D01*
X151801378Y-117860034D01*
X151750459Y-117982964D01*
X151750457Y-117982971D01*
X151724500Y-118113465D01*
X141707616Y-118113465D01*
X141715273Y-118098437D01*
X141715273Y-118098436D01*
X141715275Y-118098433D01*
X141730500Y-118002307D01*
X141730499Y-116357694D01*
X153899500Y-116357694D01*
X153899500Y-118002304D01*
X153914724Y-118098433D01*
X153973754Y-118214287D01*
X153973759Y-118214294D01*
X154065705Y-118306240D01*
X154065712Y-118306245D01*
X154161770Y-118355188D01*
X154181567Y-118365275D01*
X154277693Y-118380500D01*
X155322306Y-118380499D01*
X155418433Y-118365275D01*
X155438230Y-118355188D01*
X155534287Y-118306245D01*
X155534289Y-118306243D01*
X155534294Y-118306241D01*
X155626241Y-118214294D01*
X155685275Y-118098433D01*
X155700500Y-118002307D01*
X155700499Y-116357694D01*
X155685275Y-116261567D01*
X155685275Y-116261566D01*
X155626245Y-116145712D01*
X155626240Y-116145705D01*
X155534294Y-116053759D01*
X155534287Y-116053754D01*
X155418436Y-115994726D01*
X155418434Y-115994725D01*
X155418433Y-115994725D01*
X155322307Y-115979500D01*
X155322305Y-115979500D01*
X154277695Y-115979500D01*
X154181566Y-115994724D01*
X154065712Y-116053754D01*
X154065705Y-116053759D01*
X153973759Y-116145705D01*
X153973754Y-116145712D01*
X153914726Y-116261563D01*
X153899500Y-116357694D01*
X141730499Y-116357694D01*
X141715275Y-116261567D01*
X141715275Y-116261566D01*
X141656245Y-116145712D01*
X141656240Y-116145705D01*
X141564294Y-116053759D01*
X141564287Y-116053754D01*
X141448436Y-115994726D01*
X141448434Y-115994725D01*
X141448433Y-115994725D01*
X141352307Y-115979500D01*
X141352305Y-115979500D01*
X140307695Y-115979500D01*
X140211566Y-115994724D01*
X140095712Y-116053754D01*
X140095705Y-116053759D01*
X140003759Y-116145705D01*
X140003754Y-116145712D01*
X139944726Y-116261563D01*
X139929500Y-116357694D01*
X104737116Y-116357694D01*
X104691499Y-116278685D01*
X104598314Y-116185500D01*
X104484188Y-116119608D01*
X104484184Y-116119607D01*
X104427819Y-116104504D01*
X104398066Y-116081674D01*
X104391501Y-116057174D01*
X104391501Y-113775964D01*
X104405853Y-113741316D01*
X106234208Y-111912961D01*
X111035590Y-111912961D01*
X111035590Y-111912962D01*
X111099172Y-111930000D01*
X111230828Y-111930000D01*
X111294408Y-111912962D01*
X111294408Y-111912961D01*
X112185590Y-111912961D01*
X112185590Y-111912962D01*
X112249172Y-111930000D01*
X112380828Y-111930000D01*
X112444408Y-111912962D01*
X112444408Y-111912961D01*
X112315001Y-111783553D01*
X112315000Y-111783553D01*
X112185590Y-111912961D01*
X111294408Y-111912961D01*
X111165001Y-111783553D01*
X111165000Y-111783553D01*
X111035590Y-111912961D01*
X106234208Y-111912961D01*
X106782998Y-111364171D01*
X110665000Y-111364171D01*
X110665000Y-111495827D01*
X110682037Y-111559409D01*
X110811446Y-111430000D01*
X110811446Y-111429999D01*
X110791556Y-111410109D01*
X111065000Y-111410109D01*
X111065000Y-111449891D01*
X111080224Y-111486645D01*
X111108355Y-111514776D01*
X111145109Y-111530000D01*
X111184891Y-111530000D01*
X111221645Y-111514776D01*
X111249776Y-111486645D01*
X111265000Y-111449891D01*
X111265000Y-111429999D01*
X111518553Y-111429999D01*
X111518553Y-111430000D01*
X111647961Y-111559408D01*
X111647962Y-111559408D01*
X111665000Y-111495827D01*
X111665000Y-111364172D01*
X111665000Y-111364171D01*
X111815000Y-111364171D01*
X111815000Y-111495827D01*
X111832037Y-111559409D01*
X111961446Y-111430000D01*
X111961446Y-111429999D01*
X111941556Y-111410109D01*
X112215000Y-111410109D01*
X112215000Y-111449891D01*
X112230224Y-111486645D01*
X112258355Y-111514776D01*
X112295109Y-111530000D01*
X112334891Y-111530000D01*
X112371645Y-111514776D01*
X112399776Y-111486645D01*
X112415000Y-111449891D01*
X112415000Y-111429999D01*
X112668553Y-111429999D01*
X112668553Y-111430000D01*
X112797961Y-111559408D01*
X112797962Y-111559408D01*
X112815000Y-111495827D01*
X112815000Y-111364172D01*
X112797962Y-111300590D01*
X112797961Y-111300590D01*
X112668553Y-111429999D01*
X112415000Y-111429999D01*
X112415000Y-111410109D01*
X112399776Y-111373355D01*
X112371645Y-111345224D01*
X112334891Y-111330000D01*
X112295109Y-111330000D01*
X112258355Y-111345224D01*
X112230224Y-111373355D01*
X112215000Y-111410109D01*
X111941556Y-111410109D01*
X111832036Y-111300590D01*
X111815000Y-111364171D01*
X111665000Y-111364171D01*
X111647962Y-111300590D01*
X111647961Y-111300590D01*
X111518553Y-111429999D01*
X111265000Y-111429999D01*
X111265000Y-111410109D01*
X111249776Y-111373355D01*
X111221645Y-111345224D01*
X111184891Y-111330000D01*
X111145109Y-111330000D01*
X111108355Y-111345224D01*
X111080224Y-111373355D01*
X111065000Y-111410109D01*
X110791556Y-111410109D01*
X110682036Y-111300590D01*
X110665000Y-111364171D01*
X106782998Y-111364171D01*
X107367316Y-110779853D01*
X107401964Y-110765501D01*
X108456174Y-110765501D01*
X108490822Y-110779853D01*
X108503504Y-110801819D01*
X108518607Y-110858184D01*
X108518608Y-110858188D01*
X108551527Y-110915204D01*
X108584500Y-110972314D01*
X108677686Y-111065500D01*
X108696645Y-111076446D01*
X108791811Y-111131391D01*
X108791813Y-111131391D01*
X108791814Y-111131392D01*
X108892207Y-111158292D01*
X108919104Y-111165499D01*
X108919105Y-111165500D01*
X108919108Y-111165500D01*
X109050895Y-111165500D01*
X109050895Y-111165499D01*
X109178186Y-111131392D01*
X109292314Y-111065500D01*
X109385500Y-110972314D01*
X109392610Y-110960000D01*
X111048553Y-110960000D01*
X111165000Y-111076446D01*
X111165001Y-111076446D01*
X111281446Y-110960001D01*
X111281446Y-110960000D01*
X112198553Y-110960000D01*
X112315000Y-111076446D01*
X112315001Y-111076446D01*
X112431446Y-110960001D01*
X112431446Y-110959999D01*
X112315001Y-110843553D01*
X112315000Y-110843553D01*
X112198553Y-110960000D01*
X111281446Y-110960000D01*
X111281446Y-110959999D01*
X111165001Y-110843553D01*
X111165000Y-110843553D01*
X111048553Y-110960000D01*
X109392610Y-110960000D01*
X109428802Y-110897314D01*
X109451391Y-110858188D01*
X109451391Y-110858187D01*
X109451392Y-110858186D01*
X109485499Y-110730895D01*
X109485500Y-110730895D01*
X109485500Y-110599105D01*
X109485499Y-110599104D01*
X109463367Y-110516507D01*
X109451392Y-110471814D01*
X109451391Y-110471813D01*
X109451391Y-110471811D01*
X109436178Y-110445462D01*
X109423886Y-110424171D01*
X110665000Y-110424171D01*
X110665000Y-110555827D01*
X110682037Y-110619409D01*
X110811446Y-110490000D01*
X110811446Y-110489999D01*
X110791556Y-110470109D01*
X111065000Y-110470109D01*
X111065000Y-110509891D01*
X111080224Y-110546645D01*
X111108355Y-110574776D01*
X111145109Y-110590000D01*
X111184891Y-110590000D01*
X111221645Y-110574776D01*
X111249776Y-110546645D01*
X111265000Y-110509891D01*
X111265000Y-110489999D01*
X111518553Y-110489999D01*
X111518553Y-110490000D01*
X111647961Y-110619408D01*
X111647962Y-110619408D01*
X111665000Y-110555827D01*
X111665000Y-110424172D01*
X111665000Y-110424171D01*
X111815000Y-110424171D01*
X111815000Y-110555827D01*
X111832037Y-110619409D01*
X111961446Y-110490000D01*
X111961446Y-110489999D01*
X111941556Y-110470109D01*
X112215000Y-110470109D01*
X112215000Y-110509891D01*
X112230224Y-110546645D01*
X112258355Y-110574776D01*
X112295109Y-110590000D01*
X112334891Y-110590000D01*
X112371645Y-110574776D01*
X112399776Y-110546645D01*
X112415000Y-110509891D01*
X112415000Y-110489999D01*
X112668553Y-110489999D01*
X112668553Y-110490000D01*
X112797961Y-110619408D01*
X112797962Y-110619408D01*
X112815000Y-110555827D01*
X112815000Y-110424172D01*
X112797962Y-110360590D01*
X112797961Y-110360590D01*
X112668553Y-110489999D01*
X112415000Y-110489999D01*
X112415000Y-110470109D01*
X112399776Y-110433355D01*
X112371645Y-110405224D01*
X112334891Y-110390000D01*
X112295109Y-110390000D01*
X112258355Y-110405224D01*
X112230224Y-110433355D01*
X112215000Y-110470109D01*
X111941556Y-110470109D01*
X111832036Y-110360590D01*
X111815000Y-110424171D01*
X111665000Y-110424171D01*
X111647962Y-110360590D01*
X111647961Y-110360590D01*
X111518553Y-110489999D01*
X111265000Y-110489999D01*
X111265000Y-110470109D01*
X111249776Y-110433355D01*
X111221645Y-110405224D01*
X111184891Y-110390000D01*
X111145109Y-110390000D01*
X111108355Y-110405224D01*
X111080224Y-110433355D01*
X111065000Y-110470109D01*
X110791556Y-110470109D01*
X110682036Y-110360590D01*
X110665000Y-110424171D01*
X109423886Y-110424171D01*
X109412413Y-110404300D01*
X109385500Y-110357686D01*
X109302462Y-110274648D01*
X109288110Y-110240000D01*
X109302462Y-110205352D01*
X109385499Y-110122315D01*
X109385500Y-110122314D01*
X109444571Y-110020000D01*
X111048553Y-110020000D01*
X111165000Y-110136446D01*
X111165001Y-110136446D01*
X111281446Y-110020001D01*
X111281446Y-110020000D01*
X112198553Y-110020000D01*
X112315000Y-110136446D01*
X112315001Y-110136446D01*
X112431446Y-110020001D01*
X112431446Y-110019999D01*
X112315001Y-109903553D01*
X112315000Y-109903553D01*
X112198553Y-110020000D01*
X111281446Y-110020000D01*
X111281446Y-110019999D01*
X111165001Y-109903553D01*
X111165000Y-109903553D01*
X111048553Y-110020000D01*
X109444571Y-110020000D01*
X109451392Y-110008186D01*
X109485499Y-109880895D01*
X109485500Y-109880895D01*
X109485500Y-109749105D01*
X109485499Y-109749104D01*
X109454865Y-109634776D01*
X109451392Y-109621814D01*
X109451391Y-109621813D01*
X109451391Y-109621811D01*
X109398446Y-109530109D01*
X109385500Y-109507686D01*
X109361985Y-109484171D01*
X110665000Y-109484171D01*
X110665000Y-109615827D01*
X110682037Y-109679409D01*
X110811446Y-109550000D01*
X110811446Y-109549999D01*
X110791556Y-109530109D01*
X111065000Y-109530109D01*
X111065000Y-109569891D01*
X111080224Y-109606645D01*
X111108355Y-109634776D01*
X111145109Y-109650000D01*
X111184891Y-109650000D01*
X111221645Y-109634776D01*
X111249776Y-109606645D01*
X111265000Y-109569891D01*
X111265000Y-109549999D01*
X111518553Y-109549999D01*
X111518553Y-109550000D01*
X111647961Y-109679408D01*
X111647962Y-109679408D01*
X111665000Y-109615827D01*
X111665000Y-109484172D01*
X111665000Y-109484171D01*
X111815000Y-109484171D01*
X111815000Y-109615827D01*
X111832037Y-109679409D01*
X111961446Y-109550000D01*
X111961446Y-109549999D01*
X111941556Y-109530109D01*
X112215000Y-109530109D01*
X112215000Y-109569891D01*
X112230224Y-109606645D01*
X112258355Y-109634776D01*
X112295109Y-109650000D01*
X112334891Y-109650000D01*
X112371645Y-109634776D01*
X112399776Y-109606645D01*
X112415000Y-109569891D01*
X112415000Y-109549999D01*
X112668553Y-109549999D01*
X112668553Y-109550000D01*
X112797961Y-109679408D01*
X112797962Y-109679408D01*
X112815000Y-109615827D01*
X112815000Y-109484172D01*
X112797962Y-109420590D01*
X112797961Y-109420590D01*
X112668553Y-109549999D01*
X112415000Y-109549999D01*
X112415000Y-109530109D01*
X112399776Y-109493355D01*
X112371645Y-109465224D01*
X112334891Y-109450000D01*
X112295109Y-109450000D01*
X112258355Y-109465224D01*
X112230224Y-109493355D01*
X112215000Y-109530109D01*
X111941556Y-109530109D01*
X111832036Y-109420590D01*
X111815000Y-109484171D01*
X111665000Y-109484171D01*
X111647962Y-109420590D01*
X111647961Y-109420590D01*
X111518553Y-109549999D01*
X111265000Y-109549999D01*
X111265000Y-109530109D01*
X111249776Y-109493355D01*
X111221645Y-109465224D01*
X111184891Y-109450000D01*
X111145109Y-109450000D01*
X111108355Y-109465224D01*
X111080224Y-109493355D01*
X111065000Y-109530109D01*
X110791556Y-109530109D01*
X110682036Y-109420590D01*
X110665000Y-109484171D01*
X109361985Y-109484171D01*
X109292314Y-109414500D01*
X109178188Y-109348608D01*
X109178184Y-109348607D01*
X109050895Y-109314500D01*
X109050892Y-109314500D01*
X108919108Y-109314500D01*
X108919105Y-109314500D01*
X108791815Y-109348607D01*
X108791811Y-109348608D01*
X108677685Y-109414500D01*
X108677685Y-109414501D01*
X108584501Y-109507685D01*
X108584500Y-109507685D01*
X108518608Y-109621811D01*
X108518607Y-109621815D01*
X108503504Y-109678181D01*
X108480674Y-109707934D01*
X108456174Y-109714499D01*
X107031239Y-109714499D01*
X106954815Y-109734977D01*
X106954811Y-109734978D01*
X106905920Y-109763207D01*
X106901013Y-109766040D01*
X106886295Y-109774536D01*
X106886289Y-109774541D01*
X103400540Y-113260291D01*
X103400539Y-113260291D01*
X103360978Y-113328811D01*
X103360978Y-113328813D01*
X103340499Y-113405239D01*
X103340499Y-116057174D01*
X103326147Y-116091822D01*
X103304181Y-116104504D01*
X103247815Y-116119607D01*
X103247811Y-116119608D01*
X103133685Y-116185500D01*
X103133685Y-116185501D01*
X103040501Y-116278685D01*
X103040500Y-116278685D01*
X102974608Y-116392811D01*
X102974607Y-116392815D01*
X102940500Y-116520104D01*
X92194500Y-116520104D01*
X92194500Y-115050252D01*
X98339500Y-115050252D01*
X98339500Y-116089748D01*
X98351133Y-116148231D01*
X98368882Y-116174795D01*
X98395447Y-116214552D01*
X98422012Y-116232301D01*
X98461769Y-116258867D01*
X98520252Y-116270500D01*
X98520255Y-116270500D01*
X99559745Y-116270500D01*
X99559748Y-116270500D01*
X99618231Y-116258867D01*
X99684552Y-116214552D01*
X99728867Y-116148231D01*
X99740500Y-116089748D01*
X99740500Y-115050252D01*
X99728867Y-114991769D01*
X99702301Y-114952012D01*
X99684552Y-114925447D01*
X99644795Y-114898882D01*
X99618231Y-114881133D01*
X99559748Y-114869500D01*
X98520252Y-114869500D01*
X98461769Y-114881133D01*
X98395447Y-114925447D01*
X98351133Y-114991769D01*
X98339500Y-115050252D01*
X92194500Y-115050252D01*
X92194500Y-109067036D01*
X111035590Y-109067036D01*
X111165000Y-109196446D01*
X111165001Y-109196446D01*
X111294409Y-109067037D01*
X111294405Y-109067036D01*
X112185590Y-109067036D01*
X112315000Y-109196446D01*
X112315001Y-109196446D01*
X112444409Y-109067037D01*
X112380828Y-109050000D01*
X112249171Y-109050000D01*
X112185590Y-109067036D01*
X111294405Y-109067036D01*
X111230828Y-109050000D01*
X111099171Y-109050000D01*
X111035590Y-109067036D01*
X92194500Y-109067036D01*
X92194500Y-106614104D01*
X104532000Y-106614104D01*
X104532000Y-106745895D01*
X104566107Y-106873184D01*
X104566108Y-106873188D01*
X104632000Y-106987314D01*
X104725186Y-107080500D01*
X104766957Y-107104617D01*
X104839311Y-107146391D01*
X104839313Y-107146391D01*
X104839314Y-107146392D01*
X104939707Y-107173292D01*
X104966604Y-107180499D01*
X104966605Y-107180500D01*
X105087733Y-107180500D01*
X105122381Y-107194852D01*
X106062040Y-108134511D01*
X106117989Y-108190460D01*
X106186511Y-108230021D01*
X106221978Y-108239524D01*
X106262936Y-108250500D01*
X106262938Y-108250500D01*
X106342062Y-108250500D01*
X112003233Y-108250500D01*
X112037881Y-108264852D01*
X114273148Y-110500119D01*
X114287500Y-110534767D01*
X114287500Y-110655895D01*
X114321607Y-110783184D01*
X114321608Y-110783188D01*
X114376642Y-110878508D01*
X114387500Y-110897314D01*
X114480686Y-110990500D01*
X114537764Y-111023454D01*
X114594810Y-111056390D01*
X114594814Y-111056392D01*
X114632530Y-111066497D01*
X114662282Y-111089326D01*
X114667178Y-111126508D01*
X114654495Y-111148475D01*
X111817824Y-113985148D01*
X111783176Y-113999500D01*
X108103610Y-113999500D01*
X108068962Y-113985148D01*
X107983314Y-113899500D01*
X107869188Y-113833608D01*
X107869184Y-113833607D01*
X107741895Y-113799500D01*
X107741892Y-113799500D01*
X107610108Y-113799500D01*
X107610105Y-113799500D01*
X107482815Y-113833607D01*
X107482811Y-113833608D01*
X107368685Y-113899500D01*
X107368685Y-113899501D01*
X107275501Y-113992685D01*
X107275500Y-113992685D01*
X107209608Y-114106811D01*
X107209607Y-114106815D01*
X107175500Y-114234104D01*
X107175500Y-114365895D01*
X107209607Y-114493184D01*
X107209608Y-114493188D01*
X107259742Y-114580021D01*
X107275500Y-114607314D01*
X107368686Y-114700500D01*
X107410457Y-114724617D01*
X107482811Y-114766391D01*
X107482813Y-114766391D01*
X107482814Y-114766392D01*
X107583207Y-114793292D01*
X107610104Y-114800499D01*
X107610105Y-114800500D01*
X107610108Y-114800500D01*
X107741895Y-114800500D01*
X107741895Y-114800499D01*
X107757745Y-114796252D01*
X143063500Y-114796252D01*
X143063500Y-115835748D01*
X143075133Y-115894231D01*
X143092882Y-115920795D01*
X143119447Y-115960552D01*
X143146012Y-115978301D01*
X143185769Y-116004867D01*
X143244252Y-116016500D01*
X143244255Y-116016500D01*
X144283745Y-116016500D01*
X144283748Y-116016500D01*
X144342231Y-116004867D01*
X144408552Y-115960552D01*
X144452867Y-115894231D01*
X144464500Y-115835748D01*
X144464500Y-114796252D01*
X146113500Y-114796252D01*
X146113500Y-115835748D01*
X146125133Y-115894231D01*
X146142882Y-115920795D01*
X146169447Y-115960552D01*
X146196012Y-115978301D01*
X146235769Y-116004867D01*
X146294252Y-116016500D01*
X146294255Y-116016500D01*
X147333745Y-116016500D01*
X147333748Y-116016500D01*
X147392231Y-116004867D01*
X147458552Y-115960552D01*
X147502867Y-115894231D01*
X147514500Y-115835748D01*
X147514500Y-114796252D01*
X147502867Y-114737769D01*
X147476301Y-114698012D01*
X147458552Y-114671447D01*
X147418795Y-114644882D01*
X147392231Y-114627133D01*
X147333748Y-114615500D01*
X146294252Y-114615500D01*
X146235769Y-114627133D01*
X146169447Y-114671447D01*
X146125133Y-114737769D01*
X146113500Y-114796252D01*
X144464500Y-114796252D01*
X144452867Y-114737769D01*
X144426301Y-114698012D01*
X144408552Y-114671447D01*
X144368795Y-114644882D01*
X144342231Y-114627133D01*
X144283748Y-114615500D01*
X143244252Y-114615500D01*
X143185769Y-114627133D01*
X143119447Y-114671447D01*
X143075133Y-114737769D01*
X143063500Y-114796252D01*
X107757745Y-114796252D01*
X107869186Y-114766392D01*
X107983314Y-114700500D01*
X108068962Y-114614852D01*
X108103610Y-114600500D01*
X111967507Y-114600500D01*
X111994173Y-114593354D01*
X112043932Y-114580021D01*
X112112454Y-114540460D01*
X112168403Y-114484511D01*
X115629460Y-111023454D01*
X115669022Y-110954931D01*
X115689499Y-110878508D01*
X115689500Y-110878508D01*
X115689500Y-109951436D01*
X115673171Y-109890499D01*
X115669021Y-109875011D01*
X115669020Y-109875009D01*
X115669020Y-109875008D01*
X115629459Y-109806488D01*
X115302852Y-109479881D01*
X115288500Y-109445233D01*
X115288500Y-109324105D01*
X115288499Y-109324104D01*
X115254392Y-109196815D01*
X115254391Y-109196811D01*
X115188499Y-109082685D01*
X115095314Y-108989500D01*
X114981188Y-108923608D01*
X114981184Y-108923607D01*
X114853895Y-108889500D01*
X114853892Y-108889500D01*
X114722108Y-108889500D01*
X114722105Y-108889500D01*
X114594815Y-108923607D01*
X114594811Y-108923608D01*
X114480685Y-108989500D01*
X114480685Y-108989501D01*
X114387501Y-109082685D01*
X114387500Y-109082685D01*
X114321608Y-109196811D01*
X114321607Y-109196815D01*
X114287500Y-109324104D01*
X114287500Y-109455895D01*
X114316535Y-109564256D01*
X114311640Y-109601438D01*
X114281887Y-109624268D01*
X114244705Y-109619373D01*
X114234557Y-109611586D01*
X112332511Y-107709540D01*
X112263990Y-107669979D01*
X112187564Y-107649500D01*
X112187562Y-107649500D01*
X106447267Y-107649500D01*
X106412619Y-107635148D01*
X105547352Y-106769881D01*
X105533000Y-106735233D01*
X105533000Y-106614105D01*
X105532999Y-106614104D01*
X105498892Y-106486815D01*
X105498891Y-106486811D01*
X105432999Y-106372685D01*
X105339814Y-106279500D01*
X105225688Y-106213608D01*
X105225684Y-106213607D01*
X105098395Y-106179500D01*
X105098392Y-106179500D01*
X104966608Y-106179500D01*
X104966605Y-106179500D01*
X104839315Y-106213607D01*
X104839311Y-106213608D01*
X104725185Y-106279500D01*
X104725185Y-106279501D01*
X104632001Y-106372685D01*
X104632000Y-106372685D01*
X104566108Y-106486811D01*
X104566107Y-106486815D01*
X104532000Y-106614104D01*
X92194500Y-106614104D01*
X92194500Y-99810252D01*
X128839500Y-99810252D01*
X128839500Y-100849748D01*
X128851133Y-100908231D01*
X128868882Y-100934795D01*
X128895447Y-100974552D01*
X128922012Y-100992301D01*
X128961769Y-101018867D01*
X129020252Y-101030500D01*
X129020255Y-101030500D01*
X130059745Y-101030500D01*
X130059748Y-101030500D01*
X130118231Y-101018867D01*
X130184552Y-100974552D01*
X130228867Y-100908231D01*
X130240500Y-100849748D01*
X130240500Y-99810252D01*
X130228867Y-99751769D01*
X130202301Y-99712012D01*
X130184552Y-99685447D01*
X130144795Y-99658882D01*
X130118231Y-99641133D01*
X130059748Y-99629500D01*
X129020252Y-99629500D01*
X128961769Y-99641133D01*
X128895447Y-99685447D01*
X128851133Y-99751769D01*
X128839500Y-99810252D01*
X92194500Y-99810252D01*
X92194500Y-98994104D01*
X106413500Y-98994104D01*
X106413500Y-99125895D01*
X106447607Y-99253184D01*
X106447608Y-99253188D01*
X106513500Y-99367314D01*
X106606686Y-99460500D01*
X106648457Y-99484617D01*
X106720811Y-99526391D01*
X106720813Y-99526391D01*
X106720814Y-99526392D01*
X106821207Y-99553292D01*
X106848104Y-99560499D01*
X106848105Y-99560500D01*
X106848108Y-99560500D01*
X106979895Y-99560500D01*
X106979895Y-99560499D01*
X107107186Y-99526392D01*
X107221314Y-99460500D01*
X107314500Y-99367314D01*
X107380392Y-99253186D01*
X107414499Y-99125895D01*
X107414500Y-99125895D01*
X107414500Y-98994105D01*
X107414499Y-98994104D01*
X107380392Y-98866815D01*
X107380391Y-98866811D01*
X107314499Y-98752685D01*
X107228852Y-98667038D01*
X107214500Y-98632390D01*
X107214500Y-96000252D01*
X114849500Y-96000252D01*
X114849500Y-97039748D01*
X114861133Y-97098231D01*
X114875355Y-97119515D01*
X114905447Y-97164552D01*
X114932012Y-97182301D01*
X114971769Y-97208867D01*
X115030252Y-97220500D01*
X115030255Y-97220500D01*
X116069745Y-97220500D01*
X116069748Y-97220500D01*
X116128231Y-97208867D01*
X116194552Y-97164552D01*
X116238867Y-97098231D01*
X116250500Y-97039748D01*
X116250500Y-96000252D01*
X116238867Y-95941769D01*
X116196520Y-95878393D01*
X116194552Y-95875447D01*
X116154795Y-95848882D01*
X116128231Y-95831133D01*
X116069748Y-95819500D01*
X115030252Y-95819500D01*
X114971769Y-95831133D01*
X114905447Y-95875447D01*
X114863073Y-95938866D01*
X114861133Y-95941769D01*
X114849500Y-96000252D01*
X107214500Y-96000252D01*
X107214500Y-93108766D01*
X107228851Y-93074119D01*
X111214865Y-89088104D01*
X115069500Y-89088104D01*
X115069500Y-89219895D01*
X115103607Y-89347184D01*
X115103608Y-89347188D01*
X115113083Y-89363598D01*
X115169500Y-89461314D01*
X115262686Y-89554500D01*
X115307233Y-89580219D01*
X115376810Y-89620390D01*
X115376811Y-89620390D01*
X115376814Y-89620392D01*
X115394834Y-89625220D01*
X115416799Y-89637902D01*
X123929386Y-98150489D01*
X123988696Y-98184731D01*
X124032114Y-98209799D01*
X124032116Y-98209799D01*
X124032117Y-98209800D01*
X124146687Y-98240499D01*
X124146688Y-98240500D01*
X124146691Y-98240500D01*
X133358500Y-98240500D01*
X133393148Y-98254852D01*
X133407500Y-98289500D01*
X133407500Y-102636159D01*
X133400936Y-102660655D01*
X133391608Y-102676814D01*
X133391606Y-102676818D01*
X133357500Y-102804104D01*
X133357500Y-102935895D01*
X133391607Y-103063184D01*
X133391608Y-103063188D01*
X133457500Y-103177314D01*
X133550686Y-103270500D01*
X133592457Y-103294617D01*
X133664811Y-103336391D01*
X133664813Y-103336391D01*
X133664814Y-103336392D01*
X133765207Y-103363292D01*
X133792104Y-103370499D01*
X133792105Y-103370500D01*
X133792108Y-103370500D01*
X133923895Y-103370500D01*
X133923895Y-103370499D01*
X134051186Y-103336392D01*
X134165314Y-103270500D01*
X134258500Y-103177314D01*
X134324392Y-103063186D01*
X134358499Y-102935895D01*
X134358500Y-102935895D01*
X134358500Y-102804105D01*
X134358499Y-102804104D01*
X134324393Y-102676818D01*
X134324392Y-102676814D01*
X134315063Y-102660655D01*
X134308500Y-102636159D01*
X134308500Y-98289500D01*
X134322852Y-98254852D01*
X134357500Y-98240500D01*
X143223311Y-98240500D01*
X143253430Y-98232428D01*
X143313673Y-98216286D01*
X143337887Y-98209799D01*
X143440614Y-98150489D01*
X145695201Y-95895900D01*
X145717167Y-95883219D01*
X145724693Y-95881203D01*
X145735183Y-95878393D01*
X145735183Y-95878392D01*
X145735186Y-95878392D01*
X145849314Y-95812500D01*
X145942500Y-95719314D01*
X146008392Y-95605186D01*
X146013220Y-95587164D01*
X146025900Y-95565201D01*
X149325853Y-92265249D01*
X149360500Y-92250898D01*
X149395148Y-92265250D01*
X149409500Y-92299898D01*
X149409500Y-96071310D01*
X149422413Y-96119499D01*
X149422413Y-96119500D01*
X149440200Y-96185886D01*
X149440201Y-96185888D01*
X149499511Y-96288614D01*
X150646096Y-97435199D01*
X150658778Y-97457163D01*
X150663607Y-97475185D01*
X150663608Y-97475188D01*
X150729500Y-97589314D01*
X150822686Y-97682500D01*
X150888574Y-97720540D01*
X150936810Y-97748390D01*
X150936811Y-97748390D01*
X150936814Y-97748392D01*
X150954834Y-97753220D01*
X150976799Y-97765902D01*
X151173148Y-97962251D01*
X151187500Y-97996899D01*
X151187500Y-100036159D01*
X151180936Y-100060655D01*
X151171608Y-100076814D01*
X151171606Y-100076818D01*
X151137500Y-100204104D01*
X151137500Y-100335895D01*
X151171607Y-100463184D01*
X151171608Y-100463187D01*
X151180935Y-100479341D01*
X151187500Y-100503841D01*
X151187500Y-102636159D01*
X151180936Y-102660655D01*
X151171608Y-102676814D01*
X151171606Y-102676818D01*
X151137500Y-102804104D01*
X151137500Y-102935895D01*
X151171607Y-103063184D01*
X151171608Y-103063187D01*
X151180935Y-103079341D01*
X151187500Y-103103841D01*
X151187500Y-105176159D01*
X151180936Y-105200655D01*
X151171608Y-105216814D01*
X151171606Y-105216818D01*
X151137500Y-105344104D01*
X151137500Y-105475895D01*
X151171607Y-105603184D01*
X151171608Y-105603188D01*
X151237500Y-105717314D01*
X151330686Y-105810500D01*
X151372457Y-105834617D01*
X151444811Y-105876391D01*
X151444813Y-105876391D01*
X151444814Y-105876392D01*
X151545207Y-105903292D01*
X151572104Y-105910499D01*
X151572105Y-105910500D01*
X151572108Y-105910500D01*
X151703895Y-105910500D01*
X151703895Y-105910499D01*
X151831186Y-105876392D01*
X151945314Y-105810500D01*
X152038500Y-105717314D01*
X152104392Y-105603186D01*
X152138499Y-105475895D01*
X152138500Y-105475895D01*
X152138500Y-105344105D01*
X152138499Y-105344104D01*
X152104393Y-105216818D01*
X152104392Y-105216814D01*
X152095063Y-105200655D01*
X152088500Y-105176159D01*
X152088500Y-103103841D01*
X152095065Y-103079341D01*
X152099277Y-103072043D01*
X152104392Y-103063186D01*
X152138499Y-102935895D01*
X152138500Y-102935895D01*
X152138500Y-102804105D01*
X152138499Y-102804104D01*
X152104393Y-102676818D01*
X152104392Y-102676814D01*
X152095063Y-102660655D01*
X152088500Y-102636159D01*
X152088500Y-100503841D01*
X152095065Y-100479341D01*
X152104391Y-100463187D01*
X152104392Y-100463186D01*
X152138499Y-100335895D01*
X152138500Y-100335895D01*
X152138500Y-100204105D01*
X152138499Y-100204104D01*
X152104393Y-100076818D01*
X152104392Y-100076814D01*
X152095063Y-100060655D01*
X152088500Y-100036159D01*
X152088500Y-97730688D01*
X152057799Y-97616115D01*
X152057798Y-97616111D01*
X152006876Y-97527913D01*
X152006875Y-97527912D01*
X151998489Y-97513386D01*
X151613902Y-97128799D01*
X151601220Y-97106834D01*
X151596392Y-97088814D01*
X151530500Y-96974686D01*
X151437314Y-96881500D01*
X151323188Y-96815608D01*
X151323185Y-96815607D01*
X151305163Y-96810778D01*
X151283199Y-96798096D01*
X150324852Y-95839749D01*
X150310500Y-95805101D01*
X150310500Y-90911841D01*
X150317065Y-90887341D01*
X150321277Y-90880043D01*
X150326392Y-90871186D01*
X150360499Y-90743895D01*
X150360500Y-90743895D01*
X150360500Y-90612105D01*
X150360499Y-90612104D01*
X150326392Y-90484815D01*
X150326391Y-90484811D01*
X150260499Y-90370685D01*
X150167314Y-90277500D01*
X150130873Y-90256460D01*
X150053188Y-90211608D01*
X150053184Y-90211607D01*
X149925895Y-90177500D01*
X149925892Y-90177500D01*
X149794108Y-90177500D01*
X149794105Y-90177500D01*
X149666815Y-90211607D01*
X149666811Y-90211608D01*
X149552685Y-90277500D01*
X149552685Y-90277501D01*
X149459501Y-90370685D01*
X149459500Y-90370685D01*
X149393608Y-90484811D01*
X149393607Y-90484815D01*
X149359500Y-90612104D01*
X149359500Y-90743895D01*
X149393607Y-90871184D01*
X149393608Y-90871187D01*
X149393879Y-90871656D01*
X149393914Y-90871926D01*
X149394838Y-90874156D01*
X149394240Y-90874403D01*
X149398774Y-90908838D01*
X149386092Y-90930804D01*
X145388798Y-94928097D01*
X145366833Y-94940779D01*
X145348815Y-94945607D01*
X145348811Y-94945608D01*
X145234685Y-95011500D01*
X145234685Y-95011501D01*
X145141501Y-95104685D01*
X145141500Y-95104685D01*
X145075608Y-95218811D01*
X145075608Y-95218813D01*
X145070780Y-95236832D01*
X145058098Y-95258797D01*
X142991749Y-97325148D01*
X142957101Y-97339500D01*
X134091841Y-97339500D01*
X134067344Y-97332936D01*
X134051186Y-97323608D01*
X134051183Y-97323607D01*
X134051181Y-97323606D01*
X133923895Y-97289500D01*
X133923892Y-97289500D01*
X133792108Y-97289500D01*
X133792105Y-97289500D01*
X133664818Y-97323606D01*
X133664815Y-97323607D01*
X133664814Y-97323608D01*
X133648655Y-97332936D01*
X133624159Y-97339500D01*
X124412899Y-97339500D01*
X124378251Y-97325148D01*
X121783355Y-94730252D01*
X128839500Y-94730252D01*
X128839500Y-95769748D01*
X128851133Y-95828231D01*
X128868882Y-95854795D01*
X128895447Y-95894552D01*
X128922012Y-95912301D01*
X128961769Y-95938867D01*
X129020252Y-95950500D01*
X129020255Y-95950500D01*
X130059745Y-95950500D01*
X130059748Y-95950500D01*
X130118231Y-95938867D01*
X130184552Y-95894552D01*
X130228867Y-95828231D01*
X130240500Y-95769748D01*
X130240500Y-94730252D01*
X130228867Y-94671769D01*
X130202301Y-94632012D01*
X130184552Y-94605447D01*
X130144795Y-94578882D01*
X130118231Y-94561133D01*
X130059748Y-94549500D01*
X129020252Y-94549500D01*
X128961769Y-94561133D01*
X128895447Y-94605447D01*
X128865909Y-94649655D01*
X128851133Y-94671769D01*
X128839500Y-94730252D01*
X121783355Y-94730252D01*
X116788103Y-89735000D01*
X159042639Y-89735000D01*
X159755272Y-89735000D01*
X159663386Y-89773060D01*
X159593060Y-89843386D01*
X159555000Y-89935272D01*
X159555000Y-90034728D01*
X159593060Y-90126614D01*
X159663386Y-90196940D01*
X159755272Y-90235000D01*
X159042639Y-90235000D01*
X159096047Y-90363938D01*
X159183598Y-90494969D01*
X159295030Y-90606401D01*
X159426063Y-90693953D01*
X159571641Y-90754254D01*
X159571651Y-90754257D01*
X159726210Y-90785000D01*
X159905000Y-90785000D01*
X159905000Y-90235000D01*
X160405000Y-90235000D01*
X160405000Y-90785000D01*
X160583790Y-90785000D01*
X160738348Y-90754257D01*
X160738358Y-90754254D01*
X160883936Y-90693953D01*
X161014969Y-90606401D01*
X161126401Y-90494969D01*
X161213952Y-90363938D01*
X161267361Y-90235000D01*
X160554728Y-90235000D01*
X160646614Y-90196940D01*
X160716940Y-90126614D01*
X160755000Y-90034728D01*
X160755000Y-89935272D01*
X160716940Y-89843386D01*
X160646614Y-89773060D01*
X160554728Y-89735000D01*
X161267360Y-89735000D01*
X161213952Y-89606061D01*
X161126401Y-89475030D01*
X161014969Y-89363598D01*
X160883936Y-89276046D01*
X160738358Y-89215745D01*
X160738348Y-89215742D01*
X160583790Y-89185000D01*
X160405000Y-89185000D01*
X160405000Y-89735000D01*
X159905000Y-89735000D01*
X159905000Y-89185000D01*
X159726210Y-89185000D01*
X159571651Y-89215742D01*
X159571641Y-89215745D01*
X159426063Y-89276046D01*
X159295030Y-89363598D01*
X159183598Y-89475030D01*
X159096047Y-89606061D01*
X159042639Y-89735000D01*
X116788103Y-89735000D01*
X116053902Y-89000799D01*
X116041220Y-88978834D01*
X116036392Y-88960814D01*
X115970500Y-88846686D01*
X115877314Y-88753500D01*
X115763188Y-88687608D01*
X115763184Y-88687607D01*
X115635895Y-88653500D01*
X115635892Y-88653500D01*
X115504108Y-88653500D01*
X115504105Y-88653500D01*
X115376815Y-88687607D01*
X115376811Y-88687608D01*
X115262685Y-88753500D01*
X115262685Y-88753501D01*
X115169501Y-88846685D01*
X115169500Y-88846685D01*
X115103608Y-88960811D01*
X115103607Y-88960815D01*
X115069500Y-89088104D01*
X111214865Y-89088104D01*
X111717970Y-88584999D01*
X156594699Y-88584999D01*
X156594700Y-88585000D01*
X157120382Y-88585000D01*
X157069936Y-88635446D01*
X157027149Y-88709555D01*
X157005000Y-88792213D01*
X157005000Y-88877787D01*
X157027149Y-88960445D01*
X157069936Y-89034554D01*
X157120382Y-89085000D01*
X156594700Y-89085000D01*
X156643202Y-89202096D01*
X156728017Y-89329033D01*
X156835966Y-89436982D01*
X156962903Y-89521797D01*
X157103939Y-89580216D01*
X157103950Y-89580219D01*
X157179999Y-89595346D01*
X157180000Y-89595346D01*
X157180000Y-89123674D01*
X157204555Y-89137851D01*
X157287213Y-89160000D01*
X157572787Y-89160000D01*
X157655445Y-89137851D01*
X157680000Y-89123674D01*
X157680000Y-89595346D01*
X157756049Y-89580219D01*
X157756060Y-89580216D01*
X157897096Y-89521797D01*
X158024033Y-89436982D01*
X158131982Y-89329033D01*
X158216797Y-89202096D01*
X158265300Y-89085000D01*
X157739618Y-89085000D01*
X157790064Y-89034554D01*
X157832851Y-88960445D01*
X157855000Y-88877787D01*
X157855000Y-88792213D01*
X157832851Y-88709555D01*
X157790064Y-88635446D01*
X157739618Y-88585000D01*
X158265300Y-88585000D01*
X158265300Y-88584999D01*
X158216797Y-88467903D01*
X158131982Y-88340966D01*
X158024033Y-88233017D01*
X157897096Y-88148202D01*
X157756061Y-88089783D01*
X157756052Y-88089780D01*
X157680000Y-88074652D01*
X157680000Y-88546325D01*
X157655445Y-88532149D01*
X157572787Y-88510000D01*
X157287213Y-88510000D01*
X157204555Y-88532149D01*
X157180000Y-88546325D01*
X157180000Y-88074652D01*
X157103947Y-88089780D01*
X157103938Y-88089783D01*
X156962903Y-88148202D01*
X156835966Y-88233017D01*
X156728017Y-88340966D01*
X156643202Y-88467903D01*
X156594699Y-88584999D01*
X111717970Y-88584999D01*
X111904118Y-88398851D01*
X111938766Y-88384500D01*
X112059895Y-88384500D01*
X112059895Y-88384499D01*
X112187186Y-88350392D01*
X112301314Y-88284500D01*
X112394500Y-88191314D01*
X112460392Y-88077186D01*
X112494499Y-87949895D01*
X112494500Y-87949895D01*
X112494500Y-87818105D01*
X112494499Y-87818104D01*
X112460392Y-87690815D01*
X112460391Y-87690811D01*
X112394499Y-87576685D01*
X112301314Y-87483500D01*
X112187188Y-87417608D01*
X112187184Y-87417607D01*
X112059895Y-87383500D01*
X112059892Y-87383500D01*
X111928108Y-87383500D01*
X111928105Y-87383500D01*
X111800815Y-87417607D01*
X111800811Y-87417608D01*
X111686685Y-87483500D01*
X111686685Y-87483501D01*
X111593501Y-87576685D01*
X111593500Y-87576685D01*
X111527608Y-87690811D01*
X111527607Y-87690815D01*
X111493500Y-87818104D01*
X111493500Y-87939232D01*
X111479148Y-87973880D01*
X106729489Y-92723540D01*
X106673541Y-92779488D01*
X106673540Y-92779488D01*
X106633979Y-92848008D01*
X106633979Y-92848010D01*
X106613500Y-92924436D01*
X106613500Y-98632390D01*
X106599148Y-98667038D01*
X106513501Y-98752685D01*
X106513500Y-98752685D01*
X106447608Y-98866811D01*
X106447607Y-98866815D01*
X106413500Y-98994104D01*
X92194500Y-98994104D01*
X92194500Y-96433428D01*
X92880000Y-96433428D01*
X92880000Y-96606571D01*
X92907085Y-96777581D01*
X92907086Y-96777584D01*
X92960589Y-96942251D01*
X93039195Y-97096523D01*
X93039198Y-97096528D01*
X93043708Y-97102736D01*
X93043710Y-97102737D01*
X93497037Y-96649409D01*
X93514075Y-96712993D01*
X93579901Y-96827007D01*
X93672993Y-96920099D01*
X93787007Y-96985925D01*
X93850590Y-97002962D01*
X93397262Y-97456289D01*
X93403475Y-97460803D01*
X93557748Y-97539410D01*
X93722415Y-97592913D01*
X93722418Y-97592914D01*
X93893429Y-97620000D01*
X94066571Y-97620000D01*
X94237581Y-97592914D01*
X94237584Y-97592913D01*
X94402254Y-97539409D01*
X94556517Y-97460808D01*
X94556523Y-97460804D01*
X94562736Y-97456289D01*
X94109409Y-97002962D01*
X94172993Y-96985925D01*
X94287007Y-96920099D01*
X94380099Y-96827007D01*
X94445925Y-96712993D01*
X94462962Y-96649409D01*
X94916289Y-97102736D01*
X94920804Y-97096523D01*
X94920808Y-97096517D01*
X94999409Y-96942254D01*
X95052913Y-96777584D01*
X95052914Y-96777581D01*
X95080000Y-96606571D01*
X95080000Y-96433428D01*
X95052914Y-96262418D01*
X95052913Y-96262415D01*
X94999410Y-96097748D01*
X94920803Y-95943475D01*
X94916289Y-95937262D01*
X94462962Y-96390589D01*
X94445925Y-96327007D01*
X94380099Y-96212993D01*
X94287007Y-96119901D01*
X94172993Y-96054075D01*
X94109408Y-96037037D01*
X94562736Y-95583709D01*
X94562736Y-95583708D01*
X94556528Y-95579198D01*
X94556523Y-95579195D01*
X94402251Y-95500589D01*
X94237584Y-95447086D01*
X94237581Y-95447085D01*
X94066571Y-95420000D01*
X93893429Y-95420000D01*
X93722418Y-95447085D01*
X93722415Y-95447086D01*
X93557745Y-95500590D01*
X93403481Y-95579191D01*
X93403467Y-95579200D01*
X93397262Y-95583707D01*
X93397262Y-95583709D01*
X93850591Y-96037037D01*
X93787007Y-96054075D01*
X93672993Y-96119901D01*
X93579901Y-96212993D01*
X93514075Y-96327007D01*
X93497037Y-96390590D01*
X93043709Y-95937262D01*
X93043707Y-95937262D01*
X93039200Y-95943467D01*
X93039191Y-95943481D01*
X92960590Y-96097745D01*
X92907086Y-96262415D01*
X92907085Y-96262418D01*
X92880000Y-96433428D01*
X92194500Y-96433428D01*
X92194500Y-93876535D01*
X92929500Y-93876535D01*
X92929500Y-94083465D01*
X92969870Y-94286420D01*
X93049059Y-94477598D01*
X93164023Y-94649655D01*
X93310345Y-94795977D01*
X93482402Y-94910941D01*
X93673580Y-94990130D01*
X93876535Y-95030500D01*
X93876538Y-95030500D01*
X94083462Y-95030500D01*
X94083465Y-95030500D01*
X94286420Y-94990130D01*
X94477598Y-94910941D01*
X94649655Y-94795977D01*
X94795977Y-94649655D01*
X94910941Y-94477598D01*
X94990130Y-94286420D01*
X95030500Y-94083465D01*
X95030500Y-93876535D01*
X94990130Y-93673580D01*
X94910941Y-93482402D01*
X94795977Y-93310345D01*
X94649655Y-93164023D01*
X94477598Y-93049059D01*
X94477596Y-93049058D01*
X94286423Y-92969871D01*
X94286417Y-92969869D01*
X94204572Y-92953589D01*
X94083465Y-92929500D01*
X93876535Y-92929500D01*
X93775520Y-92949592D01*
X93673582Y-92969869D01*
X93673576Y-92969871D01*
X93482403Y-93049058D01*
X93310345Y-93164022D01*
X93164022Y-93310345D01*
X93049058Y-93482403D01*
X92969871Y-93673576D01*
X92969869Y-93673582D01*
X92949592Y-93775520D01*
X92929500Y-93876535D01*
X92194500Y-93876535D01*
X92194500Y-91336535D01*
X92929500Y-91336535D01*
X92929500Y-91543465D01*
X92969870Y-91746420D01*
X93049059Y-91937598D01*
X93164023Y-92109655D01*
X93310345Y-92255977D01*
X93482402Y-92370941D01*
X93673580Y-92450130D01*
X93876535Y-92490500D01*
X93876538Y-92490500D01*
X94083462Y-92490500D01*
X94083465Y-92490500D01*
X94286420Y-92450130D01*
X94477598Y-92370941D01*
X94649655Y-92255977D01*
X94795977Y-92109655D01*
X94910941Y-91937598D01*
X94990130Y-91746420D01*
X95030500Y-91543465D01*
X95030500Y-91336535D01*
X94990130Y-91133580D01*
X94910941Y-90942402D01*
X94795977Y-90770345D01*
X94649655Y-90624023D01*
X94631818Y-90612105D01*
X94564207Y-90566929D01*
X94477598Y-90509059D01*
X94443582Y-90494969D01*
X94286423Y-90429871D01*
X94286417Y-90429869D01*
X94204572Y-90413589D01*
X94083465Y-90389500D01*
X93876535Y-90389500D01*
X93775520Y-90409592D01*
X93673582Y-90429869D01*
X93673576Y-90429871D01*
X93482403Y-90509058D01*
X93310345Y-90624022D01*
X93164022Y-90770345D01*
X93049058Y-90942403D01*
X92969871Y-91133576D01*
X92969869Y-91133582D01*
X92949592Y-91235520D01*
X92929500Y-91336535D01*
X92194500Y-91336535D01*
X92194500Y-88030252D01*
X92929500Y-88030252D01*
X92929500Y-89769748D01*
X92941133Y-89828231D01*
X92958882Y-89854795D01*
X92985447Y-89894552D01*
X93012012Y-89912301D01*
X93051769Y-89938867D01*
X93110252Y-89950500D01*
X93110255Y-89950500D01*
X94849745Y-89950500D01*
X94849748Y-89950500D01*
X94908231Y-89938867D01*
X94974552Y-89894552D01*
X95018867Y-89828231D01*
X95030500Y-89769748D01*
X95030500Y-88030252D01*
X95018867Y-87971769D01*
X94992301Y-87932012D01*
X94974552Y-87905447D01*
X94927477Y-87873993D01*
X94906642Y-87842810D01*
X94913958Y-87806028D01*
X94920047Y-87798608D01*
X102099808Y-80618848D01*
X102134455Y-80604497D01*
X102169103Y-80618849D01*
X102183455Y-80653497D01*
X102175198Y-80680719D01*
X102161133Y-80701769D01*
X102149500Y-80760252D01*
X102149500Y-81799748D01*
X102161133Y-81858231D01*
X102178882Y-81884795D01*
X102205447Y-81924552D01*
X102232012Y-81942301D01*
X102271769Y-81968867D01*
X102330252Y-81980500D01*
X102330255Y-81980500D01*
X103369745Y-81980500D01*
X103369748Y-81980500D01*
X103428231Y-81968867D01*
X103494552Y-81924552D01*
X103538867Y-81858231D01*
X103550500Y-81799748D01*
X103550500Y-80760252D01*
X103538867Y-80701769D01*
X103506612Y-80653497D01*
X103494552Y-80635447D01*
X103448231Y-80604497D01*
X103428231Y-80591133D01*
X103369748Y-80579500D01*
X102330252Y-80579500D01*
X102271769Y-80591133D01*
X102250719Y-80605198D01*
X102213936Y-80612513D01*
X102182754Y-80591677D01*
X102175439Y-80554894D01*
X102188847Y-80529809D01*
X102274805Y-80443852D01*
X102309453Y-80429500D01*
X105580500Y-80429500D01*
X105615148Y-80443852D01*
X105629500Y-80478500D01*
X105629500Y-82149748D01*
X105641133Y-82208231D01*
X105657349Y-82232500D01*
X105685447Y-82274552D01*
X105708759Y-82290128D01*
X105751769Y-82318867D01*
X105810252Y-82330500D01*
X105810255Y-82330500D01*
X107549745Y-82330500D01*
X107549748Y-82330500D01*
X107608231Y-82318867D01*
X107674552Y-82274552D01*
X107718867Y-82208231D01*
X107730500Y-82149748D01*
X107730500Y-80478500D01*
X107744852Y-80443852D01*
X107779500Y-80429500D01*
X107920547Y-80429500D01*
X107955195Y-80443852D01*
X108267279Y-80755936D01*
X108281631Y-80790584D01*
X108277901Y-80809335D01*
X108209872Y-80973572D01*
X108209869Y-80973582D01*
X108189592Y-81075520D01*
X108169500Y-81176535D01*
X108169500Y-81383465D01*
X108209870Y-81586420D01*
X108289059Y-81777598D01*
X108404023Y-81949655D01*
X108550345Y-82095977D01*
X108722402Y-82210941D01*
X108913580Y-82290130D01*
X109116535Y-82330500D01*
X109116538Y-82330500D01*
X109323462Y-82330500D01*
X109323465Y-82330500D01*
X109526420Y-82290130D01*
X109717598Y-82210941D01*
X109889655Y-82095977D01*
X110035977Y-81949655D01*
X110150941Y-81777598D01*
X110230130Y-81586420D01*
X110270500Y-81383465D01*
X110270500Y-81176535D01*
X110230130Y-80973580D01*
X110150941Y-80782402D01*
X110035977Y-80610345D01*
X109934852Y-80509220D01*
X109920500Y-80474572D01*
X109920500Y-77951767D01*
X109934852Y-77917119D01*
X109969500Y-77902767D01*
X110004148Y-77917119D01*
X111773540Y-79686511D01*
X111829489Y-79742460D01*
X111898011Y-79782021D01*
X111933478Y-79791524D01*
X111974436Y-79802500D01*
X111974438Y-79802500D01*
X112053562Y-79802500D01*
X112615233Y-79802500D01*
X112649881Y-79816852D01*
X113328881Y-80495852D01*
X113343233Y-80530500D01*
X113328881Y-80565148D01*
X113294233Y-80579500D01*
X112490252Y-80579500D01*
X112431769Y-80591133D01*
X112365447Y-80635447D01*
X112335198Y-80680719D01*
X112321133Y-80701769D01*
X112309500Y-80760252D01*
X112309500Y-81799748D01*
X112321133Y-81858231D01*
X112338882Y-81884795D01*
X112365447Y-81924552D01*
X112392012Y-81942301D01*
X112431769Y-81968867D01*
X112490252Y-81980500D01*
X112490255Y-81980500D01*
X113529745Y-81980500D01*
X113529748Y-81980500D01*
X113588231Y-81968867D01*
X113654552Y-81924552D01*
X113698867Y-81858231D01*
X113710500Y-81799748D01*
X113710500Y-80995767D01*
X113724852Y-80961119D01*
X113759500Y-80946767D01*
X113794148Y-80961119D01*
X118303148Y-85470119D01*
X118317500Y-85504767D01*
X118317500Y-85731390D01*
X118303148Y-85766038D01*
X118217501Y-85851685D01*
X118217500Y-85851685D01*
X118151608Y-85965811D01*
X118151607Y-85965815D01*
X118117500Y-86093104D01*
X118117500Y-86224895D01*
X118151607Y-86352184D01*
X118151608Y-86352188D01*
X118217500Y-86466314D01*
X118275539Y-86524353D01*
X118289891Y-86559001D01*
X118275539Y-86593649D01*
X118193237Y-86675951D01*
X118127345Y-86790077D01*
X118127344Y-86790081D01*
X118093237Y-86917370D01*
X118093237Y-87049161D01*
X118127344Y-87176450D01*
X118127345Y-87176454D01*
X118193237Y-87290580D01*
X118286423Y-87383766D01*
X118328194Y-87407883D01*
X118400548Y-87449657D01*
X118400550Y-87449657D01*
X118400551Y-87449658D01*
X118500944Y-87476558D01*
X118527841Y-87483765D01*
X118527842Y-87483766D01*
X118527845Y-87483766D01*
X118659632Y-87483766D01*
X118659632Y-87483765D01*
X118786923Y-87449658D01*
X118901051Y-87383766D01*
X118994237Y-87290580D01*
X119060129Y-87176452D01*
X119094236Y-87049161D01*
X119094237Y-87049161D01*
X119094237Y-86977973D01*
X119108589Y-86943325D01*
X119459459Y-86592455D01*
X119459460Y-86592454D01*
X119499022Y-86523931D01*
X119519499Y-86447508D01*
X119519500Y-86447508D01*
X119519500Y-85354336D01*
X119510843Y-85322034D01*
X119499021Y-85277911D01*
X119499020Y-85277909D01*
X119499020Y-85277908D01*
X119459459Y-85209388D01*
X117942172Y-83692101D01*
X136913500Y-83692101D01*
X136913500Y-83823892D01*
X136947607Y-83951181D01*
X136947608Y-83951185D01*
X137013500Y-84065311D01*
X137071539Y-84123350D01*
X137085891Y-84157998D01*
X137071540Y-84192644D01*
X137029186Y-84235000D01*
X137013499Y-84250687D01*
X136947608Y-84364811D01*
X136947607Y-84364815D01*
X136913500Y-84492104D01*
X136913500Y-84623895D01*
X136947607Y-84751184D01*
X136947608Y-84751188D01*
X136993185Y-84830128D01*
X137013500Y-84865314D01*
X137106686Y-84958500D01*
X137148457Y-84982617D01*
X137220811Y-85024391D01*
X137220813Y-85024391D01*
X137220814Y-85024392D01*
X137321207Y-85051292D01*
X137348104Y-85058499D01*
X137348105Y-85058500D01*
X137469233Y-85058500D01*
X137503881Y-85072852D01*
X138985148Y-86554119D01*
X138999500Y-86588767D01*
X138999500Y-86879748D01*
X139011133Y-86938231D01*
X139014537Y-86943325D01*
X139055447Y-87004552D01*
X139082012Y-87022301D01*
X139121769Y-87048867D01*
X139180252Y-87060500D01*
X139180255Y-87060500D01*
X140219745Y-87060500D01*
X140219748Y-87060500D01*
X140278231Y-87048867D01*
X140344552Y-87004552D01*
X140388867Y-86938231D01*
X140400500Y-86879748D01*
X140400500Y-85840252D01*
X141539500Y-85840252D01*
X141539500Y-86879748D01*
X141551133Y-86938231D01*
X141554537Y-86943325D01*
X141595447Y-87004552D01*
X141622012Y-87022301D01*
X141661769Y-87048867D01*
X141720252Y-87060500D01*
X141720255Y-87060500D01*
X142759745Y-87060500D01*
X142759748Y-87060500D01*
X142818231Y-87048867D01*
X142884552Y-87004552D01*
X142928867Y-86938231D01*
X142940500Y-86879748D01*
X142940500Y-85840252D01*
X142928867Y-85781769D01*
X142902301Y-85742012D01*
X142884552Y-85715447D01*
X142844795Y-85688882D01*
X142818231Y-85671133D01*
X142759748Y-85659500D01*
X141720252Y-85659500D01*
X141661769Y-85671133D01*
X141595447Y-85715447D01*
X141569310Y-85754565D01*
X141551133Y-85781769D01*
X141539500Y-85840252D01*
X140400500Y-85840252D01*
X140388867Y-85781769D01*
X140362301Y-85742012D01*
X140344552Y-85715447D01*
X140304795Y-85688882D01*
X140278231Y-85671133D01*
X140219748Y-85659500D01*
X139180252Y-85659500D01*
X139136389Y-85668224D01*
X139121768Y-85671133D01*
X139053498Y-85716750D01*
X139016715Y-85724066D01*
X138991627Y-85710656D01*
X137928852Y-84647881D01*
X137914500Y-84613233D01*
X137914500Y-84492105D01*
X137914499Y-84492104D01*
X137880392Y-84364815D01*
X137880391Y-84364811D01*
X137833445Y-84283500D01*
X137814500Y-84250686D01*
X137756458Y-84192644D01*
X137742108Y-84157998D01*
X137756460Y-84123350D01*
X137806963Y-84072847D01*
X137841610Y-84058497D01*
X142033230Y-84058497D01*
X142067878Y-84072849D01*
X144065148Y-86070119D01*
X144079500Y-86104767D01*
X144079500Y-86879748D01*
X144091133Y-86938231D01*
X144094537Y-86943325D01*
X144135447Y-87004552D01*
X144162012Y-87022301D01*
X144201769Y-87048867D01*
X144260252Y-87060500D01*
X144260255Y-87060500D01*
X145299745Y-87060500D01*
X145299748Y-87060500D01*
X145358231Y-87048867D01*
X145424552Y-87004552D01*
X145468867Y-86938231D01*
X145480500Y-86879748D01*
X145480500Y-85840252D01*
X146619500Y-85840252D01*
X146619500Y-86879748D01*
X146631133Y-86938231D01*
X146634537Y-86943325D01*
X146675447Y-87004552D01*
X146702012Y-87022301D01*
X146741769Y-87048867D01*
X146800252Y-87060500D01*
X146800255Y-87060500D01*
X147839745Y-87060500D01*
X147839748Y-87060500D01*
X147898231Y-87048867D01*
X147964552Y-87004552D01*
X148008867Y-86938231D01*
X148020500Y-86879748D01*
X148020500Y-85840252D01*
X148008867Y-85781769D01*
X147982301Y-85742012D01*
X147964552Y-85715447D01*
X147924795Y-85688882D01*
X147898231Y-85671133D01*
X147839748Y-85659500D01*
X146800252Y-85659500D01*
X146741769Y-85671133D01*
X146675447Y-85715447D01*
X146649310Y-85754565D01*
X146631133Y-85781769D01*
X146619500Y-85840252D01*
X145480500Y-85840252D01*
X145468867Y-85781769D01*
X145442301Y-85742012D01*
X145424552Y-85715447D01*
X145384795Y-85688882D01*
X145358231Y-85671133D01*
X145299748Y-85659500D01*
X145299745Y-85659500D01*
X144524767Y-85659500D01*
X144490119Y-85645148D01*
X142362510Y-83517539D01*
X142362508Y-83517537D01*
X142362505Y-83517535D01*
X142362501Y-83517532D01*
X142353065Y-83512085D01*
X142353063Y-83512084D01*
X142293987Y-83477976D01*
X142217561Y-83457497D01*
X142217559Y-83457497D01*
X137841610Y-83457497D01*
X137806962Y-83443145D01*
X137721314Y-83357497D01*
X137607188Y-83291605D01*
X137607184Y-83291604D01*
X137479895Y-83257497D01*
X137479892Y-83257497D01*
X137348108Y-83257497D01*
X137348105Y-83257497D01*
X137220815Y-83291604D01*
X137220811Y-83291605D01*
X137106685Y-83357497D01*
X137106685Y-83357498D01*
X137013501Y-83450682D01*
X137013500Y-83450682D01*
X136947608Y-83564808D01*
X136947607Y-83564812D01*
X136913500Y-83692101D01*
X117942172Y-83692101D01*
X116817175Y-82567104D01*
X150629500Y-82567104D01*
X150629500Y-82698895D01*
X150663607Y-82826184D01*
X150663608Y-82826188D01*
X150729500Y-82940314D01*
X150815148Y-83025962D01*
X150829500Y-83060610D01*
X150829500Y-83464803D01*
X150815148Y-83499451D01*
X150738913Y-83575686D01*
X150738912Y-83575686D01*
X150673020Y-83689812D01*
X150673019Y-83689816D01*
X150638912Y-83817105D01*
X150638912Y-83948896D01*
X150673019Y-84076185D01*
X150673020Y-84076189D01*
X150735586Y-84184554D01*
X150738912Y-84190315D01*
X150832098Y-84283501D01*
X150873869Y-84307618D01*
X150946223Y-84349392D01*
X150946225Y-84349392D01*
X150946226Y-84349393D01*
X151046619Y-84376293D01*
X151073516Y-84383500D01*
X151073517Y-84383501D01*
X151073520Y-84383501D01*
X151205307Y-84383501D01*
X151205307Y-84383500D01*
X151332598Y-84349393D01*
X151446726Y-84283501D01*
X151539912Y-84190315D01*
X151605804Y-84076187D01*
X151639911Y-83948896D01*
X151639912Y-83948896D01*
X151639912Y-83817106D01*
X151639911Y-83817105D01*
X151622769Y-83753128D01*
X151617911Y-83734999D01*
X156594699Y-83734999D01*
X156594700Y-83735000D01*
X157120382Y-83735000D01*
X157069936Y-83785446D01*
X157027149Y-83859555D01*
X157005000Y-83942213D01*
X157005000Y-84027787D01*
X157027149Y-84110445D01*
X157069936Y-84184554D01*
X157120382Y-84235000D01*
X156594700Y-84235000D01*
X156643202Y-84352096D01*
X156728017Y-84479033D01*
X156835966Y-84586982D01*
X156962903Y-84671797D01*
X157103939Y-84730216D01*
X157103950Y-84730219D01*
X157179999Y-84745346D01*
X157180000Y-84745346D01*
X157180000Y-84273674D01*
X157204555Y-84287851D01*
X157287213Y-84310000D01*
X157572787Y-84310000D01*
X157655445Y-84287851D01*
X157680000Y-84273674D01*
X157680000Y-84745346D01*
X157756049Y-84730219D01*
X157756060Y-84730216D01*
X157897096Y-84671797D01*
X158024033Y-84586982D01*
X158131982Y-84479033D01*
X158216797Y-84352096D01*
X158265300Y-84235000D01*
X157739618Y-84235000D01*
X157790064Y-84184554D01*
X157832851Y-84110445D01*
X157855000Y-84027787D01*
X157855000Y-83942213D01*
X157832851Y-83859555D01*
X157790064Y-83785446D01*
X157739618Y-83735000D01*
X158265300Y-83735000D01*
X158265300Y-83734999D01*
X158216797Y-83617903D01*
X158131982Y-83490966D01*
X158024033Y-83383017D01*
X157897096Y-83298202D01*
X157756061Y-83239783D01*
X157756052Y-83239780D01*
X157680000Y-83224652D01*
X157680000Y-83696325D01*
X157655445Y-83682149D01*
X157572787Y-83660000D01*
X157287213Y-83660000D01*
X157204555Y-83682149D01*
X157180000Y-83696325D01*
X157180000Y-83224652D01*
X157103947Y-83239780D01*
X157103938Y-83239783D01*
X156962903Y-83298202D01*
X156835966Y-83383017D01*
X156728017Y-83490966D01*
X156643202Y-83617903D01*
X156594699Y-83734999D01*
X151617911Y-83734999D01*
X151611768Y-83712075D01*
X151605804Y-83689815D01*
X151605803Y-83689814D01*
X151605803Y-83689812D01*
X151539911Y-83575686D01*
X151539910Y-83575685D01*
X151444852Y-83480626D01*
X151430500Y-83445978D01*
X151430500Y-83060610D01*
X151444852Y-83025962D01*
X151530499Y-82940315D01*
X151530500Y-82940314D01*
X151596392Y-82826186D01*
X151630499Y-82698895D01*
X151630500Y-82698895D01*
X151630500Y-82585000D01*
X159042639Y-82585000D01*
X159755272Y-82585000D01*
X159663386Y-82623060D01*
X159593060Y-82693386D01*
X159555000Y-82785272D01*
X159555000Y-82884728D01*
X159593060Y-82976614D01*
X159663386Y-83046940D01*
X159755272Y-83085000D01*
X159042639Y-83085000D01*
X159096047Y-83213938D01*
X159183598Y-83344969D01*
X159295030Y-83456401D01*
X159426063Y-83543953D01*
X159571641Y-83604254D01*
X159571651Y-83604257D01*
X159726210Y-83635000D01*
X159905000Y-83635000D01*
X159905000Y-83085000D01*
X160405000Y-83085000D01*
X160405000Y-83635000D01*
X160583790Y-83635000D01*
X160738348Y-83604257D01*
X160738358Y-83604254D01*
X160883936Y-83543953D01*
X161014969Y-83456401D01*
X161126401Y-83344969D01*
X161213952Y-83213938D01*
X161267361Y-83085000D01*
X160554728Y-83085000D01*
X160646614Y-83046940D01*
X160716940Y-82976614D01*
X160755000Y-82884728D01*
X160755000Y-82785272D01*
X160716940Y-82693386D01*
X160646614Y-82623060D01*
X160554728Y-82585000D01*
X161267360Y-82585000D01*
X161213952Y-82456061D01*
X161126401Y-82325030D01*
X161014969Y-82213598D01*
X160883936Y-82126046D01*
X160738358Y-82065745D01*
X160738348Y-82065742D01*
X160583790Y-82035000D01*
X160405000Y-82035000D01*
X160405000Y-82585000D01*
X159905000Y-82585000D01*
X159905000Y-82035000D01*
X159726210Y-82035000D01*
X159571651Y-82065742D01*
X159571641Y-82065745D01*
X159426063Y-82126046D01*
X159295030Y-82213598D01*
X159183598Y-82325030D01*
X159096047Y-82456061D01*
X159042639Y-82585000D01*
X151630500Y-82585000D01*
X151630500Y-82567105D01*
X151630499Y-82567104D01*
X151596392Y-82439815D01*
X151596391Y-82439811D01*
X151530499Y-82325685D01*
X151437314Y-82232500D01*
X151323188Y-82166608D01*
X151323184Y-82166607D01*
X151195895Y-82132500D01*
X151195892Y-82132500D01*
X151064108Y-82132500D01*
X151064105Y-82132500D01*
X150936815Y-82166607D01*
X150936811Y-82166608D01*
X150822685Y-82232500D01*
X150822685Y-82232501D01*
X150729501Y-82325685D01*
X150729500Y-82325685D01*
X150663608Y-82439811D01*
X150663607Y-82439815D01*
X150629500Y-82567104D01*
X116817175Y-82567104D01*
X113101063Y-78850992D01*
X113101061Y-78850990D01*
X113101058Y-78850988D01*
X113101054Y-78850985D01*
X113088027Y-78843464D01*
X113088026Y-78843464D01*
X113032541Y-78811429D01*
X113032537Y-78811428D01*
X112956114Y-78790950D01*
X112956112Y-78790950D01*
X112596747Y-78790950D01*
X112562099Y-78776598D01*
X110611649Y-76826148D01*
X110597297Y-76791500D01*
X110611649Y-76756852D01*
X110646297Y-76742500D01*
X112121745Y-76742500D01*
X112121748Y-76742500D01*
X112180231Y-76730867D01*
X112246552Y-76686552D01*
X112290867Y-76620231D01*
X112302500Y-76561748D01*
X112302500Y-75588535D01*
X112741500Y-75588535D01*
X112741500Y-75795465D01*
X112761016Y-75893580D01*
X112781869Y-75998417D01*
X112781871Y-75998423D01*
X112783075Y-76001329D01*
X112861059Y-76189598D01*
X112976023Y-76361655D01*
X113122345Y-76507977D01*
X113294402Y-76622941D01*
X113485580Y-76702130D01*
X113688535Y-76742500D01*
X113688538Y-76742500D01*
X113895462Y-76742500D01*
X113895465Y-76742500D01*
X114098420Y-76702130D01*
X114289598Y-76622941D01*
X114461655Y-76507977D01*
X114607977Y-76361655D01*
X114722941Y-76189598D01*
X114802130Y-75998420D01*
X114842500Y-75795465D01*
X114842500Y-75588535D01*
X114802130Y-75385580D01*
X114722941Y-75194402D01*
X114607977Y-75022345D01*
X114461655Y-74876023D01*
X114393801Y-74830685D01*
X114376207Y-74818929D01*
X114289598Y-74761059D01*
X114167539Y-74710500D01*
X114098423Y-74681871D01*
X114098417Y-74681869D01*
X114016572Y-74665589D01*
X113895465Y-74641500D01*
X113688535Y-74641500D01*
X113587520Y-74661592D01*
X113485582Y-74681869D01*
X113485576Y-74681871D01*
X113294403Y-74761058D01*
X113122345Y-74876022D01*
X112976022Y-75022345D01*
X112861058Y-75194403D01*
X112781871Y-75385576D01*
X112781869Y-75385582D01*
X112781703Y-75386418D01*
X112741500Y-75588535D01*
X112302500Y-75588535D01*
X112302500Y-74822252D01*
X112290867Y-74763769D01*
X112264301Y-74724012D01*
X112246552Y-74697447D01*
X112205665Y-74670128D01*
X112180231Y-74653133D01*
X112121748Y-74641500D01*
X110382252Y-74641500D01*
X110323769Y-74653133D01*
X110257447Y-74697447D01*
X110214944Y-74761058D01*
X110213133Y-74763769D01*
X110201500Y-74822252D01*
X110201500Y-74822255D01*
X110201500Y-76297703D01*
X110187148Y-76332351D01*
X110152500Y-76346703D01*
X110117852Y-76332351D01*
X109206567Y-75421066D01*
X109192215Y-75386418D01*
X109192215Y-75265290D01*
X109192214Y-75265289D01*
X109172005Y-75189869D01*
X109158107Y-75137999D01*
X109158106Y-75137998D01*
X109158106Y-75137996D01*
X109092214Y-75023870D01*
X108999029Y-74930685D01*
X108884903Y-74864793D01*
X108884899Y-74864792D01*
X108757610Y-74830685D01*
X108757607Y-74830685D01*
X108625823Y-74830685D01*
X108625820Y-74830685D01*
X108498530Y-74864792D01*
X108498526Y-74864793D01*
X108384400Y-74930685D01*
X108384400Y-74930686D01*
X108334148Y-74980938D01*
X108299500Y-74995290D01*
X108264852Y-74980938D01*
X108250500Y-74946290D01*
X108250500Y-71063428D01*
X158945000Y-71063428D01*
X158945000Y-71236571D01*
X158972085Y-71407581D01*
X158972086Y-71407584D01*
X159025589Y-71572251D01*
X159104195Y-71726523D01*
X159104198Y-71726528D01*
X159108708Y-71732736D01*
X159108709Y-71732736D01*
X159562037Y-71279408D01*
X159579075Y-71342993D01*
X159644901Y-71457007D01*
X159737993Y-71550099D01*
X159852007Y-71615925D01*
X159915590Y-71632962D01*
X159462262Y-72086289D01*
X159468475Y-72090803D01*
X159622748Y-72169410D01*
X159787415Y-72222913D01*
X159787418Y-72222914D01*
X159958429Y-72250000D01*
X160131571Y-72250000D01*
X160302581Y-72222914D01*
X160302584Y-72222913D01*
X160467254Y-72169409D01*
X160621517Y-72090808D01*
X160621523Y-72090804D01*
X160627736Y-72086289D01*
X160174409Y-71632962D01*
X160237993Y-71615925D01*
X160352007Y-71550099D01*
X160445099Y-71457007D01*
X160510925Y-71342993D01*
X160527962Y-71279409D01*
X160981289Y-71732736D01*
X160985804Y-71726523D01*
X160985808Y-71726517D01*
X161064409Y-71572254D01*
X161117913Y-71407584D01*
X161117914Y-71407581D01*
X161145000Y-71236571D01*
X161145000Y-71063428D01*
X161117914Y-70892418D01*
X161117913Y-70892415D01*
X161064410Y-70727748D01*
X160985803Y-70573475D01*
X160981289Y-70567262D01*
X160527962Y-71020589D01*
X160510925Y-70957007D01*
X160445099Y-70842993D01*
X160352007Y-70749901D01*
X160237993Y-70684075D01*
X160174408Y-70667037D01*
X160627736Y-70213709D01*
X160627736Y-70213708D01*
X160621528Y-70209198D01*
X160621523Y-70209195D01*
X160467251Y-70130589D01*
X160302584Y-70077086D01*
X160302581Y-70077085D01*
X160131571Y-70050000D01*
X159958429Y-70050000D01*
X159787418Y-70077085D01*
X159787415Y-70077086D01*
X159622745Y-70130590D01*
X159468481Y-70209191D01*
X159468467Y-70209200D01*
X159462262Y-70213707D01*
X159462262Y-70213709D01*
X159915591Y-70667037D01*
X159852007Y-70684075D01*
X159737993Y-70749901D01*
X159644901Y-70842993D01*
X159579075Y-70957007D01*
X159562037Y-71020590D01*
X159108709Y-70567262D01*
X159108707Y-70567262D01*
X159104200Y-70573467D01*
X159104191Y-70573481D01*
X159025590Y-70727745D01*
X158972086Y-70892415D01*
X158972085Y-70892418D01*
X158945000Y-71063428D01*
X108250500Y-71063428D01*
X108250500Y-70531610D01*
X108264852Y-70496962D01*
X108350499Y-70411315D01*
X108350500Y-70411314D01*
X108416392Y-70297186D01*
X108450499Y-70169895D01*
X108450500Y-70169895D01*
X108450500Y-70038105D01*
X108450499Y-70038104D01*
X108416392Y-69910815D01*
X108416391Y-69910811D01*
X108350499Y-69796685D01*
X108257315Y-69703501D01*
X108257314Y-69703500D01*
X108243828Y-69695714D01*
X108143188Y-69637608D01*
X108143184Y-69637607D01*
X108015895Y-69603500D01*
X108015892Y-69603500D01*
X107884108Y-69603500D01*
X107884105Y-69603500D01*
X107756815Y-69637607D01*
X107756811Y-69637608D01*
X107708000Y-69665790D01*
X107670818Y-69670685D01*
X107641065Y-69647855D01*
X107634500Y-69623355D01*
X107634500Y-67058500D01*
X107648852Y-67023852D01*
X107683500Y-67009500D01*
X114512547Y-67009500D01*
X114547195Y-67023852D01*
X118171458Y-70648114D01*
X118171459Y-70648115D01*
X118286188Y-70724774D01*
X118413671Y-70777580D01*
X118549006Y-70804499D01*
X118549009Y-70804499D01*
X118686990Y-70804499D01*
X118686993Y-70804499D01*
X118822328Y-70777580D01*
X118949811Y-70724774D01*
X119064543Y-70648113D01*
X119162113Y-70550543D01*
X119238774Y-70435811D01*
X119291580Y-70308328D01*
X119318499Y-70172993D01*
X119318499Y-70035006D01*
X119291580Y-69899671D01*
X119238774Y-69772188D01*
X119218937Y-69742500D01*
X119162115Y-69657459D01*
X118041091Y-68536435D01*
X127747169Y-68536435D01*
X127747169Y-68668226D01*
X127781276Y-68795515D01*
X127781277Y-68795519D01*
X127838215Y-68894136D01*
X127847169Y-68909645D01*
X127940355Y-69002831D01*
X127982126Y-69026948D01*
X128054480Y-69068722D01*
X128054482Y-69068722D01*
X128054483Y-69068723D01*
X128120164Y-69086322D01*
X128181773Y-69102830D01*
X128181774Y-69102831D01*
X128181777Y-69102831D01*
X128313564Y-69102831D01*
X128313564Y-69102830D01*
X128440855Y-69068723D01*
X128554983Y-69002831D01*
X128648169Y-68909645D01*
X128650852Y-68904996D01*
X128680607Y-68882169D01*
X128693286Y-68880500D01*
X129683390Y-68880500D01*
X129718038Y-68894852D01*
X129732390Y-68929500D01*
X129718038Y-68964148D01*
X129647501Y-69034685D01*
X129647500Y-69034685D01*
X129581608Y-69148811D01*
X129581607Y-69148815D01*
X129547500Y-69276104D01*
X129547500Y-69407895D01*
X129581607Y-69535184D01*
X129581608Y-69535188D01*
X129646658Y-69647855D01*
X129647500Y-69649314D01*
X129740686Y-69742500D01*
X129782457Y-69766617D01*
X129854811Y-69808391D01*
X129854813Y-69808391D01*
X129854814Y-69808392D01*
X129955207Y-69835292D01*
X129982104Y-69842499D01*
X129982105Y-69842500D01*
X129982108Y-69842500D01*
X130027769Y-69842500D01*
X130037138Y-69843733D01*
X130037141Y-69843717D01*
X130040325Y-69844136D01*
X130040327Y-69844136D01*
X132302523Y-69844136D01*
X132327019Y-69850699D01*
X132343178Y-69860028D01*
X132343182Y-69860029D01*
X132470468Y-69894135D01*
X132470469Y-69894136D01*
X132470472Y-69894136D01*
X132602259Y-69894136D01*
X132602259Y-69894135D01*
X132729550Y-69860028D01*
X132843678Y-69794136D01*
X132936864Y-69700950D01*
X133002756Y-69586822D01*
X133036863Y-69459531D01*
X133036864Y-69459531D01*
X133036864Y-69327741D01*
X133036863Y-69327740D01*
X133002756Y-69200451D01*
X133002755Y-69200447D01*
X132949148Y-69107598D01*
X132936864Y-69086322D01*
X132843678Y-68993136D01*
X132729552Y-68927244D01*
X132729548Y-68927243D01*
X132602259Y-68893136D01*
X132602256Y-68893136D01*
X132470472Y-68893136D01*
X132470469Y-68893136D01*
X132343182Y-68927242D01*
X132343179Y-68927243D01*
X132343178Y-68927244D01*
X132327019Y-68936572D01*
X132302523Y-68943136D01*
X132257318Y-68943136D01*
X132222670Y-68928784D01*
X132208318Y-68894136D01*
X132214883Y-68869636D01*
X132240755Y-68824824D01*
X132240755Y-68824823D01*
X132240756Y-68824822D01*
X132274863Y-68697531D01*
X132274864Y-68697531D01*
X132274864Y-68565741D01*
X132274863Y-68565740D01*
X132261753Y-68516810D01*
X132259000Y-68506535D01*
X158994500Y-68506535D01*
X158994500Y-68713465D01*
X159016650Y-68824820D01*
X159034869Y-68916417D01*
X159034871Y-68916423D01*
X159105246Y-69086321D01*
X159114059Y-69107598D01*
X159229023Y-69279655D01*
X159375345Y-69425977D01*
X159547402Y-69540941D01*
X159738580Y-69620130D01*
X159941535Y-69660500D01*
X159941538Y-69660500D01*
X160148462Y-69660500D01*
X160148465Y-69660500D01*
X160351420Y-69620130D01*
X160542598Y-69540941D01*
X160714655Y-69425977D01*
X160860977Y-69279655D01*
X160975941Y-69107598D01*
X161055130Y-68916420D01*
X161095500Y-68713465D01*
X161095500Y-68506535D01*
X161055130Y-68303580D01*
X160975941Y-68112402D01*
X160860977Y-67940345D01*
X160714655Y-67794023D01*
X160542598Y-67679059D01*
X160542596Y-67679058D01*
X160351423Y-67599871D01*
X160351417Y-67599869D01*
X160269572Y-67583589D01*
X160148465Y-67559500D01*
X159941535Y-67559500D01*
X159840520Y-67579592D01*
X159738582Y-67599869D01*
X159738576Y-67599871D01*
X159547403Y-67679058D01*
X159375345Y-67794022D01*
X159229022Y-67940345D01*
X159114058Y-68112403D01*
X159034871Y-68303576D01*
X159034869Y-68303582D01*
X159030744Y-68324321D01*
X158994500Y-68506535D01*
X132259000Y-68506535D01*
X132240756Y-68438451D01*
X132240755Y-68438447D01*
X132174863Y-68324321D01*
X132081678Y-68231136D01*
X131967552Y-68165244D01*
X131967548Y-68165243D01*
X131840259Y-68131136D01*
X131840256Y-68131136D01*
X131708472Y-68131136D01*
X131708469Y-68131136D01*
X131581179Y-68165243D01*
X131581175Y-68165244D01*
X131467049Y-68231136D01*
X131467049Y-68231137D01*
X131433038Y-68265148D01*
X131398390Y-68279500D01*
X128652948Y-68279500D01*
X128618300Y-68265148D01*
X128554983Y-68201831D01*
X128440857Y-68135939D01*
X128440853Y-68135938D01*
X128313564Y-68101831D01*
X128313561Y-68101831D01*
X128181777Y-68101831D01*
X128181774Y-68101831D01*
X128054484Y-68135938D01*
X128054480Y-68135939D01*
X127940354Y-68201831D01*
X127940354Y-68201832D01*
X127847170Y-68295016D01*
X127847169Y-68295016D01*
X127781277Y-68409142D01*
X127781276Y-68409146D01*
X127747169Y-68536435D01*
X118041091Y-68536435D01*
X115848304Y-66343648D01*
X115833952Y-66309000D01*
X115848304Y-66274352D01*
X116156121Y-65966535D01*
X158994500Y-65966535D01*
X158994500Y-66173465D01*
X159034870Y-66376420D01*
X159114059Y-66567598D01*
X159229023Y-66739655D01*
X159375345Y-66885977D01*
X159547402Y-67000941D01*
X159738580Y-67080130D01*
X159941535Y-67120500D01*
X159941538Y-67120500D01*
X160148462Y-67120500D01*
X160148465Y-67120500D01*
X160351420Y-67080130D01*
X160542598Y-67000941D01*
X160714655Y-66885977D01*
X160860977Y-66739655D01*
X160975941Y-66567598D01*
X161055130Y-66376420D01*
X161095500Y-66173465D01*
X161095500Y-65966535D01*
X161055130Y-65763580D01*
X160975941Y-65572402D01*
X160860977Y-65400345D01*
X160714655Y-65254023D01*
X160542598Y-65139059D01*
X160476715Y-65111769D01*
X160351423Y-65059871D01*
X160351417Y-65059869D01*
X160269572Y-65043589D01*
X160148465Y-65019500D01*
X159941535Y-65019500D01*
X159840520Y-65039592D01*
X159738582Y-65059869D01*
X159738576Y-65059871D01*
X159547403Y-65139058D01*
X159375345Y-65254022D01*
X159229022Y-65400345D01*
X159114058Y-65572403D01*
X159034871Y-65763576D01*
X159034869Y-65763582D01*
X159034610Y-65764886D01*
X158994500Y-65966535D01*
X116156121Y-65966535D01*
X116193176Y-65929480D01*
X118696122Y-63426535D01*
X158994500Y-63426535D01*
X158994500Y-63633465D01*
X159034870Y-63836420D01*
X159114059Y-64027598D01*
X159229023Y-64199655D01*
X159375345Y-64345977D01*
X159547402Y-64460941D01*
X159738580Y-64540130D01*
X159941535Y-64580500D01*
X159941538Y-64580500D01*
X160148462Y-64580500D01*
X160148465Y-64580500D01*
X160351420Y-64540130D01*
X160542598Y-64460941D01*
X160714655Y-64345977D01*
X160860977Y-64199655D01*
X160975941Y-64027598D01*
X161055130Y-63836420D01*
X161095500Y-63633465D01*
X161095500Y-63426535D01*
X161055130Y-63223580D01*
X160975941Y-63032402D01*
X160860977Y-62860345D01*
X160714655Y-62714023D01*
X160542598Y-62599059D01*
X160542596Y-62599058D01*
X160351423Y-62519871D01*
X160351417Y-62519869D01*
X160269572Y-62503589D01*
X160148465Y-62479500D01*
X159941535Y-62479500D01*
X159840520Y-62499592D01*
X159738582Y-62519869D01*
X159738576Y-62519871D01*
X159547403Y-62599058D01*
X159375345Y-62714022D01*
X159229022Y-62860345D01*
X159114058Y-63032403D01*
X159034871Y-63223576D01*
X159034869Y-63223582D01*
X159014592Y-63325520D01*
X158994500Y-63426535D01*
X118696122Y-63426535D01*
X118733177Y-63389480D01*
X118923805Y-63198852D01*
X118958453Y-63184500D01*
X140530994Y-63184500D01*
X140666328Y-63157580D01*
X140793811Y-63104775D01*
X140908543Y-63028114D01*
X141260114Y-62676543D01*
X141260115Y-62676542D01*
X142231805Y-61704852D01*
X142266453Y-61690500D01*
X158945500Y-61690500D01*
X158980148Y-61704852D01*
X158994500Y-61739500D01*
X158994500Y-61859748D01*
X159006133Y-61918231D01*
X159020602Y-61939885D01*
X159050447Y-61984552D01*
X159077012Y-62002301D01*
X159116769Y-62028867D01*
X159175252Y-62040500D01*
X159175255Y-62040500D01*
X160914745Y-62040500D01*
X160914748Y-62040500D01*
X160973231Y-62028867D01*
X161039552Y-61984552D01*
X161083867Y-61918231D01*
X161095500Y-61859748D01*
X161095500Y-60120252D01*
X161083867Y-60061769D01*
X161057301Y-60022012D01*
X161039552Y-59995447D01*
X160999795Y-59968882D01*
X160973231Y-59951133D01*
X160914748Y-59939500D01*
X159175252Y-59939500D01*
X159116769Y-59951133D01*
X159050447Y-59995447D01*
X159006133Y-60061769D01*
X158994500Y-60120252D01*
X158994500Y-60120255D01*
X158994500Y-60240500D01*
X158980148Y-60275148D01*
X158945500Y-60289500D01*
X141887002Y-60289500D01*
X141751679Y-60316418D01*
X141751670Y-60316420D01*
X141624192Y-60369223D01*
X141509457Y-60445885D01*
X141500148Y-60455195D01*
X141465500Y-60469547D01*
X141430852Y-60455195D01*
X141416500Y-60420547D01*
X141416500Y-56979500D01*
X141430852Y-56944852D01*
X141465500Y-56930500D01*
X141585745Y-56930500D01*
X141585748Y-56930500D01*
X141644231Y-56918867D01*
X141710552Y-56874552D01*
X141754867Y-56808231D01*
X141766500Y-56749748D01*
X141766500Y-55776535D01*
X142205500Y-55776535D01*
X142205500Y-55983465D01*
X142223308Y-56072993D01*
X142245869Y-56186417D01*
X142245871Y-56186423D01*
X142325058Y-56377596D01*
X142325059Y-56377598D01*
X142440023Y-56549655D01*
X142586345Y-56695977D01*
X142758402Y-56810941D01*
X142949580Y-56890130D01*
X143152535Y-56930500D01*
X143152538Y-56930500D01*
X143359462Y-56930500D01*
X143359465Y-56930500D01*
X143562420Y-56890130D01*
X143753598Y-56810941D01*
X143925655Y-56695977D01*
X144071977Y-56549655D01*
X144186941Y-56377598D01*
X144266130Y-56186420D01*
X144306500Y-55983465D01*
X144306500Y-55776535D01*
X144745500Y-55776535D01*
X144745500Y-55983465D01*
X144763308Y-56072993D01*
X144785869Y-56186417D01*
X144785871Y-56186423D01*
X144865058Y-56377596D01*
X144865059Y-56377598D01*
X144980023Y-56549655D01*
X145126345Y-56695977D01*
X145298402Y-56810941D01*
X145489580Y-56890130D01*
X145692535Y-56930500D01*
X145692538Y-56930500D01*
X145899462Y-56930500D01*
X145899465Y-56930500D01*
X146102420Y-56890130D01*
X146293598Y-56810941D01*
X146465655Y-56695977D01*
X146611977Y-56549655D01*
X146726941Y-56377598D01*
X146806130Y-56186420D01*
X146846500Y-55983465D01*
X146846500Y-55776535D01*
X147285500Y-55776535D01*
X147285500Y-55983465D01*
X147303308Y-56072993D01*
X147325869Y-56186417D01*
X147325871Y-56186423D01*
X147405058Y-56377596D01*
X147405059Y-56377598D01*
X147520023Y-56549655D01*
X147666345Y-56695977D01*
X147838402Y-56810941D01*
X148029580Y-56890130D01*
X148232535Y-56930500D01*
X148232538Y-56930500D01*
X148439462Y-56930500D01*
X148439465Y-56930500D01*
X148642420Y-56890130D01*
X148833598Y-56810941D01*
X149005655Y-56695977D01*
X149151977Y-56549655D01*
X149266941Y-56377598D01*
X149346130Y-56186420D01*
X149386500Y-55983465D01*
X149386500Y-55776535D01*
X149825500Y-55776535D01*
X149825500Y-55983465D01*
X149843308Y-56072993D01*
X149865869Y-56186417D01*
X149865871Y-56186423D01*
X149945058Y-56377596D01*
X149945059Y-56377598D01*
X150060023Y-56549655D01*
X150206345Y-56695977D01*
X150378402Y-56810941D01*
X150569580Y-56890130D01*
X150772535Y-56930500D01*
X150772538Y-56930500D01*
X150979462Y-56930500D01*
X150979465Y-56930500D01*
X151182420Y-56890130D01*
X151373598Y-56810941D01*
X151545655Y-56695977D01*
X151691977Y-56549655D01*
X151806941Y-56377598D01*
X151886130Y-56186420D01*
X151926500Y-55983465D01*
X151926500Y-55793428D01*
X152316000Y-55793428D01*
X152316000Y-55966571D01*
X152343085Y-56137581D01*
X152343086Y-56137584D01*
X152396589Y-56302251D01*
X152475195Y-56456523D01*
X152475198Y-56456528D01*
X152479708Y-56462736D01*
X152479709Y-56462736D01*
X152933037Y-56009408D01*
X152950075Y-56072993D01*
X153015901Y-56187007D01*
X153108993Y-56280099D01*
X153223007Y-56345925D01*
X153286590Y-56362962D01*
X152833262Y-56816289D01*
X152839475Y-56820803D01*
X152993748Y-56899410D01*
X153158415Y-56952913D01*
X153158418Y-56952914D01*
X153329429Y-56980000D01*
X153502571Y-56980000D01*
X153673581Y-56952914D01*
X153673584Y-56952913D01*
X153838254Y-56899409D01*
X153992517Y-56820808D01*
X153992523Y-56820804D01*
X153998736Y-56816289D01*
X153545409Y-56362962D01*
X153608993Y-56345925D01*
X153723007Y-56280099D01*
X153816099Y-56187007D01*
X153881925Y-56072993D01*
X153898962Y-56009409D01*
X154352289Y-56462736D01*
X154356804Y-56456523D01*
X154356808Y-56456517D01*
X154435409Y-56302254D01*
X154488913Y-56137584D01*
X154488914Y-56137581D01*
X154516000Y-55966571D01*
X154516000Y-55793428D01*
X154488914Y-55622418D01*
X154488913Y-55622415D01*
X154435410Y-55457748D01*
X154356803Y-55303475D01*
X154352289Y-55297262D01*
X153898962Y-55750589D01*
X153881925Y-55687007D01*
X153816099Y-55572993D01*
X153723007Y-55479901D01*
X153608993Y-55414075D01*
X153545408Y-55397037D01*
X153998736Y-54943709D01*
X153998736Y-54943708D01*
X153992528Y-54939198D01*
X153992523Y-54939195D01*
X153838251Y-54860589D01*
X153673584Y-54807086D01*
X153673581Y-54807085D01*
X153502571Y-54780000D01*
X153329429Y-54780000D01*
X153158418Y-54807085D01*
X153158415Y-54807086D01*
X152993745Y-54860590D01*
X152839481Y-54939191D01*
X152839467Y-54939200D01*
X152833262Y-54943707D01*
X152833262Y-54943709D01*
X153286591Y-55397037D01*
X153223007Y-55414075D01*
X153108993Y-55479901D01*
X153015901Y-55572993D01*
X152950075Y-55687007D01*
X152933037Y-55750590D01*
X152479709Y-55297262D01*
X152479707Y-55297262D01*
X152475200Y-55303467D01*
X152475191Y-55303481D01*
X152396590Y-55457745D01*
X152343086Y-55622415D01*
X152343085Y-55622418D01*
X152316000Y-55793428D01*
X151926500Y-55793428D01*
X151926500Y-55776535D01*
X151886130Y-55573580D01*
X151806941Y-55382402D01*
X151691977Y-55210345D01*
X151545655Y-55064023D01*
X151373598Y-54949059D01*
X151360680Y-54943708D01*
X151182423Y-54869871D01*
X151182417Y-54869869D01*
X151100572Y-54853589D01*
X150979465Y-54829500D01*
X150772535Y-54829500D01*
X150671520Y-54849592D01*
X150569582Y-54869869D01*
X150569576Y-54869871D01*
X150378403Y-54949058D01*
X150206345Y-55064022D01*
X150060022Y-55210345D01*
X149945058Y-55382403D01*
X149865871Y-55573576D01*
X149865869Y-55573582D01*
X149845592Y-55675520D01*
X149825500Y-55776535D01*
X149386500Y-55776535D01*
X149346130Y-55573580D01*
X149266941Y-55382402D01*
X149151977Y-55210345D01*
X149005655Y-55064023D01*
X148833598Y-54949059D01*
X148820680Y-54943708D01*
X148642423Y-54869871D01*
X148642417Y-54869869D01*
X148560572Y-54853589D01*
X148439465Y-54829500D01*
X148232535Y-54829500D01*
X148131520Y-54849592D01*
X148029582Y-54869869D01*
X148029576Y-54869871D01*
X147838403Y-54949058D01*
X147666345Y-55064022D01*
X147520022Y-55210345D01*
X147405058Y-55382403D01*
X147325871Y-55573576D01*
X147325869Y-55573582D01*
X147305592Y-55675520D01*
X147285500Y-55776535D01*
X146846500Y-55776535D01*
X146806130Y-55573580D01*
X146726941Y-55382402D01*
X146611977Y-55210345D01*
X146465655Y-55064023D01*
X146293598Y-54949059D01*
X146280680Y-54943708D01*
X146102423Y-54869871D01*
X146102417Y-54869869D01*
X146020572Y-54853589D01*
X145899465Y-54829500D01*
X145692535Y-54829500D01*
X145591520Y-54849592D01*
X145489582Y-54869869D01*
X145489576Y-54869871D01*
X145298403Y-54949058D01*
X145126345Y-55064022D01*
X144980022Y-55210345D01*
X144865058Y-55382403D01*
X144785871Y-55573576D01*
X144785869Y-55573582D01*
X144765592Y-55675520D01*
X144745500Y-55776535D01*
X144306500Y-55776535D01*
X144266130Y-55573580D01*
X144186941Y-55382402D01*
X144071977Y-55210345D01*
X143925655Y-55064023D01*
X143753598Y-54949059D01*
X143740680Y-54943708D01*
X143562423Y-54869871D01*
X143562417Y-54869869D01*
X143480572Y-54853589D01*
X143359465Y-54829500D01*
X143152535Y-54829500D01*
X143051520Y-54849592D01*
X142949582Y-54869869D01*
X142949576Y-54869871D01*
X142758403Y-54949058D01*
X142586345Y-55064022D01*
X142440022Y-55210345D01*
X142325058Y-55382403D01*
X142245871Y-55573576D01*
X142245869Y-55573582D01*
X142225592Y-55675520D01*
X142205500Y-55776535D01*
X141766500Y-55776535D01*
X141766500Y-55010252D01*
X141754867Y-54951769D01*
X141728301Y-54912012D01*
X141710552Y-54885447D01*
X141670795Y-54858882D01*
X141644231Y-54841133D01*
X141585748Y-54829500D01*
X139846252Y-54829500D01*
X139787769Y-54841133D01*
X139721447Y-54885447D01*
X139678944Y-54949058D01*
X139677133Y-54951769D01*
X139665500Y-55010252D01*
X139665500Y-56749748D01*
X139677133Y-56808231D01*
X139685534Y-56820804D01*
X139721447Y-56874552D01*
X139744759Y-56890128D01*
X139787769Y-56918867D01*
X139846252Y-56930500D01*
X139966500Y-56930500D01*
X140001148Y-56944852D01*
X140015500Y-56979500D01*
X140015500Y-61734500D01*
X140001148Y-61769148D01*
X139966500Y-61783500D01*
X118579002Y-61783500D01*
X118443679Y-61810418D01*
X118443670Y-61810420D01*
X118316192Y-61863223D01*
X118201457Y-61939885D01*
X114547195Y-65594148D01*
X114512547Y-65608500D01*
X106865001Y-65608500D01*
X106729681Y-65635417D01*
X106729670Y-65635420D01*
X106602192Y-65688223D01*
X106487460Y-65764883D01*
X106389883Y-65862460D01*
X106313223Y-65977192D01*
X106260420Y-66104670D01*
X106260417Y-66104681D01*
X106233500Y-66240001D01*
X106233500Y-75623783D01*
X106249139Y-75702402D01*
X106260420Y-75759114D01*
X106313225Y-75886597D01*
X106364561Y-75963427D01*
X106389885Y-76001328D01*
X108505148Y-78116591D01*
X108519500Y-78151239D01*
X108519500Y-79016951D01*
X108505148Y-79051599D01*
X108470500Y-79065951D01*
X108451751Y-79062222D01*
X108435328Y-79055420D01*
X108435320Y-79055418D01*
X108299997Y-79028500D01*
X108299994Y-79028500D01*
X108299993Y-79028500D01*
X102067994Y-79028500D01*
X101930006Y-79028500D01*
X101930002Y-79028500D01*
X101794679Y-79055418D01*
X101794670Y-79055420D01*
X101667192Y-79108223D01*
X101552457Y-79184885D01*
X93435885Y-87301457D01*
X93359223Y-87416192D01*
X93306420Y-87543670D01*
X93306417Y-87543681D01*
X93287639Y-87638087D01*
X93287639Y-87638088D01*
X93279500Y-87679003D01*
X93279500Y-87800500D01*
X93265148Y-87835148D01*
X93230500Y-87849500D01*
X93110252Y-87849500D01*
X93051769Y-87861133D01*
X92985447Y-87905447D01*
X92941133Y-87971769D01*
X92929500Y-88030252D01*
X92194500Y-88030252D01*
X92194500Y-83716535D01*
X92929500Y-83716535D01*
X92929500Y-83923465D01*
X92935014Y-83951185D01*
X92969869Y-84126417D01*
X92969871Y-84126423D01*
X93021343Y-84250686D01*
X93049059Y-84317598D01*
X93080608Y-84364815D01*
X93156925Y-84479033D01*
X93164023Y-84489655D01*
X93310345Y-84635977D01*
X93482402Y-84750941D01*
X93673580Y-84830130D01*
X93876535Y-84870500D01*
X93876538Y-84870500D01*
X94083462Y-84870500D01*
X94083465Y-84870500D01*
X94286420Y-84830130D01*
X94477598Y-84750941D01*
X94649655Y-84635977D01*
X94795977Y-84489655D01*
X94910941Y-84317598D01*
X94990130Y-84126420D01*
X95030500Y-83923465D01*
X95030500Y-83716535D01*
X94990130Y-83513580D01*
X94910941Y-83322402D01*
X94795977Y-83150345D01*
X94649655Y-83004023D01*
X94608634Y-82976614D01*
X94554307Y-82940314D01*
X94477598Y-82889059D01*
X94477596Y-82889058D01*
X94286423Y-82809871D01*
X94286417Y-82809869D01*
X94204572Y-82793589D01*
X94083465Y-82769500D01*
X93876535Y-82769500D01*
X93775520Y-82789592D01*
X93673582Y-82809869D01*
X93673576Y-82809871D01*
X93482403Y-82889058D01*
X93310345Y-83004022D01*
X93164022Y-83150345D01*
X93049058Y-83322403D01*
X92969871Y-83513576D01*
X92969869Y-83513582D01*
X92957516Y-83575686D01*
X92929500Y-83716535D01*
X92194500Y-83716535D01*
X92194500Y-81176535D01*
X92929500Y-81176535D01*
X92929500Y-81383465D01*
X92969870Y-81586420D01*
X93049059Y-81777598D01*
X93164023Y-81949655D01*
X93310345Y-82095977D01*
X93482402Y-82210941D01*
X93673580Y-82290130D01*
X93876535Y-82330500D01*
X93876538Y-82330500D01*
X94083462Y-82330500D01*
X94083465Y-82330500D01*
X94286420Y-82290130D01*
X94477598Y-82210941D01*
X94649655Y-82095977D01*
X94795977Y-81949655D01*
X94910941Y-81777598D01*
X94990130Y-81586420D01*
X95030500Y-81383465D01*
X95030500Y-81176535D01*
X94990130Y-80973580D01*
X94910941Y-80782402D01*
X94795977Y-80610345D01*
X94649655Y-80464023D01*
X94597987Y-80429500D01*
X94564207Y-80406929D01*
X94477598Y-80349059D01*
X94477596Y-80349058D01*
X94286423Y-80269871D01*
X94286417Y-80269869D01*
X94204572Y-80253589D01*
X94083465Y-80229500D01*
X93876535Y-80229500D01*
X93775520Y-80249592D01*
X93673582Y-80269869D01*
X93673576Y-80269871D01*
X93482403Y-80349058D01*
X93310345Y-80464022D01*
X93164022Y-80610345D01*
X93049058Y-80782403D01*
X92969871Y-80973576D01*
X92969869Y-80973582D01*
X92949592Y-81075520D01*
X92929500Y-81176535D01*
X92194500Y-81176535D01*
X92194500Y-78636535D01*
X92929500Y-78636535D01*
X92929500Y-78843465D01*
X92956290Y-78978150D01*
X92969869Y-79046417D01*
X92969871Y-79046423D01*
X93027224Y-79184885D01*
X93049059Y-79237598D01*
X93164023Y-79409655D01*
X93310345Y-79555977D01*
X93482402Y-79670941D01*
X93673580Y-79750130D01*
X93876535Y-79790500D01*
X93876538Y-79790500D01*
X94083462Y-79790500D01*
X94083465Y-79790500D01*
X94286420Y-79750130D01*
X94477598Y-79670941D01*
X94649655Y-79555977D01*
X94795977Y-79409655D01*
X94910941Y-79237598D01*
X94990130Y-79046420D01*
X95030500Y-78843465D01*
X95030500Y-78636535D01*
X94990130Y-78433580D01*
X94910941Y-78242402D01*
X94795977Y-78070345D01*
X94649655Y-77924023D01*
X94639322Y-77917119D01*
X94514133Y-77833471D01*
X94477598Y-77809059D01*
X94477596Y-77809058D01*
X94286423Y-77729871D01*
X94286417Y-77729869D01*
X94204572Y-77713589D01*
X94083465Y-77689500D01*
X93876535Y-77689500D01*
X93775520Y-77709592D01*
X93673582Y-77729869D01*
X93673576Y-77729871D01*
X93482403Y-77809058D01*
X93310345Y-77924022D01*
X93164022Y-78070345D01*
X93049058Y-78242403D01*
X92969871Y-78433576D01*
X92969869Y-78433582D01*
X92949592Y-78535520D01*
X92929500Y-78636535D01*
X92194500Y-78636535D01*
X92194500Y-76096535D01*
X92929500Y-76096535D01*
X92929500Y-76303465D01*
X92941075Y-76361655D01*
X92969869Y-76506417D01*
X92969871Y-76506423D01*
X93049058Y-76697596D01*
X93049059Y-76697598D01*
X93164023Y-76869655D01*
X93310345Y-77015977D01*
X93482402Y-77130941D01*
X93673580Y-77210130D01*
X93876535Y-77250500D01*
X93876538Y-77250500D01*
X94083462Y-77250500D01*
X94083465Y-77250500D01*
X94286420Y-77210130D01*
X94477598Y-77130941D01*
X94649655Y-77015977D01*
X94795977Y-76869655D01*
X94910941Y-76697598D01*
X94990130Y-76506420D01*
X95030500Y-76303465D01*
X95030500Y-76096535D01*
X94990130Y-75893580D01*
X94910941Y-75702402D01*
X94795977Y-75530345D01*
X94649655Y-75384023D01*
X94477598Y-75269059D01*
X94477596Y-75269058D01*
X94286423Y-75189871D01*
X94286417Y-75189869D01*
X94204572Y-75173589D01*
X94083465Y-75149500D01*
X93876535Y-75149500D01*
X93775520Y-75169592D01*
X93673582Y-75189869D01*
X93673576Y-75189871D01*
X93482403Y-75269058D01*
X93310345Y-75384022D01*
X93164022Y-75530345D01*
X93049058Y-75702403D01*
X92969871Y-75893576D01*
X92969869Y-75893582D01*
X92949592Y-75995520D01*
X92929500Y-76096535D01*
X92194500Y-76096535D01*
X92194500Y-73556535D01*
X92929500Y-73556535D01*
X92929500Y-73763465D01*
X92969870Y-73966420D01*
X93049059Y-74157598D01*
X93164023Y-74329655D01*
X93310345Y-74475977D01*
X93482402Y-74590941D01*
X93673580Y-74670130D01*
X93876535Y-74710500D01*
X93876538Y-74710500D01*
X94083462Y-74710500D01*
X94083465Y-74710500D01*
X94286420Y-74670130D01*
X94477598Y-74590941D01*
X94649655Y-74475977D01*
X94795977Y-74329655D01*
X94910941Y-74157598D01*
X94990130Y-73966420D01*
X95030500Y-73763465D01*
X95030500Y-73556535D01*
X94990130Y-73353580D01*
X94910941Y-73162402D01*
X94795977Y-72990345D01*
X94649655Y-72844023D01*
X94477598Y-72729059D01*
X94477596Y-72729058D01*
X94286423Y-72649871D01*
X94286417Y-72649869D01*
X94204572Y-72633589D01*
X94083465Y-72609500D01*
X93876535Y-72609500D01*
X93775520Y-72629592D01*
X93673582Y-72649869D01*
X93673576Y-72649871D01*
X93482403Y-72729058D01*
X93310345Y-72844022D01*
X93164022Y-72990345D01*
X93049058Y-73162403D01*
X92969871Y-73353576D01*
X92969869Y-73353582D01*
X92949592Y-73455520D01*
X92929500Y-73556535D01*
X92194500Y-73556535D01*
X92194500Y-71016535D01*
X92929500Y-71016535D01*
X92929500Y-71223465D01*
X92956290Y-71358150D01*
X92969869Y-71426417D01*
X92969871Y-71426423D01*
X93030277Y-71572254D01*
X93049059Y-71617598D01*
X93164023Y-71789655D01*
X93310345Y-71935977D01*
X93482402Y-72050941D01*
X93673580Y-72130130D01*
X93876535Y-72170500D01*
X93876538Y-72170500D01*
X94083462Y-72170500D01*
X94083465Y-72170500D01*
X94286420Y-72130130D01*
X94477598Y-72050941D01*
X94649655Y-71935977D01*
X94795977Y-71789655D01*
X94910941Y-71617598D01*
X94990130Y-71426420D01*
X95030500Y-71223465D01*
X95030500Y-71016535D01*
X94990130Y-70813580D01*
X94910941Y-70622402D01*
X94795977Y-70450345D01*
X94649655Y-70304023D01*
X94477598Y-70189059D01*
X94477596Y-70189058D01*
X94286423Y-70109871D01*
X94286417Y-70109869D01*
X94204572Y-70093589D01*
X94083465Y-70069500D01*
X93876535Y-70069500D01*
X93775520Y-70089592D01*
X93673582Y-70109869D01*
X93673576Y-70109871D01*
X93482403Y-70189058D01*
X93310345Y-70304022D01*
X93164022Y-70450345D01*
X93049058Y-70622403D01*
X92969871Y-70813576D01*
X92969869Y-70813582D01*
X92964019Y-70842993D01*
X92929500Y-71016535D01*
X92194500Y-71016535D01*
X92194500Y-68476535D01*
X92929500Y-68476535D01*
X92929500Y-68683465D01*
X92951789Y-68795519D01*
X92969869Y-68886417D01*
X92969871Y-68886423D01*
X93002066Y-68964148D01*
X93049059Y-69077598D01*
X93065919Y-69102831D01*
X93131145Y-69200450D01*
X93164023Y-69249655D01*
X93310345Y-69395977D01*
X93482402Y-69510941D01*
X93673580Y-69590130D01*
X93876535Y-69630500D01*
X93876538Y-69630500D01*
X94083462Y-69630500D01*
X94083465Y-69630500D01*
X94286420Y-69590130D01*
X94477598Y-69510941D01*
X94649655Y-69395977D01*
X94795977Y-69249655D01*
X94910941Y-69077598D01*
X94990130Y-68886420D01*
X95030500Y-68683465D01*
X95030500Y-68476535D01*
X94990130Y-68273580D01*
X94910941Y-68082402D01*
X94795977Y-67910345D01*
X94649655Y-67764023D01*
X94477598Y-67649059D01*
X94477596Y-67649058D01*
X94286423Y-67569871D01*
X94286417Y-67569869D01*
X94204572Y-67553589D01*
X94083465Y-67529500D01*
X93876535Y-67529500D01*
X93775520Y-67549592D01*
X93673582Y-67569869D01*
X93673576Y-67569871D01*
X93482403Y-67649058D01*
X93310345Y-67764022D01*
X93164022Y-67910345D01*
X93049058Y-68082403D01*
X92969871Y-68273576D01*
X92969869Y-68273582D01*
X92963902Y-68303582D01*
X92929500Y-68476535D01*
X92194500Y-68476535D01*
X92194500Y-65170252D01*
X92929500Y-65170252D01*
X92929500Y-66909748D01*
X92941133Y-66968231D01*
X92958882Y-66994795D01*
X92985447Y-67034552D01*
X93012012Y-67052301D01*
X93051769Y-67078867D01*
X93110252Y-67090500D01*
X93110255Y-67090500D01*
X94849745Y-67090500D01*
X94849748Y-67090500D01*
X94908231Y-67078867D01*
X94974552Y-67034552D01*
X95018867Y-66968231D01*
X95030500Y-66909748D01*
X95030500Y-65170252D01*
X95018867Y-65111769D01*
X94992301Y-65072012D01*
X94974552Y-65045447D01*
X94934795Y-65018882D01*
X94908231Y-65001133D01*
X94849748Y-64989500D01*
X93110252Y-64989500D01*
X93051769Y-65001133D01*
X92985447Y-65045447D01*
X92941133Y-65111769D01*
X92929500Y-65170252D01*
X92194500Y-65170252D01*
X92194500Y-59012000D01*
X134891000Y-59012000D01*
X136791000Y-59012000D01*
X136791000Y-56922000D01*
X134891000Y-56922000D01*
X134891000Y-59012000D01*
X92194500Y-59012000D01*
X92194500Y-58545200D01*
X92208852Y-58510552D01*
X92243500Y-58496200D01*
X122936000Y-58496200D01*
X122936000Y-53889500D01*
X122950352Y-53854852D01*
X122985000Y-53840500D01*
X161756500Y-53840500D01*
X161791148Y-53854852D01*
G37*
%TD.AperFunction*%
%TD*%
M02*
