%TF.GenerationSoftware,KiCad,Pcbnew,9.0.1*%
%TF.CreationDate,2025-05-21T12:09:37+01:00*%
%TF.ProjectId,FSC-BT631D-Breakout,4653432d-4254-4363-9331-442d42726561,rev?*%
%TF.SameCoordinates,Original*%
%TF.FileFunction,Paste,Top*%
%TF.FilePolarity,Positive*%
%FSLAX46Y46*%
G04 Gerber Fmt 4.6, Leading zero omitted, Abs format (unit mm)*
G04 Created by KiCad (PCBNEW 9.0.1) date 2025-05-21 12:09:37*
%MOMM*%
%LPD*%
G01*
G04 APERTURE LIST*
G04 Aperture macros list*
%AMRoundRect*
0 Rectangle with rounded corners*
0 $1 Rounding radius*
0 $2 $3 $4 $5 $6 $7 $8 $9 X,Y pos of 4 corners*
0 Add a 4 corners polygon primitive as box body*
4,1,4,$2,$3,$4,$5,$6,$7,$8,$9,$2,$3,0*
0 Add four circle primitives for the rounded corners*
1,1,$1+$1,$2,$3*
1,1,$1+$1,$4,$5*
1,1,$1+$1,$6,$7*
1,1,$1+$1,$8,$9*
0 Add four rect primitives between the rounded corners*
20,1,$1+$1,$2,$3,$4,$5,0*
20,1,$1+$1,$4,$5,$6,$7,0*
20,1,$1+$1,$6,$7,$8,$9,0*
20,1,$1+$1,$8,$9,$2,$3,0*%
G04 Aperture macros list end*
%ADD10C,0.010000*%
%ADD11RoundRect,0.250000X-0.250000X0.275000X-0.250000X-0.275000X0.250000X-0.275000X0.250000X0.275000X0*%
%ADD12RoundRect,0.250000X-0.275000X0.850000X-0.275000X-0.850000X0.275000X-0.850000X0.275000X0.850000X0*%
%ADD13RoundRect,0.237500X-0.300000X-0.237500X0.300000X-0.237500X0.300000X0.237500X-0.300000X0.237500X0*%
%ADD14RoundRect,0.237500X0.300000X0.237500X-0.300000X0.237500X-0.300000X-0.237500X0.300000X-0.237500X0*%
%ADD15RoundRect,0.150000X0.150000X-0.512500X0.150000X0.512500X-0.150000X0.512500X-0.150000X-0.512500X0*%
%ADD16RoundRect,0.237500X-0.237500X0.300000X-0.237500X-0.300000X0.237500X-0.300000X0.237500X0.300000X0*%
%ADD17RoundRect,0.237500X0.237500X-0.287500X0.237500X0.287500X-0.237500X0.287500X-0.237500X-0.287500X0*%
%ADD18RoundRect,0.237500X0.250000X0.237500X-0.250000X0.237500X-0.250000X-0.237500X0.250000X-0.237500X0*%
%ADD19RoundRect,0.237500X-0.250000X-0.237500X0.250000X-0.237500X0.250000X0.237500X-0.250000X0.237500X0*%
%ADD20RoundRect,0.237500X-0.237500X0.250000X-0.237500X-0.250000X0.237500X-0.250000X0.237500X0.250000X0*%
%ADD21R,0.300000X0.850000*%
%ADD22R,0.850000X0.300000*%
%ADD23R,3.550000X3.550000*%
%ADD24R,0.500000X0.350000*%
%ADD25RoundRect,0.237500X0.237500X-0.300000X0.237500X0.300000X-0.237500X0.300000X-0.237500X-0.300000X0*%
%ADD26RoundRect,0.237500X0.287500X0.237500X-0.287500X0.237500X-0.287500X-0.237500X0.287500X-0.237500X0*%
%ADD27R,4.000000X1.500000*%
%ADD28RoundRect,0.237500X0.237500X-0.250000X0.237500X0.250000X-0.237500X0.250000X-0.237500X-0.250000X0*%
%ADD29R,0.600000X1.140000*%
%ADD30R,0.300000X1.140000*%
%ADD31RoundRect,0.020000X0.655000X-0.180000X0.655000X0.180000X-0.655000X0.180000X-0.655000X-0.180000X0*%
%ADD32RoundRect,0.167500X-0.167500X-0.312500X0.167500X-0.312500X0.167500X0.312500X-0.167500X0.312500X0*%
%ADD33RoundRect,0.062500X-0.362500X-0.062500X0.362500X-0.062500X0.362500X0.062500X-0.362500X0.062500X0*%
%ADD34RoundRect,0.237500X-0.287500X-0.237500X0.287500X-0.237500X0.287500X0.237500X-0.287500X0.237500X0*%
%ADD35RoundRect,0.075000X-0.775000X-0.175000X0.775000X-0.175000X0.775000X0.175000X-0.775000X0.175000X0*%
%ADD36RoundRect,0.075000X0.175000X-0.775000X0.175000X0.775000X-0.175000X0.775000X-0.175000X-0.775000X0*%
G04 APERTURE END LIST*
D10*
%TO.C,Q1*%
X112725000Y-106185000D02*
X111475000Y-106185000D01*
X111475000Y-104635000D01*
X112725000Y-104635000D01*
X112725000Y-106185000D01*
G36*
X112725000Y-106185000D02*
G01*
X111475000Y-106185000D01*
X111475000Y-104635000D01*
X112725000Y-104635000D01*
X112725000Y-106185000D01*
G37*
X111955000Y-104185000D02*
X111525000Y-104185000D01*
X111525000Y-103805000D01*
X111955000Y-103805000D01*
X111955000Y-104185000D01*
G36*
X111955000Y-104185000D02*
G01*
X111525000Y-104185000D01*
X111525000Y-103805000D01*
X111955000Y-103805000D01*
X111955000Y-104185000D01*
G37*
X111955000Y-107015000D02*
X111525000Y-107015000D01*
X111525000Y-106635000D01*
X111955000Y-106635000D01*
X111955000Y-107015000D01*
G36*
X111955000Y-107015000D02*
G01*
X111525000Y-107015000D01*
X111525000Y-106635000D01*
X111955000Y-106635000D01*
X111955000Y-107015000D01*
G37*
X113390000Y-104635000D02*
X113095000Y-104635000D01*
X113095000Y-104235000D01*
X113390000Y-104235000D01*
X113390000Y-104635000D01*
G36*
X113390000Y-104635000D02*
G01*
X113095000Y-104635000D01*
X113095000Y-104235000D01*
X113390000Y-104235000D01*
X113390000Y-104635000D01*
G37*
X113390000Y-105285000D02*
X113095000Y-105285000D01*
X113095000Y-104885000D01*
X113390000Y-104885000D01*
X113390000Y-105285000D01*
G36*
X113390000Y-105285000D02*
G01*
X113095000Y-105285000D01*
X113095000Y-104885000D01*
X113390000Y-104885000D01*
X113390000Y-105285000D01*
G37*
X113390000Y-105935000D02*
X113095000Y-105935000D01*
X113095000Y-105535000D01*
X113390000Y-105535000D01*
X113390000Y-105935000D01*
G36*
X113390000Y-105935000D02*
G01*
X113095000Y-105935000D01*
X113095000Y-105535000D01*
X113390000Y-105535000D01*
X113390000Y-105935000D01*
G37*
X113390000Y-106585000D02*
X113095000Y-106585000D01*
X113095000Y-106185000D01*
X113390000Y-106185000D01*
X113390000Y-106585000D01*
G36*
X113390000Y-106585000D02*
G01*
X113095000Y-106585000D01*
X113095000Y-106185000D01*
X113390000Y-106185000D01*
X113390000Y-106585000D01*
G37*
%TD*%
D11*
%TO.C,AE1*%
X135841000Y-56387000D03*
D12*
X137316000Y-57912000D03*
X134366000Y-57912000D03*
%TD*%
D13*
%TO.C,C9*%
X152807500Y-95250000D03*
X154532500Y-95250000D03*
%TD*%
D14*
%TO.C,C3*%
X117682500Y-100330000D03*
X115957500Y-100330000D03*
%TD*%
%TO.C,C1*%
X117682500Y-105410000D03*
X115957500Y-105410000D03*
%TD*%
D15*
%TO.C,U2*%
X106980000Y-97657500D03*
X107930000Y-97657500D03*
X108880000Y-97657500D03*
X108880000Y-95382500D03*
X107930000Y-95382500D03*
X106980000Y-95382500D03*
%TD*%
D16*
%TO.C,C5*%
X104120000Y-94387500D03*
X104120000Y-96112500D03*
%TD*%
D17*
%TO.C,D2*%
X115550000Y-87235000D03*
X115550000Y-85485000D03*
%TD*%
D18*
%TO.C,R5*%
X105032500Y-105410000D03*
X103207500Y-105410000D03*
%TD*%
D19*
%TO.C,R23*%
X134977500Y-100330000D03*
X136802500Y-100330000D03*
%TD*%
D20*
%TO.C,R12*%
X147320000Y-91797500D03*
X147320000Y-93622500D03*
%TD*%
D18*
%TO.C,R3*%
X107572500Y-115570000D03*
X105747500Y-115570000D03*
%TD*%
D21*
%TO.C,IC1*%
X149070000Y-96610000D03*
X148570000Y-96610000D03*
X148070000Y-96610000D03*
X147570000Y-96610000D03*
X147070000Y-96610000D03*
X146570000Y-96610000D03*
X146070000Y-96610000D03*
X145570000Y-96610000D03*
D22*
X144870000Y-97310000D03*
X144870000Y-97810000D03*
X144870000Y-98310000D03*
X144870000Y-98810000D03*
X144870000Y-99310000D03*
X144870000Y-99810000D03*
X144870000Y-100310000D03*
X144870000Y-100810000D03*
D21*
X145570000Y-101510000D03*
X146070000Y-101510000D03*
X146570000Y-101510000D03*
X147070000Y-101510000D03*
X147570000Y-101510000D03*
X148070000Y-101510000D03*
X148570000Y-101510000D03*
X149070000Y-101510000D03*
D22*
X149770000Y-100810000D03*
X149770000Y-100310000D03*
X149770000Y-99810000D03*
X149770000Y-99310000D03*
X149770000Y-98810000D03*
X149770000Y-98310000D03*
X149770000Y-97810000D03*
X149770000Y-97310000D03*
D23*
X147320000Y-99060000D03*
%TD*%
D24*
%TO.C,Q1*%
X110340000Y-104435000D03*
X110340000Y-105085000D03*
X110340000Y-105735000D03*
X110340000Y-106385000D03*
%TD*%
D18*
%TO.C,R14*%
X136802500Y-110490000D03*
X134977500Y-110490000D03*
%TD*%
D13*
%TO.C,C14*%
X152807500Y-105410000D03*
X154532500Y-105410000D03*
%TD*%
D14*
%TO.C,C2*%
X117682500Y-102870000D03*
X115957500Y-102870000D03*
%TD*%
%TO.C,C16*%
X136752500Y-105410000D03*
X135027500Y-105410000D03*
%TD*%
D25*
%TO.C,C7*%
X113010000Y-92302500D03*
X113010000Y-90577500D03*
%TD*%
D26*
%TO.C,D3*%
X120905000Y-82042000D03*
X119155000Y-82042000D03*
%TD*%
D19*
%TO.C,R19*%
X140057500Y-107950000D03*
X141882500Y-107950000D03*
%TD*%
%TO.C,R27*%
X119117500Y-79502000D03*
X120942500Y-79502000D03*
%TD*%
D27*
%TO.C,L1*%
X107930000Y-90700000D03*
X107930000Y-87100000D03*
%TD*%
D18*
%TO.C,R1*%
X103000500Y-115570000D03*
X101175500Y-115570000D03*
%TD*%
%TO.C,R6*%
X105032500Y-102870000D03*
X103207500Y-102870000D03*
%TD*%
%TO.C,R8*%
X120272500Y-110490000D03*
X118447500Y-110490000D03*
%TD*%
D13*
%TO.C,C17*%
X140107500Y-105410000D03*
X141832500Y-105410000D03*
%TD*%
D28*
%TO.C,R9*%
X100310000Y-82192500D03*
X100310000Y-80367500D03*
%TD*%
D29*
%TO.C,J1*%
X100920000Y-119515000D03*
X107320000Y-119515000D03*
X101720000Y-119515000D03*
X106520000Y-119515000D03*
D30*
X102870000Y-119515000D03*
X103870000Y-119515000D03*
X104370000Y-119515000D03*
X105370000Y-119515000D03*
X105870000Y-119515000D03*
X104870000Y-119515000D03*
X103370000Y-119515000D03*
X102370000Y-119515000D03*
%TD*%
D14*
%TO.C,C13*%
X154532500Y-92710000D03*
X152807500Y-92710000D03*
%TD*%
D31*
%TO.C,J5*%
X157480000Y-87710000D03*
X157480000Y-87060000D03*
X157480000Y-86410000D03*
X157480000Y-85760000D03*
X157480000Y-85110000D03*
%TD*%
D18*
%TO.C,R15*%
X136802500Y-107950000D03*
X134977500Y-107950000D03*
%TD*%
D13*
%TO.C,C12*%
X152807500Y-102870000D03*
X154532500Y-102870000D03*
%TD*%
D17*
%TO.C,D1*%
X100310000Y-87235000D03*
X100310000Y-85485000D03*
%TD*%
D13*
%TO.C,C22*%
X129847000Y-61468000D03*
X131572000Y-61468000D03*
%TD*%
D16*
%TO.C,C6*%
X111740000Y-95657500D03*
X111740000Y-97382500D03*
%TD*%
%TO.C,C18*%
X144780000Y-104547500D03*
X144780000Y-106272500D03*
%TD*%
D13*
%TO.C,C20*%
X129847000Y-56388000D03*
X131572000Y-56388000D03*
%TD*%
D20*
%TO.C,R17*%
X139700000Y-91797500D03*
X139700000Y-93622500D03*
%TD*%
%TO.C,R16*%
X142240000Y-91797500D03*
X142240000Y-93622500D03*
%TD*%
D25*
%TO.C,C8*%
X115550000Y-92302500D03*
X115550000Y-90577500D03*
%TD*%
D28*
%TO.C,R11*%
X149860000Y-93622500D03*
X149860000Y-91797500D03*
%TD*%
D18*
%TO.C,R2*%
X107572500Y-113030000D03*
X105747500Y-113030000D03*
%TD*%
D13*
%TO.C,C21*%
X129847000Y-58928000D03*
X131572000Y-58928000D03*
%TD*%
D20*
%TO.C,R13*%
X144780000Y-91797500D03*
X144780000Y-93622500D03*
%TD*%
D19*
%TO.C,R26*%
X106275500Y-65024000D03*
X108100500Y-65024000D03*
%TD*%
D28*
%TO.C,R25*%
X151310000Y-87322500D03*
X151310000Y-85497500D03*
%TD*%
D19*
%TO.C,R28*%
X123562500Y-79502000D03*
X125387500Y-79502000D03*
%TD*%
D28*
%TO.C,R10*%
X115550000Y-82192500D03*
X115550000Y-80367500D03*
%TD*%
D16*
%TO.C,C15*%
X149860000Y-104547500D03*
X149860000Y-106272500D03*
%TD*%
D19*
%TO.C,R21*%
X134977500Y-97790000D03*
X136802500Y-97790000D03*
%TD*%
%TO.C,R18*%
X140057500Y-110490000D03*
X141882500Y-110490000D03*
%TD*%
D13*
%TO.C,C4*%
X105797500Y-110490000D03*
X107522500Y-110490000D03*
%TD*%
D32*
%TO.C,U1*%
X111330000Y-109895000D03*
X111330000Y-111085000D03*
X112150000Y-109895000D03*
X112150000Y-111085000D03*
D33*
X110290000Y-109490000D03*
X110290000Y-109990000D03*
X110290000Y-110490000D03*
X110290000Y-110990000D03*
X110290000Y-111490000D03*
X113190000Y-111490000D03*
X113190000Y-110990000D03*
X113190000Y-110490000D03*
X113190000Y-109990000D03*
X113190000Y-109490000D03*
%TD*%
D34*
%TO.C,D4*%
X123600000Y-82042000D03*
X125350000Y-82042000D03*
%TD*%
D28*
%TO.C,R24*%
X153850000Y-84782500D03*
X153850000Y-82957500D03*
%TD*%
D35*
%TO.C,U3*%
X110840000Y-57960000D03*
X110840000Y-58860000D03*
X110840000Y-59760000D03*
X110840000Y-60660000D03*
X110840000Y-61560000D03*
X110840000Y-62460000D03*
X110840000Y-63360000D03*
X110840000Y-64260000D03*
X110840000Y-65160000D03*
X110840000Y-66060000D03*
X110840000Y-66960000D03*
D36*
X112340000Y-68460000D03*
X113240000Y-68460000D03*
X114140000Y-68460000D03*
X115040000Y-68460000D03*
X115940000Y-68460000D03*
X116840000Y-68460000D03*
X117740000Y-68460000D03*
X118640000Y-68460000D03*
X119540000Y-68460000D03*
X120440000Y-68460000D03*
X121340000Y-68460000D03*
D35*
X122840000Y-66960000D03*
X122840000Y-66060000D03*
X122840000Y-65160000D03*
X122840000Y-64260000D03*
X122840000Y-63360000D03*
X122840000Y-62460000D03*
X122840000Y-61560000D03*
X122840000Y-60660000D03*
X122840000Y-59760000D03*
X122840000Y-58860000D03*
X122840000Y-57960000D03*
X122840000Y-57060000D03*
X122840000Y-56160000D03*
X122840000Y-55260000D03*
%TD*%
D19*
%TO.C,R22*%
X134977500Y-95250000D03*
X136802500Y-95250000D03*
%TD*%
D18*
%TO.C,R7*%
X105032500Y-100330000D03*
X103207500Y-100330000D03*
%TD*%
D13*
%TO.C,C11*%
X152807500Y-97790000D03*
X154532500Y-97790000D03*
%TD*%
D18*
%TO.C,R4*%
X105032500Y-107950000D03*
X103207500Y-107950000D03*
%TD*%
D16*
%TO.C,C19*%
X147320000Y-104547500D03*
X147320000Y-106272500D03*
%TD*%
D13*
%TO.C,C10*%
X152807500Y-100270000D03*
X154532500Y-100270000D03*
%TD*%
D19*
%TO.C,R20*%
X134977500Y-102870000D03*
X136802500Y-102870000D03*
%TD*%
M02*
