M48
; DRILL file {KiCad 9.0.1} date 2025-05-21T12:09:33+0100
; FORMAT={-:-/ absolute / inch / decimal}
; #@! TF.CreationDate,2025-05-21T12:09:34+01:00
; #@! TF.GenerationSoftware,Kicad,Pcbnew,9.0.1
; #@! TF.FileFunction,Plated,1,2,PTH
FMAT,2
INCH
; #@! TA.AperFunction,Plated,PTH,ComponentDrill
T1C0.0079
; #@! TA.AperFunction,Plated,PTH,ViaDrill
T2C0.0118
; #@! TA.AperFunction,Plated,PTH,ComponentDrill
T3C0.0197
; #@! TA.AperFunction,Plated,PTH,ComponentDrill
T4C0.0236
; #@! TA.AperFunction,Plated,PTH,ComponentDrill
T5C0.0256
; #@! TA.AperFunction,Plated,PTH,ComponentDrill
T6C0.0394
%
G90
G05
T1
X4.3766Y-4.313
X4.3766Y-4.35
X4.3766Y-4.387
X4.4219Y-4.313
X4.4219Y-4.35
X4.4219Y-4.387
T2
X3.65Y-2.35
X3.65Y-2.38
X3.65Y-2.41
X3.67Y-2.32
X3.7Y-2.32
X3.73Y-2.32
X3.7402Y-2.3622
X3.7402Y-2.4606
X3.76Y-2.32
X3.79Y-2.32
X3.8092Y-3.9
X3.8092Y-4.0
X3.8092Y-4.1
X3.8092Y-4.2
X3.8092Y-4.3
X3.8092Y-4.4
X3.82Y-2.32
X3.8386Y-2.3622
X3.8386Y-2.4606
X3.8386Y-2.5591
X3.8386Y-2.6575
X3.8386Y-2.7559
X3.8386Y-2.8543
X3.85Y-2.32
X3.88Y-2.32
X3.8992Y-4.65
X3.91Y-2.32
X3.9292Y-4.65
X3.937Y-2.3622
X3.937Y-2.4606
X3.937Y-2.5591
X3.937Y-2.6575
X3.937Y-2.7559
X3.937Y-2.8543
X3.94Y-2.32
X3.9594Y-4.65
X3.97Y-2.32
X3.9992Y-3.4344
X4.0Y-2.32
X4.03Y-2.32
X4.0354Y-2.3622
X4.0354Y-2.4606
X4.0492Y-4.65
X4.06Y-2.32
X4.0725Y-4.59
X4.09Y-2.32
X4.1059Y-4.59
X4.1192Y-4.35
X4.12Y-2.32
X4.1351Y-4.2
X4.15Y-2.32
X4.1638Y-4.6439
X4.18Y-2.32
X4.2092Y-3.9
X4.21Y-2.6106
X4.239Y-4.65
X4.2392Y-4.5
X4.25Y-2.76
X4.2692Y-4.65
X4.2792Y-2.9658
X4.2907Y-4.3234
X4.2907Y-4.3569
X4.2992Y-3.7
X4.2992Y-4.65
X4.3492Y-3.7
X4.3492Y-3.75
X4.3992Y-3.7
X4.4092Y-3.46
X4.4199Y-2.32
X4.4492Y-3.7
X4.45Y-2.32
X4.4799Y-2.32
X4.4992Y-3.7
X4.51Y-2.32
X4.5192Y-4.3067
X4.5192Y-4.3539
X4.5399Y-2.32
X4.5492Y-3.7
X4.55Y-3.51
X4.57Y-2.32
X4.5992Y-3.4344
X4.5999Y-2.32
X4.626Y-3.7402
X4.626Y-3.8386
X4.63Y-2.32
X4.6599Y-2.32
X4.669Y-3.4245
X4.67Y-2.76
X4.67Y-3.3921
X4.6892Y-3.9
X4.6892Y-3.95
X4.6892Y-4.0
X4.6892Y-4.05
X4.6892Y-4.1
X4.6892Y-4.15
X4.69Y-2.32
X4.71Y-2.76
X4.71Y-2.79
X4.7199Y-2.32
X4.7244Y-3.5433
X4.7244Y-3.6417
X4.7244Y-3.7402
X4.7244Y-3.8386
X4.75Y-2.32
X4.76Y-3.28
X4.7792Y-4.25
X4.7792Y-4.45
X4.78Y-2.32
X4.8228Y-2.7559
X4.8228Y-3.4449
X4.8228Y-3.6417
X4.8228Y-3.7402
X4.8228Y-3.8386
X4.8661Y-3.28
X4.9Y-2.14
X4.9Y-2.18
X4.9Y-2.26
X4.9Y-2.56
X4.9213Y-2.7559
X4.9213Y-2.8543
X4.9213Y-3.4449
X4.9213Y-3.5433
X4.9213Y-4.0354
X4.9213Y-4.1339
X4.9213Y-4.3307
X4.9213Y-4.5276
X4.9213Y-4.626
X4.9213Y-4.7244
X4.9213Y-4.8228
X4.9213Y-4.9213
X4.93Y-2.14
X4.93Y-2.18
X4.93Y-2.26
X4.93Y-2.56
X4.96Y-2.14
X4.96Y-2.18
X4.96Y-2.26
X4.99Y-2.14
X5.0197Y-2.2638
X5.0197Y-2.3622
X5.0197Y-2.7559
X5.0197Y-2.8543
X5.0197Y-2.9528
X5.0197Y-3.0512
X5.0197Y-3.1496
X5.0197Y-3.4449
X5.0197Y-3.5433
X5.0197Y-3.6417
X5.0197Y-4.0354
X5.0197Y-4.1339
X5.0197Y-4.3307
X5.0197Y-4.5276
X5.0197Y-4.626
X5.0197Y-4.7244
X5.0197Y-4.8228
X5.0197Y-4.9213
X5.02Y-2.14
X5.0491Y-2.7009
X5.05Y-2.14
X5.066Y-2.32
X5.066Y-2.42
X5.08Y-2.14
X5.11Y-2.14
X5.1181Y-2.8543
X5.1181Y-2.9528
X5.1181Y-3.0512
X5.1181Y-3.1496
X5.1181Y-3.248
X5.1181Y-3.4449
X5.1181Y-3.5433
X5.1181Y-3.6417
X5.1181Y-4.0354
X5.1181Y-4.1339
X5.1181Y-4.2323
X5.1181Y-4.3307
X5.1181Y-4.4291
X5.1181Y-4.5276
X5.1181Y-4.626
X5.1181Y-4.7244
X5.1181Y-4.8228
X5.1181Y-4.9213
X5.12Y-2.73
X5.14Y-2.14
X5.17Y-2.14
X5.188Y-2.702
X5.2Y-2.14
X5.2165Y-2.6575
X5.2165Y-2.8543
X5.2165Y-2.9528
X5.2165Y-3.0512
X5.2165Y-3.1496
X5.2165Y-3.248
X5.2165Y-3.4449
X5.2165Y-3.5433
X5.2165Y-3.6417
X5.2165Y-4.4291
X5.2165Y-4.5276
X5.2165Y-4.7244
X5.2165Y-4.9213
X5.218Y-2.732
X5.23Y-2.14
X5.26Y-2.14
X5.26Y-2.37
X5.27Y-3.85
X5.27Y-4.05
X5.27Y-4.25
X5.29Y-2.14
X5.29Y-2.37
X5.315Y-2.6575
X5.315Y-2.9528
X5.315Y-3.0512
X5.315Y-3.1496
X5.315Y-3.248
X5.315Y-3.4449
X5.315Y-3.5433
X5.315Y-3.6417
X5.315Y-4.4291
X5.315Y-4.5276
X5.315Y-4.7244
X5.315Y-4.9213
X5.32Y-2.14
X5.32Y-2.37
X5.35Y-2.14
X5.35Y-2.37
X5.38Y-2.14
X5.38Y-2.37
X5.41Y-2.14
X5.41Y-2.37
X5.41Y-3.2976
X5.41Y-3.3291
X5.4134Y-2.6575
X5.4134Y-2.8543
X5.4134Y-3.0512
X5.4134Y-3.1496
X5.4134Y-3.248
X5.4134Y-3.4449
X5.4134Y-3.5433
X5.4134Y-3.6417
X5.44Y-2.14
X5.44Y-2.37
X5.5118Y-2.6575
X5.5118Y-2.8543
X5.5118Y-2.9528
X5.5118Y-3.1496
X5.5118Y-3.7402
X5.6102Y-2.6575
X5.6102Y-2.8543
X5.6102Y-2.9528
X5.6102Y-3.0512
X5.6102Y-4.4291
X5.6102Y-4.626
X5.6102Y-4.7244
X5.6102Y-4.8228
X5.6102Y-4.9213
X5.63Y-4.25
X5.66Y-3.89
X5.66Y-3.92
X5.66Y-4.04
X5.69Y-4.04
X5.7Y-4.23
X5.7087Y-2.6575
X5.7087Y-2.8543
X5.7087Y-2.9528
X5.7087Y-3.0512
X5.7087Y-3.1496
X5.7087Y-4.4291
X5.7087Y-4.626
X5.7087Y-4.7244
X5.7087Y-4.8228
X5.7087Y-4.9213
X5.72Y-4.04
X5.73Y-3.7564
X5.75Y-3.8902
X5.75Y-3.95
X5.7508Y-3.85
X5.78Y-3.8902
X5.8Y-4.23
X5.805Y-3.905
X5.8071Y-2.6575
X5.8071Y-2.7559
X5.8071Y-2.9528
X5.8071Y-3.0512
X5.8071Y-4.4291
X5.8071Y-4.8228
X5.8071Y-4.9213
X5.9Y-3.57
X5.9055Y-2.6575
X5.9055Y-2.7559
X5.9055Y-2.8543
X5.9055Y-3.0512
X5.9055Y-3.1496
X5.95Y-3.2533
X5.95Y-3.83
X5.9504Y-3.3025
X5.97Y-3.9476
X5.97Y-4.05
X5.97Y-4.15
X6.0039Y-2.6575
X6.0039Y-2.7559
X6.0039Y-2.8543
X6.0039Y-2.9528
X6.0039Y-3.1496
X6.0039Y-3.5433
X6.0039Y-4.2323
X6.0039Y-4.3307
X6.1024Y-2.6575
X6.1024Y-2.8543
X6.1024Y-2.9528
X6.1024Y-3.0512
X6.1024Y-3.5433
X6.1024Y-4.2323
X6.1024Y-4.3307
X6.13Y-2.14
X6.13Y-3.65
X6.13Y-3.75
X6.13Y-3.9476
X6.13Y-4.05
X6.13Y-4.15
X6.16Y-2.14
X6.19Y-2.14
X6.2008Y-2.2638
X6.2008Y-2.6575
X6.2008Y-2.8543
X6.2008Y-2.9528
X6.2008Y-3.0512
X6.2008Y-3.1496
X6.2008Y-4.2323
X6.2008Y-4.3307
X6.2008Y-4.4291
X6.2008Y-4.5276
X6.2008Y-4.7244
X6.2008Y-4.9213
X6.22Y-2.14
X6.25Y-2.14
X6.28Y-2.14
X6.2992Y-2.9528
X6.2992Y-3.0512
X6.2992Y-3.1496
X6.2992Y-3.6417
X6.2992Y-3.7402
X6.2992Y-3.8386
X6.2992Y-3.937
X6.2992Y-4.0354
X6.2992Y-4.1339
X6.2992Y-4.2323
X6.2992Y-4.3307
X6.2992Y-4.4291
X6.2992Y-4.5276
X6.2992Y-4.626
X6.2992Y-4.7244
X6.2992Y-4.8228
X6.2992Y-4.9213
X6.31Y-2.14
X6.34Y-2.14
X6.35Y-2.17
X6.35Y-2.2
X6.35Y-2.23
T3
X3.8992Y-4.55
X4.0492Y-3.2
X4.4492Y-3.2
X4.5492Y-3.8
X5.1Y-3.75
X5.1Y-3.95
X5.5Y-3.4
X5.6Y-3.4
X5.66Y-4.54
X5.7Y-3.4
X5.7801Y-4.54
X5.8Y-3.4
T6
X3.7Y-2.6
X3.7Y-2.7
X3.7Y-2.8
X3.7Y-2.9
X3.7Y-3.0
X3.7Y-3.1
X3.7Y-3.2
X3.7Y-3.3
X3.7Y-3.5
X3.7Y-3.6
X3.7Y-3.7
X3.7Y-3.8
X4.2Y-3.2
X4.3Y-3.2
X4.38Y-2.98
X4.48Y-2.98
X5.54Y-2.2
X5.64Y-2.2
X5.74Y-2.2
X5.84Y-2.2
X5.94Y-2.2
X6.04Y-2.2
X6.301Y-2.4012
X6.301Y-2.5012
X6.301Y-2.6012
X6.301Y-2.7012
X6.301Y-2.8012
T3
G00X6.2915Y-3.2612
M15
G01X6.3191Y-3.2612
M16
G05
G00X6.2915Y-3.5427
M15
G01X6.3191Y-3.5427
M16
G05
T4
G00X5.3555Y-4.822
M15
G01X5.3555Y-4.7984
M16
G05
G00X5.5445Y-4.6252
M15
G01X5.5445Y-4.6016
M16
G05
G00X5.5445Y-4.9008
M15
G01X5.5445Y-4.8772
M16
G05
G00X5.9055Y-4.822
M15
G01X5.9055Y-4.7984
M16
G05
G00X6.0945Y-4.6252
M15
G01X6.0945Y-4.6016
M16
G05
G00X6.0945Y-4.9008
M15
G01X6.0945Y-4.8772
M16
G05
T5
G00X3.9289Y-4.7048
M15
G01X3.9289Y-4.7491
M16
G05
G00X3.9289Y-4.8761
M15
G01X3.9289Y-4.9086
M16
G05
G00X4.2695Y-4.7048
M15
G01X4.2695Y-4.7491
M16
G05
G00X4.2695Y-4.8761
M15
G01X4.2695Y-4.9086
M16
G05
G00X6.1941Y-3.3065
M15
G01X6.202Y-3.3065
M16
G05
G00X6.1941Y-3.4974
M15
G01X6.202Y-3.4974
M16
G05
M30
